# Blender 3.5.1
# www.blender.org

o cylinder.001
v -1.755141 0.336311 0.210498
v 0.063291 0.336311 0.562436
v -1.637048 0.023811 -0.078829
v 0.061674 0.023811 0.249940
v -1.448098 0.023811 -0.541753
v 0.059087 0.023811 -0.250053
v -1.330005 0.336311 -0.831080
v 0.057470 0.336311 -0.562549
v -1.330005 0.836311 -0.831080
v 0.057470 0.836311 -0.562549
v -1.448098 1.148811 -0.541753
v 0.059087 1.148811 -0.250053
v -1.637048 1.148811 -0.078829
v 0.061674 1.148811 0.249940
v -1.755141 0.836311 0.210498
v 0.063291 0.836311 0.562436
v 0.063291 0.336311 0.562436
v 1.877983 0.336311 0.191701
v 0.061674 0.023811 0.249940
v 1.756903 0.023811 -0.096389
v 0.059087 0.023811 -0.250053
v 1.563174 0.023811 -0.557332
v 0.057470 0.336311 -0.562549
v 1.442093 0.336311 -0.845422
v 0.057470 0.836311 -0.562549
v 1.442093 0.836311 -0.845422
v 0.059087 1.148811 -0.250053
v 1.563174 1.148812 -0.557332
v 0.061674 1.148811 0.249940
v 1.756903 1.148812 -0.096389
v 0.063291 0.836311 0.562436
v 1.877983 0.836311 0.191701
vn -0.1357 -0.7002 0.7009
vn -0.0000 -1.0000 -0.0000
vn 0.1357 -0.7002 -0.7009
vn 0.1900 -0.0000 -0.9818
vn 0.1357 0.7002 -0.7009
vn -0.0000 1.0000 -0.0000
vn -0.1357 0.7002 0.7009
vn -0.1900 -0.0000 0.9818
vn -0.9258 -0.0000 -0.3779
vn 0.1429 -0.7002 0.6995
vn -0.1429 -0.7002 -0.6995
vn -0.2002 -0.0000 -0.9798
vn -0.1429 0.7002 -0.6995
vn 0.1429 0.7002 0.6995
vn 0.2002 -0.0000 0.9798
vn 0.9219 -0.0000 -0.3875
vt 0.427083 0.416667
vt 0.520833 0.343750
vt 0.427083 0.729167
vt 0.500000 0.416667
vt 0.572917 0.291667
vt 0.500000 0.729167
vt 0.583333 0.416667
vt 0.572917 0.208333
vt 0.583333 0.729167
vt 0.645833 0.416667
vt 0.031250 0.416667
vt 0.520833 0.156250
vt 0.645833 0.729167
vt 0.031250 0.729167
vt 0.114583 0.416667
vt 0.437500 0.156250
vt 0.114583 0.729167
vt 0.187500 0.416667
vt 0.385417 0.208333
vt 0.187500 0.729167
vt 0.270833 0.416667
vt 0.385417 0.291667
vt 0.270833 0.729167
vt 0.343750 0.416667
vt 0.437500 0.343750
vt 0.343750 0.729167
vt 0.427083 0.666667
vt 0.427083 0.979167
vt 0.520833 0.156250
vt 0.500000 0.666667
vt 0.500000 0.979167
vt 0.572917 0.208333
vt 0.583333 0.666667
vt 0.583333 0.979167
vt 0.572917 0.291667
vt 0.645833 0.666667
vt 0.031250 0.666667
vt 0.645833 0.979167
vt 0.031250 0.979167
vt 0.520833 0.343750
vt 0.114583 0.666667
vt 0.114583 0.979167
vt 0.437500 0.343750
vt 0.187500 0.666667
vt 0.187500 0.979167
vt 0.385417 0.291667
vt 0.270833 0.666667
vt 0.270833 0.979167
vt 0.385417 0.208333
vt 0.343750 0.666667
vt 0.343750 0.979167
vt 0.437500 0.156250
s 0

f 1/1/1 3/4/1 4/6/1 2/3/1
f 3/4/2 5/7/2 6/9/2 4/6/2
f 5/7/3 7/10/3 8/13/3 6/9/3
f 7/11/4 9/15/4 10/17/4 8/14/4
f 9/15/5 11/18/5 12/20/5 10/17/5
f 11/18/6 13/21/6 14/23/6 12/20/6
f 13/21/7 15/24/7 16/26/7 14/23/7
f 15/24/8 1/1/8 2/3/8 16/26/8
f 7/12/9 1/2/9 15/25/9 9/16/9
f 13/22/9 11/19/9 9/16/9 15/25/9
f 3/5/9 1/2/9 7/12/9 5/8/9
f 17/27/10 19/30/10 20/31/10 18/28/10
f 19/30/2 21/33/2 22/34/2 20/31/2
f 21/33/11 23/36/11 24/38/11 22/34/11
f 23/37/12 25/41/12 26/42/12 24/39/12
f 25/41/13 27/44/13 28/45/13 26/42/13
f 27/44/6 29/47/6 30/48/6 28/45/6
f 29/47/14 31/50/14 32/51/14 30/48/14
f 31/50/15 17/27/15 18/28/15 32/51/15
f 26/43/16 32/52/16 18/29/16 24/40/16
f 28/46/16 30/49/16 32/52/16 26/43/16
f 22/35/16 24/40/16 18/29/16 20/32/16
