# Blender 3.5.1
# www.blender.org

o cuboid.001
v -1.260132 0.619860 1.192506
v -1.260132 0.119860 1.192506
v -1.260132 0.744860 0.942506
v -1.260132 -0.005140 0.942506
v -1.510132 0.119860 0.942506
v -1.510132 0.619860 0.942506
v -1.260132 0.744860 -0.119994
v -1.510132 0.619860 -0.119994
v -1.510132 0.119860 -0.119994
v -1.260132 -0.005140 -0.119994
v -1.510132 0.369860 -0.119994
v -1.510132 0.369860 0.942506
v -1.260132 0.369860 1.192506
v -1.260132 0.369860 -0.307494
v 1.302368 0.744860 0.942506
v 1.302368 0.619860 1.192506
v 1.302368 0.369860 1.192506
v 1.302368 0.119860 1.192506
v 1.302368 -0.005140 0.942506
v 0.864868 -0.005140 -1.181378
v 0.864868 0.369860 -1.368878
v 0.864868 0.744860 -1.181378
vn -0.0000 0.8944 0.4472
vn -0.0000 -0.8944 0.4472
vn -0.0000 -0.0000 1.0000
vn -0.7071 -0.0000 0.7071
vn -0.4082 0.8165 0.4082
vn -0.4082 -0.8165 0.4082
vn -0.0000 1.0000 -0.0000
vn -0.4472 0.8944 -0.0000
vn -1.0000 -0.0000 -0.0000
vn -0.4472 -0.8944 -0.0000
vn -0.0000 -1.0000 -0.0000
vn -0.4079 -0.4083 -0.8166
vn -0.6000 -0.0000 -0.8000
vn -0.6000 -0.0001 -0.8000
vn -0.4079 0.4083 -0.8166
vn -0.5571 0.3714 -0.7428
vn -0.5570 0.3714 -0.7428
vn 0.9794 -0.0000 -0.2018
vn 1.0000 -0.0000 -0.0000
vt 0.031250 0.906250
vt 0.109375 0.968750
vt 0.203125 0.960938
vt 0.023438 0.578125
vt 0.164062 0.859375
vt 0.023438 0.546875
vt 0.203125 0.929688
vt 0.093750 0.976562
vt 0.031250 0.921875
vt 0.093750 0.976562
vt 0.117188 0.664062
vt 0.070312 0.664062
vt 0.164062 0.843750
vt 0.078125 0.960938
vt 0.296875 0.875000
vt 0.320312 0.773438
vt 0.179688 0.929688
vt 0.070312 0.976562
vt 0.265625 0.562500
vt 0.296875 0.890625
vt 0.085938 0.968750
vt 0.070312 0.648438
vt 0.265625 0.593750
vt 0.179688 0.960938
vt 0.117188 0.726562
vt 0.000000 0.664062
vt 0.234375 1.000000
vt 0.000000 1.000000
vt 0.000000 0.648438
vt 0.195312 0.593750
vt 0.015625 0.992188
vt 0.195312 0.562500
vt 0.226562 0.890625
vt 0.015625 0.960938
vt 0.226562 0.875000
vt 0.320312 0.703125
vt 0.234375 0.953125
vt 0.000000 0.953125
vt 0.195312 0.578125
vt 0.015625 0.976562
vt 0.265625 0.578125
vt 0.179688 0.945312
vt 0.203125 0.945312
vt 0.023438 0.562500
vt 0.234375 0.976562
vt 0.000000 0.976562
vt 0.195312 0.921875
vt 0.289062 0.664062
vt 0.000000 1.000000
vt 0.015625 1.000000
vt 0.195312 0.906250
vt 0.187500 0.578125
vt 0.000000 0.992188
vt 0.187500 0.562500
vt 0.000000 0.976562
vt 0.000000 1.000000
vt 0.328125 0.859375
vt 0.187500 0.546875
vt 0.000000 0.984375
vt 0.328125 0.843750
vt 0.484375 0.773438
vt 0.000000 0.953125
vt 0.015625 0.953125
vt 0.015625 0.976562
vt 0.484375 0.664062
vt 0.062500 0.953125
vt 0.140625 0.953125
vt 0.000000 0.953125
vt 0.062500 0.976562
vt 0.015625 0.976562
vt 0.289062 0.773438
vt 0.062500 1.000000
vt 0.140625 1.000000
vt 0.000000 1.000000
s 0

f 1/1/1 16/51/1 15/47/1 3/9/1
f 4/13/2 19/60/2 18/57/2 2/5/2
f 2/6/3 18/58/3 17/54/3 13/44/3
f 2/7/4 13/43/4 12/42/4 5/17/4
f 3/10/5 6/21/5 1/2/5
f 5/18/6 4/14/6 2/8/6
f 3/11/7 15/48/7 22/71/7 7/25/7
f 3/12/8 7/26/8 8/29/8 6/22/8
f 5/19/9 12/41/9 11/39/9 9/32/9
f 5/20/10 9/33/10 10/35/10 4/15/10
f 10/36/11 20/65/11 19/61/11 4/16/11
f 14/45/12 21/69/12 20/66/12 10/37/12
f 9/34/13 11/40/13 14/46/14 10/38/13
f 8/30/9 11/39/9 12/41/9 6/23/9
f 6/24/4 12/42/4 13/43/4 1/3/4
f 13/44/3 17/54/3 16/52/3 1/4/3
f 7/27/15 22/72/15 21/69/15 14/45/15
f 7/28/16 14/46/16 11/40/16 8/31/17
f 20/67/18 22/73/18 15/49/18 19/62/18
f 21/70/19 22/74/19 20/68/19
f 15/50/19 16/53/19 17/55/19 19/63/19
f 17/56/19 18/59/19 19/64/19
