# Blender 3.5.1
# www.blender.org

o cuboid.002
v -3.686039 0.098188 1.563277
v -3.645489 0.098188 1.247184
v -3.051962 0.160688 1.667120
v -3.014688 0.160688 1.483363
v -3.747027 0.410688 1.542728
v -3.645489 0.410688 1.247184
v -3.051962 0.348188 1.667120
v -3.014688 0.348188 1.483363
v -3.686039 0.254438 1.563277
v -3.645489 0.254438 1.247184
v -3.014688 0.254438 1.483363
v -3.051962 0.254438 1.667120
v -3.637030 0.098188 1.414912
v -3.033325 0.160688 1.575241
v -3.033325 0.254438 1.575241
v -3.033325 0.348188 1.575241
v -3.696258 0.410688 1.394956
v -3.637030 0.254438 1.414912
v 3.410560 0.098189 -3.194507
v 3.102752 0.098189 -3.277050
v 3.265796 0.160689 -2.568505
v 3.081650 0.160689 -2.603815
v 3.414715 0.410689 -3.258730
v 3.102752 0.410689 -3.277050
v 3.265796 0.348189 -2.568505
v 3.081650 0.348189 -2.603815
v 3.410560 0.254439 -3.194507
v 3.102752 0.254439 -3.277050
v 3.081650 0.254439 -2.603815
v 3.265796 0.254439 -2.568505
v 3.254699 0.098189 -3.205521
v 3.173723 0.160689 -2.586160
v 3.173723 0.254439 -2.586160
v 3.173723 0.348189 -2.586160
v 3.258734 0.410689 -3.267890
v 3.254699 0.254439 -3.205521
v -3.354384 0.174095 1.693485
v -2.655436 0.174095 1.826631
v -3.327495 0.066938 1.589757
v -3.287174 0.066938 1.434211
v -2.622616 0.066938 1.560806
v -3.260286 0.174095 1.330483
v -2.609486 0.174095 1.454457
v -3.260286 0.334782 1.330483
v -2.609486 0.334782 1.454457
v -3.287174 0.441938 1.434211
v -3.327495 0.441938 1.589757
v -2.642305 0.441938 1.720282
v -3.354384 0.334782 1.693485
v -2.655437 0.334782 1.826631
v 3.405046 0.174096 -2.838251
v 3.298879 0.066939 -2.852774
v 3.139674 0.066939 -2.874552
v 3.004380 0.066939 -2.211710
v 3.033506 0.174096 -2.889075
v 3.033506 0.334783 -2.889075
v 2.901012 0.334783 -2.239956
v 3.139674 0.441939 -2.874552
v 3.298879 0.441939 -2.852774
v 3.405046 0.334783 -2.838251
v 3.262750 0.334783 -2.141108
v 3.262750 0.174096 -2.141108
v 3.159384 0.066939 -2.169353
v 1.825480 0.066938 -0.076951
v 2.901012 0.174096 -2.239956
v 1.746521 0.334782 -0.149393
v 1.825480 0.441938 -0.076951
v 3.004380 0.441939 -2.211710
v 3.159384 0.441939 -2.169353
v 2.022845 0.334782 0.104122
v 2.022845 0.174095 0.104122
v -0.144549 0.066938 1.431833
v 1.943885 0.066938 0.031680
v 1.746521 0.174095 -0.149393
v 1.943885 0.441938 0.031680
v -0.107525 0.174095 1.532390
v -2.642305 0.066938 1.720282
v -0.200070 0.066938 1.281042
v -0.237094 0.174095 1.180485
v -0.237094 0.334782 1.180485
v -2.622616 0.441938 1.560806
v -0.200070 0.441938 1.281042
v -0.144549 0.441938 1.431833
v -0.107525 0.334782 1.532390
v 2.542451 0.441938 -1.073909
v 2.776917 0.174096 -0.944426
v 2.542451 0.066938 -1.073909
v 2.448647 0.174095 -1.125710
v 2.776917 0.334783 -0.944426
v 2.683115 0.441939 -0.996228
v 2.448647 0.334782 -1.125710
v 2.683115 0.066939 -0.996228
v 0.999343 0.066938 0.845717
v 1.059336 0.174095 0.934505
v 0.909379 0.066938 0.712574
v 0.849386 0.174095 0.623787
v 0.849386 0.334782 0.623787
v 0.999343 0.441938 0.845717
v 1.059336 0.334782 0.934505
v 0.909379 0.441938 0.712574
v -1.416969 0.441938 1.568167
v -1.428799 0.174095 1.461665
v -1.387397 0.174095 1.834373
v -1.416969 0.066938 1.568167
v -1.428799 0.334782 1.461665
v -1.387397 0.334782 1.834373
v -1.399228 0.066938 1.727871
v -1.399228 0.441938 1.727871
vn 0.0948 -0.9951 0.0267
vn 0.0861 0.9960 0.0249
vn -0.9495 -0.0000 -0.3137
vn 0.9800 -0.0000 0.1988
vn -0.1616 -0.0000 0.9869
vn 0.3506 -0.0000 -0.9365
vn -0.8781 -0.3761 -0.2958
vn -0.1638 0.0161 0.9864
vn -0.1639 0.0163 0.9863
vn -0.1637 0.0163 0.9864
vn 0.1062 -0.9943 -0.0109
vn 0.1076 -0.9941 -0.0100
vn 0.1073 -0.9942 -0.0103
vn 0.1067 -0.9942 -0.0105
vn 0.0880 0.9958 0.0255
vn -0.8781 -0.3714 -0.3015
vn -0.8781 -0.3714 -0.3017
vn -0.8781 -0.3715 -0.3015
vn -0.8781 -0.3716 -0.3015
vn -0.9987 -0.0000 0.0504
vn -0.0113 -0.9951 0.0978
vn -0.0096 0.9960 0.0891
vn 0.0705 -0.0000 -0.9975
vn -0.1883 -0.0000 0.9821
vn 0.9743 -0.0000 0.2253
vn -0.9995 -0.0000 -0.0313
vn 0.0598 -0.3761 -0.9246
vn 0.9747 0.0161 0.2231
vn 0.9747 0.0163 0.2230
vn 0.9746 0.0163 0.2232
vn -0.0503 -0.9942 0.0954
vn -0.0502 -0.9941 0.0957
vn -0.0504 -0.9943 0.0941
vn -0.0503 -0.9942 0.0947
vn -0.0098 0.9958 0.0911
vn 0.0547 -0.3716 -0.9268
vn 0.0544 -0.3714 -0.9269
vn 0.0546 -0.3714 -0.9269
vn 0.0546 -0.3716 -0.9268
vn 0.4259 -0.0000 -0.9048
vn -0.1325 -0.7063 0.6954
vn -0.0000 -1.0000 -0.0000
vn 0.1325 -0.7063 -0.6954
vn 0.1871 -0.0000 -0.9823
vn 0.1325 0.7063 -0.6954
vn -0.0000 1.0000 -0.0000
vn -0.1325 0.7063 0.6954
vn -0.1871 -0.0000 0.9823
vn -0.9680 -0.0000 -0.2509
vn 0.6936 -0.7063 0.1416
vn -0.6936 -0.7063 -0.1416
vn -0.9798 -0.0000 -0.2000
vn -0.6936 0.7063 -0.1416
vn 0.6936 0.7063 0.1416
vn 0.9798 -0.0000 0.2000
vn 0.1355 -0.0000 -0.9908
vn 0.6575 -0.7046 0.2669
vn -0.6575 -0.7046 -0.2669
vn -0.9266 -0.0000 -0.3762
vn -0.6575 0.7046 -0.2669
vn 0.6575 0.7046 0.2669
vn 0.9266 -0.0000 0.3762
vn 0.4632 -0.7047 0.5375
vn -0.4632 -0.7047 -0.5375
vn -0.6528 -0.0000 -0.7575
vn -0.4632 0.7047 -0.5375
vn 0.4632 0.7047 0.5375
vn 0.6528 -0.0000 0.7575
vn 0.1630 -0.7045 0.6907
vn -0.1630 -0.7045 -0.6907
vn -0.2296 -0.0000 -0.9733
vn -0.1630 0.7045 -0.6907
vn 0.1630 0.7045 0.6907
vn 0.2296 -0.0000 0.9733
vn 0.8119 -0.0000 0.5839
vn 0.5761 0.7046 0.4143
vn -0.5761 0.7046 -0.4143
vn -0.8119 -0.0000 -0.5839
vn -0.5761 -0.7046 -0.4143
vn 0.5761 -0.7046 0.4143
vn 0.4560 -0.0000 0.8900
vn 0.3236 0.7045 0.6316
vn -0.3236 0.7045 -0.6316
vn -0.4560 -0.0000 -0.8900
vn -0.3236 -0.7045 -0.6316
vn 0.3236 -0.7045 0.6316
vn -0.0061 -0.0000 1.0000
vn -0.0043 0.7047 0.7095
vn 0.0043 0.7047 -0.7095
vn 0.0061 -0.0000 -1.0000
vn 0.0043 -0.7047 -0.7095
vn -0.0043 -0.7047 0.7095
vt 0.039062 0.453125
vt 0.070312 0.437500
vt 0.039062 0.460938
vt 0.039062 0.398438
vt 0.031250 0.484375
vt 0.062500 0.492188
vt 0.117188 0.460938
vt 0.015625 1.000000
vt 0.117188 0.453125
vt 0.125000 0.406250
vt 0.117188 0.476562
vt 0.015625 0.984375
vt 0.039062 0.414062
vt 0.062500 0.476562
vt 0.031250 0.421875
vt 0.039062 0.468750
vt 0.039062 0.375000
vt 0.109375 0.484375
vt 0.125000 0.406250
vt 0.000000 1.000000
vt 0.117188 0.429688
vt 0.125000 0.460938
vt 0.000000 0.984375
vt 0.125000 0.382812
vt 0.046875 0.437500
vt 0.062500 0.453125
vt 0.039062 0.445312
vt 0.039062 0.414062
vt 0.039062 0.453125
vt 0.109375 0.468750
vt 0.039062 0.492188
vt 0.125000 0.414062
vt 0.125000 0.453125
vt 0.007812 0.984375
vt 0.007812 1.000000
vt 0.117188 0.445312
vt 0.070312 0.460938
vt 0.039062 0.468750
vt 0.062500 0.468750
vt 0.117188 0.468750
vt 0.015625 0.992188
vt 0.007812 0.992188
vt 0.000000 0.992188
vt 0.125000 0.398438
vt 0.085938 0.476562
vt 0.039062 0.398438
vt 0.085938 0.484375
vt 0.046875 0.460938
vt 0.085938 0.453125
vt 0.085938 0.460938
vt 0.039062 0.468750
vt 0.039062 0.453125
vt 0.070312 0.437500
vt 0.039062 0.460938
vt 0.039062 0.398438
vt 0.031250 0.484375
vt 0.062500 0.492188
vt 0.117188 0.460938
vt 0.015625 1.000000
vt 0.117188 0.453125
vt 0.125000 0.406250
vt 0.117188 0.476562
vt 0.015625 0.984375
vt 0.039062 0.414062
vt 0.062500 0.476562
vt 0.031250 0.421875
vt 0.039062 0.468750
vt 0.039062 0.375000
vt 0.109375 0.484375
vt 0.125000 0.406250
vt 0.000000 1.000000
vt 0.117188 0.429688
vt 0.125000 0.460938
vt 0.000000 0.984375
vt 0.125000 0.382812
vt 0.046875 0.437500
vt 0.062500 0.453125
vt 0.039062 0.445312
vt 0.039062 0.414062
vt 0.039062 0.453125
vt 0.109375 0.468750
vt 0.039062 0.492188
vt 0.125000 0.414062
vt 0.125000 0.453125
vt 0.007812 0.984375
vt 0.007812 1.000000
vt 0.117188 0.445312
vt 0.070312 0.460938
vt 0.039062 0.468750
vt 0.062500 0.468750
vt 0.117188 0.468750
vt 0.015625 0.992188
vt 0.007812 0.992188
vt 0.000000 0.992188
vt 0.125000 0.398438
vt 0.085938 0.476562
vt 0.039062 0.398438
vt 0.085938 0.484375
vt 0.046875 0.460938
vt 0.085938 0.453125
vt 0.085938 0.460938
vt 0.039062 0.468750
vt 0.140625 0.562500
vt 0.197543 0.611605
vt 0.226562 0.562500
vt 0.484375 0.562500
vt 0.140625 0.546875
vt 0.203125 0.620539
vt 0.210938 0.625000
vt 0.140625 0.531250
vt 0.203125 0.640625
vt 0.210938 0.627230
vt 0.226562 0.531250
vt 0.484375 0.531250
vt 0.140625 0.515625
vt 0.140625 0.625000
vt 0.197543 0.640625
vt 0.226562 0.515625
vt 0.226562 0.625000
vt 0.484375 0.546875
vt 0.484375 0.515625
vt 0.140625 0.609375
vt 0.140625 0.640625
vt 0.177457 0.640625
vt 0.226562 0.609375
vt 0.226562 0.640625
vt 0.484375 0.640625
vt 0.484375 0.531250
vt 0.140625 0.625000
vt 0.140625 0.609375
vt 0.156250 0.640625
vt 0.164062 0.627230
vt 0.140625 0.593750
vt 0.156250 0.620539
vt 0.164062 0.625000
vt 0.226562 0.593750
vt 0.484375 0.593750
vt 0.140625 0.578125
vt 0.177457 0.611605
vt 0.226562 0.578125
vt 0.484375 0.578125
vt 0.132812 0.562500
vt 0.197543 0.611605
vt 0.132812 0.546875
vt 0.203125 0.620539
vt 0.210938 0.625000
vt 0.132812 0.531250
vt 0.203125 0.640625
vt 0.210938 0.627230
vt 0.218750 0.531250
vt 0.742188 0.531250
vt 0.132812 0.515625
vt 0.132812 0.625000
vt 0.197543 0.640625
vt 0.132812 0.609375
vt 0.132812 0.640625
vt 0.177457 0.640625
vt 0.218750 0.609375
vt 0.218750 0.640625
vt 1.000000 0.554688
vt 1.000000 0.617188
vt 0.132812 0.625000
vt 0.132812 0.609375
vt 0.156250 0.640625
vt 0.164062 0.627230
vt 0.132812 0.593750
vt 0.156250 0.620539
vt 0.164062 0.625000
vt 0.132812 0.578125
vt 0.177457 0.611605
vt 0.218750 0.578125
vt 0.742188 0.578125
vt 0.218750 0.562500
vt 0.742188 0.562500
vt 0.218750 0.546875
vt 0.742188 0.546875
vt 1.000000 0.531250
vt 0.484375 0.531250
vt 0.218750 0.515625
vt 0.218750 0.625000
vt 0.742188 0.515625
vt 1.000000 0.570312
vt 0.484375 0.609375
vt 0.484375 0.640625
vt 0.742188 0.617188
vt 0.742188 0.554688
vt 0.484375 0.625000
vt 0.484375 0.609375
vt 0.742188 0.601562
vt 0.218750 0.625000
vt 0.218750 0.609375
vt 1.000000 0.601562
vt 0.218750 0.593750
vt 1.000000 0.585938
vt 0.742188 0.593750
vt 0.484375 0.578125
vt 1.000000 0.562500
vt 0.484375 0.562500
vt 0.742188 0.546875
vt 1.000000 0.546875
vt 0.484375 0.546875
vt 1.000000 0.515625
vt 0.484375 0.625000
vt 0.742188 0.570312
vt 0.484375 0.515625
vt 0.484375 0.593750
vt 0.742188 0.585938
vt 0.226562 0.562500
vt 0.742188 0.562500
vt 0.226562 0.546875
vt 0.484375 0.546875
vt 0.742188 0.531250
vt 0.742188 0.546875
vt 0.226562 0.625000
vt 0.742188 0.515625
vt 0.742188 0.531250
vt 0.742188 0.640625
vt 0.226562 0.640625
vt 0.226562 0.609375
vt 0.226562 0.625000
vt 0.226562 0.609375
vt 0.484375 0.609375
vt 0.484375 0.625000
vt 0.742188 0.625000
vt 0.742188 0.609375
vt 0.226562 0.609375
vt 0.226562 0.625000
vt 0.742188 0.593750
vt 0.226562 0.593750
vt 0.742188 0.578125
vt 0.226562 0.578125
vt 0.871094 0.601562
vt 0.613281 0.562500
vt 0.613281 0.531250
vt 0.871094 0.570312
vt 0.613281 0.515625
vt 0.613281 0.578125
vt 0.613281 0.593750
vt 0.871094 0.585938
vt 0.871094 0.617188
vt 0.871094 0.554688
vt 0.613281 0.546875
vt 0.873057 0.546875
vt 0.357432 0.562500
vt 0.873057 0.562500
vt 0.873057 0.531250
vt 0.357432 0.625000
vt 0.873057 0.515625
vt 0.357432 0.640625
vt 0.357432 0.609375
vt 0.357432 0.593750
vt 0.357432 0.578125
vt 0.357432 0.609375
vt 0.357432 0.625000
vt 0.610927 0.609375
vt 0.610927 0.625000
vt 0.610927 0.546875
vt 0.610927 0.515625
vt 0.610927 0.562500
vt 0.610927 0.531250
vt 0.610927 0.640625
vt 0.610927 0.531250
vt 0.610927 0.578125
vt 0.610927 0.546875
vt 0.610927 0.593750
s 0

f 13/38/1 14/40/1 3/7/1 1/1/1
f 16/44/2 17/46/2 5/13/2 7/19/2
f 18/48/3 13/37/3 1/2/3 9/25/3
f 14/41/4 15/42/4 12/35/4 3/8/4
f 12/36/5 9/27/5 1/3/5 3/9/5
f 10/28/6 11/32/6 4/10/6 2/4/6
f 17/45/7 18/49/7 9/26/7 5/14/7
f 11/33/6 10/29/6 6/16/6 8/22/6
f 15/42/4 16/43/4 7/20/4 12/35/4
f 9/27/8 12/36/9 7/21/8 5/15/10
f 14/40/11 13/38/12 2/5/13 4/11/14
f 15/42/4 14/41/4 4/12/4 11/34/4
f 16/43/4 15/42/4 11/34/4 8/23/4
f 17/46/15 16/44/15 8/24/15 6/17/15
f 18/50/16 17/47/17 6/18/18 10/30/19
f 13/39/20 18/51/20 10/31/20 2/6/20
f 21/58/21 32/91/21 31/89/21 19/52/21
f 23/64/22 35/97/22 34/95/22 25/70/22
f 19/53/23 31/88/23 36/99/23 27/76/23
f 30/86/24 33/93/24 32/92/24 21/59/24
f 19/54/25 27/78/25 30/87/25 21/60/25
f 22/61/26 29/83/26 28/79/26 20/55/26
f 27/77/27 36/100/27 35/96/27 23/65/27
f 24/67/26 28/80/26 29/84/26 26/73/26
f 25/71/24 34/94/24 33/93/24 30/86/24
f 25/72/28 30/87/29 27/78/28 23/66/30
f 20/56/31 31/89/32 32/91/33 22/62/34
f 22/63/24 32/92/24 33/93/24 29/85/24
f 29/85/24 33/93/24 34/94/24 26/74/24
f 26/75/35 34/95/35 35/97/35 24/68/35
f 24/69/36 35/98/37 36/101/38 28/81/39
f 28/82/40 36/102/40 31/90/40 20/57/40
f 37/103/41 39/107/41 77/210/41 38/105/41
f 39/107/42 40/110/42 41/113/42 77/210/42
f 40/110/43 42/115/43 43/118/43 41/113/43
f 42/116/44 44/122/44 45/125/44 43/119/44
f 44/123/45 46/129/45 81/220/45 45/126/45
f 46/130/46 47/133/46 48/136/46 81/221/46
f 47/133/47 49/138/47 50/140/47 48/136/47
f 49/138/48 37/103/48 38/105/48 50/140/48
f 47/134/49 46/131/49 40/111/49 39/108/49
f 49/139/49 47/135/49 39/109/49 37/104/49
f 40/112/49 46/132/49 44/124/49 42/117/49
f 63/175/50 52/144/50 51/142/50 62/173/50
f 54/150/42 53/147/42 52/144/42 63/175/42
f 65/179/51 55/152/51 53/147/51 54/150/51
f 57/158/52 56/155/52 55/153/52 65/180/52
f 68/190/53 58/162/53 56/156/53 57/159/53
f 69/193/46 59/166/46 58/163/46 68/191/46
f 61/171/54 60/169/54 59/166/54 69/193/54
f 62/173/55 51/142/55 60/169/55 61/171/55
f 53/148/56 58/164/56 59/167/56 52/145/56
f 52/146/56 59/168/56 60/170/56 51/143/56
f 56/157/56 58/165/56 53/149/56 55/154/56
f 86/233/57 92/242/57 63/176/57 62/174/57
f 92/242/42 87/234/42 54/151/42 63/176/42
f 87/234/58 88/236/58 65/181/58 54/151/58
f 88/235/59 91/241/59 57/160/59 65/182/59
f 91/240/60 85/232/60 68/192/60 57/161/60
f 85/232/46 90/239/46 69/194/46 68/192/46
f 90/238/61 89/237/61 61/172/61 69/195/61
f 89/237/62 86/233/62 62/174/62 61/172/62
f 94/245/63 93/243/63 73/200/63 71/197/63
f 93/243/42 95/246/42 64/177/42 73/200/42
f 95/246/64 96/248/64 74/202/64 64/177/64
f 96/247/65 97/250/65 66/183/65 74/203/65
f 97/249/66 100/254/66 67/187/66 66/184/66
f 100/253/46 98/251/46 75/206/46 67/188/46
f 98/251/67 99/252/67 70/196/67 75/206/67
f 99/252/68 94/244/68 71/198/68 70/196/68
f 103/259/69 107/264/69 72/199/69 76/209/69
f 107/264/42 104/260/42 78/212/42 72/199/42
f 104/260/70 102/258/70 79/215/70 78/212/70
f 102/257/71 105/262/71 80/216/71 79/213/71
f 105/261/72 101/256/72 82/224/72 80/217/72
f 101/255/46 108/265/46 83/228/46 82/225/46
f 108/265/73 106/263/73 84/230/73 83/228/73
f 106/263/74 103/259/74 76/209/74 84/230/74
f 70/196/75 71/198/75 86/233/75 89/237/75
f 75/206/76 70/196/76 89/237/76 90/238/76
f 67/189/46 75/207/46 90/239/46 85/232/46
f 66/185/77 67/189/77 85/232/77 91/240/77
f 74/204/78 66/186/78 91/241/78 88/235/78
f 64/178/79 74/205/79 88/236/79 87/234/79
f 73/201/42 64/178/42 87/234/42 92/242/42
f 71/198/80 73/201/80 92/242/80 86/233/80
f 84/231/81 76/208/81 94/244/81 99/252/81
f 83/229/82 84/231/82 99/252/82 98/251/82
f 82/226/46 83/229/46 98/251/46 100/253/46
f 80/218/83 82/227/83 100/254/83 97/249/83
f 79/214/84 80/219/84 97/250/84 96/247/84
f 78/212/85 79/215/85 96/248/85 95/246/85
f 72/199/42 78/212/42 95/246/42 93/243/42
f 76/209/86 72/199/86 93/243/86 94/245/86
f 50/141/87 38/106/87 103/259/87 106/263/87
f 48/137/88 50/141/88 106/263/88 108/265/88
f 81/222/46 48/137/46 108/265/46 101/255/46
f 45/127/89 81/223/89 101/256/89 105/261/89
f 43/120/90 45/128/90 105/262/90 102/257/90
f 41/114/91 43/121/91 102/258/91 104/260/91
f 77/211/42 41/114/42 104/260/42 107/264/42
f 38/106/92 77/211/92 107/264/92 103/259/92
