# Blender 3.5.1
# www.blender.org

o cuboid.003
v -3.658352 0.027465 -1.334083
v -3.425194 0.027465 -1.551326
v -3.230637 0.089965 -0.851640
v -3.086915 0.089965 -0.972056
v -3.692293 0.339965 -1.389110
v -3.425194 0.339965 -1.551326
v -3.230638 0.277465 -0.851640
v -3.086915 0.277465 -0.972056
v -3.658352 0.183715 -1.334083
v -3.425194 0.183715 -1.551326
v -3.086915 0.183715 -0.972056
v -3.230637 0.183715 -0.851640
v -3.525934 0.027465 -1.417023
v -3.158775 0.089965 -0.911848
v -3.158775 0.183715 -0.911848
v -3.158775 0.277465 -0.911848
v -3.558743 0.339965 -1.470218
v -3.525934 0.183715 -1.417023
v 4.492488 0.027466 -1.685864
v 4.241479 0.027466 -1.882211
v 4.107929 0.089966 -1.168364
v 3.954367 0.089966 -1.275950
v 4.521562 0.339966 -1.743611
v 4.241479 0.339966 -1.882211
v 4.107929 0.277466 -1.168364
v 3.954367 0.277466 -1.275950
v 4.492488 0.183716 -1.685864
v 4.241479 0.183716 -1.882211
v 3.954367 0.183716 -1.275950
v 4.107929 0.183716 -1.168364
v 4.353414 0.027466 -1.757087
v 4.031148 0.089966 -1.222157
v 4.031148 0.183716 -1.222157
v 4.031148 0.277466 -1.222157
v 4.381520 0.339966 -1.812911
v 4.353414 0.183716 -1.757087
v -3.483511 0.103371 -1.021615
v -3.016655 0.103371 -0.479753
v -3.397266 -0.003785 -1.085210
v -2.941004 -0.003785 -0.555643
v -3.267937 -0.003785 -1.180575
v -3.181692 0.103371 -1.244169
v -2.751910 0.103371 -0.745337
v -3.181692 0.264059 -1.244169
v -3.267937 0.371215 -1.180575
v -2.827561 0.371215 -0.669446
v -3.397266 0.371215 -1.085210
v -3.483511 0.264059 -1.021615
v -3.016655 0.264059 -0.479753
v -2.827561 -0.003785 -0.669446
v -0.709228 -0.003785 0.510368
v -2.751910 0.264059 -0.745337
v -2.941005 0.371215 -0.555643
v -0.770947 0.264059 0.771003
v -0.770947 0.103371 0.771003
v 1.797187 0.103372 0.660166
v -0.746255 -0.003785 0.666731
v 1.713242 -0.003785 0.405816
v -0.684537 0.103371 0.406095
v -0.684537 0.264059 0.406095
v 1.679659 0.264059 0.304059
v -0.709228 0.371215 0.510368
v 1.713242 0.371215 0.405816
v -0.746255 0.371215 0.666731
v 3.926784 0.103372 -0.779424
v 1.763604 -0.003785 0.558408
v 3.722049 -0.003784 -0.952120
v 1.679659 0.103372 0.304059
v 3.722049 0.371216 -0.952120
v 1.763604 0.371215 0.558408
v 1.797187 0.264059 0.660166
v 3.926784 0.264060 -0.779424
v 4.345219 0.103372 -1.359495
v 4.253815 -0.003784 -1.415423
v 3.844875 -0.003784 -0.848515
v 4.116751 -0.003784 -1.499290
v 4.025347 0.103372 -1.555218
v 3.640141 0.103372 -1.021211
v 4.025347 0.264060 -1.555218
v 3.640141 0.264060 -1.021211
v 4.116751 0.371216 -1.499290
v 4.253815 0.371216 -1.415423
v 3.844875 0.371216 -0.848515
v 4.345219 0.264060 -1.359495
v 3.100462 0.264060 -0.009324
v 3.100462 0.103372 -0.009324
v 3.037304 -0.003784 -0.095890
v 2.942595 -0.003784 -0.225700
v 2.879438 0.103372 -0.312266
v 2.942595 0.371216 -0.225700
v 3.037304 0.371216 -0.095890
v 2.879438 0.264060 -0.312266
v 0.593393 0.103372 0.889997
v 0.577727 0.371215 0.622612
v 0.571459 0.264059 0.515639
v 0.587125 -0.003785 0.783024
v 0.577727 -0.003785 0.622612
v 0.571459 0.103372 0.515639
v 0.593393 0.264059 0.889997
v 0.587125 0.371215 0.783024
v -1.850217 -0.003785 0.067371
v -1.980543 0.103371 0.301369
v -1.928404 -0.003785 0.207753
v -1.798077 0.103371 -0.026245
v -1.850217 0.371215 0.067371
v -1.980543 0.264059 0.301369
v -1.928404 0.371215 0.207753
v -1.798077 0.264059 -0.026245
vn 0.0564 -0.9952 0.0805
vn 0.0507 0.9960 0.0737
vn -0.5308 -0.0000 -0.8475
vn 0.6422 -0.0000 0.7665
vn -0.7483 -0.0000 0.6634
vn 0.8635 -0.0000 -0.5043
vn -0.4863 -0.3769 -0.7884
vn -0.7498 0.0187 0.6613
vn -0.7499 0.0190 0.6613
vn -0.7499 0.0187 0.6613
vn -0.7498 0.0190 0.6614
vn 0.0890 -0.9943 0.0588
vn 0.0897 -0.9941 0.0606
vn 0.0896 -0.9942 0.0602
vn 0.0892 -0.9942 0.0595
vn 0.0520 0.9958 0.0756
vn -0.4821 -0.3714 -0.7935
vn -0.4820 -0.3714 -0.7936
vn -0.4822 -0.3715 -0.7934
vn -0.4821 -0.3716 -0.7934
vn -0.8000 -0.0000 -0.6000
vn -0.0493 -0.9952 0.0851
vn -0.0442 0.9960 0.0778
vn 0.4558 -0.0000 -0.8901
vn -0.5738 -0.0000 0.8190
vn 0.8026 -0.0000 0.5965
vn -0.9038 -0.0000 -0.4280
vn 0.4165 -0.3769 -0.8273
vn 0.8041 0.0187 0.5942
vn 0.8041 0.0190 0.5942
vn 0.8040 0.0187 0.5943
vn 0.8040 0.0190 0.5944
vn -0.0841 -0.9942 0.0677
vn -0.0842 -0.9941 0.0681
vn -0.0836 -0.9943 0.0662
vn -0.0838 -0.9942 0.0669
vn -0.0453 0.9958 0.0798
vn 0.4120 -0.3716 -0.8320
vn 0.4118 -0.3714 -0.8321
vn 0.4120 -0.3714 -0.8320
vn 0.4119 -0.3716 -0.8320
vn 0.7453 -0.0000 -0.6667
vn -0.5365 -0.7061 0.4622
vn -0.0000 -1.0000 -0.0000
vn 0.5365 -0.7061 -0.4622
vn 0.7576 -0.0000 -0.6527
vn 0.5365 0.7061 -0.4622
vn -0.0000 1.0000 -0.0000
vn -0.5365 0.7061 0.4622
vn -0.7576 -0.0000 0.6527
vn -0.5935 -0.0000 -0.8048
vn -0.5935 -0.0000 -0.8049
vn -0.2571 -0.7037 0.6623
vn 0.2571 -0.7037 -0.6623
vn 0.3619 -0.0000 -0.9322
vn 0.2571 0.7037 -0.6623
vn -0.2571 0.7037 0.6623
vn -0.3619 -0.0000 0.9322
vn 0.1332 -0.7041 0.6975
vn -0.1332 -0.7041 -0.6975
vn -0.1875 -0.0000 -0.9823
vn -0.1332 0.7041 -0.6975
vn 0.1332 0.7041 0.6975
vn 0.1875 -0.0000 0.9823
vn 0.4838 -0.7046 0.5191
vn -0.4838 -0.7046 -0.5191
vn -0.6818 -0.0000 -0.7316
vn -0.4838 0.7046 -0.5191
vn 0.4838 0.7046 0.5191
vn 0.6818 -0.0000 0.7316
vn 0.5743 -0.7061 0.4143
vn -0.5743 -0.7061 -0.4143
vn -0.8110 -0.0000 -0.5850
vn -0.5743 0.7061 -0.4143
vn 0.5743 0.7061 0.4143
vn 0.8110 -0.0000 0.5850
vn 0.5219 -0.0000 -0.8530
vn 0.4569 -0.0000 0.8895
vn 0.3251 0.7028 0.6328
vn -0.3251 0.7028 -0.6328
vn -0.4569 -0.0000 -0.8895
vn -0.3251 -0.7028 -0.6328
vn 0.3251 -0.7028 0.6328
vn -0.0869 -0.0000 0.9962
vn -0.0618 0.7033 0.7082
vn 0.0618 0.7033 -0.7082
vn 0.0869 -0.0000 -0.9962
vn 0.0618 -0.7033 -0.7082
vn -0.0618 -0.7033 0.7082
vn -0.6020 -0.0000 0.7985
vn -0.4277 0.7037 0.5673
vn 0.4277 0.7037 -0.5673
vn 0.6020 -0.0000 -0.7985
vn 0.4277 -0.7037 -0.5673
vn -0.4277 -0.7037 0.5673
vt 0.039062 0.593750
vt 0.070312 0.578125
vt 0.039062 0.601562
vt 0.039062 0.539062
vt 0.031250 0.625000
vt 0.062500 0.632812
vt 0.117188 0.601562
vt 0.015625 1.000000
vt 0.117188 0.593750
vt 0.125000 0.546875
vt 0.117188 0.617188
vt 0.015625 0.984375
vt 0.039062 0.554688
vt 0.062500 0.617188
vt 0.031250 0.562500
vt 0.039062 0.609375
vt 0.039062 0.515625
vt 0.109375 0.625000
vt 0.125000 0.546875
vt 0.000000 1.000000
vt 0.117188 0.570312
vt 0.125000 0.601562
vt 0.000000 0.984375
vt 0.125000 0.523438
vt 0.046875 0.578125
vt 0.062500 0.593750
vt 0.039062 0.585938
vt 0.039062 0.554688
vt 0.039062 0.593750
vt 0.109375 0.609375
vt 0.039062 0.632812
vt 0.125000 0.554688
vt 0.125000 0.593750
vt 0.007812 0.984375
vt 0.007812 1.000000
vt 0.117188 0.585938
vt 0.070312 0.601562
vt 0.039062 0.609375
vt 0.062500 0.609375
vt 0.117188 0.609375
vt 0.015625 0.992188
vt 0.007812 0.992188
vt 0.000000 0.992188
vt 0.125000 0.539062
vt 0.085938 0.617188
vt 0.039062 0.539062
vt 0.085938 0.625000
vt 0.046875 0.601562
vt 0.085938 0.593750
vt 0.085938 0.601562
vt 0.039062 0.609375
vt 0.039062 0.593750
vt 0.070312 0.578125
vt 0.039062 0.601562
vt 0.039062 0.539062
vt 0.031250 0.625000
vt 0.062500 0.632812
vt 0.117188 0.601562
vt 0.015625 1.000000
vt 0.117188 0.593750
vt 0.125000 0.546875
vt 0.117188 0.617188
vt 0.015625 0.984375
vt 0.039062 0.554688
vt 0.062500 0.617188
vt 0.031250 0.562500
vt 0.039062 0.609375
vt 0.039062 0.515625
vt 0.109375 0.625000
vt 0.125000 0.546875
vt 0.000000 1.000000
vt 0.117188 0.570312
vt 0.125000 0.601562
vt 0.000000 0.984375
vt 0.125000 0.523438
vt 0.046875 0.578125
vt 0.062500 0.593750
vt 0.039062 0.585938
vt 0.039062 0.554688
vt 0.039062 0.593750
vt 0.109375 0.609375
vt 0.039062 0.632812
vt 0.125000 0.554688
vt 0.125000 0.593750
vt 0.007812 0.984375
vt 0.007812 1.000000
vt 0.117188 0.585938
vt 0.070312 0.601562
vt 0.039062 0.609375
vt 0.062500 0.609375
vt 0.117188 0.609375
vt 0.015625 0.992188
vt 0.007812 0.992188
vt 0.000000 0.992188
vt 0.125000 0.539062
vt 0.085938 0.617188
vt 0.039062 0.539062
vt 0.085938 0.625000
vt 0.046875 0.601562
vt 0.085938 0.593750
vt 0.085938 0.601562
vt 0.039062 0.609375
vt 0.140625 0.562500
vt 0.197543 0.611605
vt 0.226562 0.562500
vt 0.484375 0.562500
vt 0.140625 0.546875
vt 0.203125 0.620539
vt 0.210938 0.625000
vt 0.226562 0.546875
vt 0.484375 0.546875
vt 0.140625 0.531250
vt 0.203125 0.640625
vt 0.210938 0.627230
vt 0.140625 0.515625
vt 0.140625 0.625000
vt 0.197543 0.640625
vt 0.226562 0.515625
vt 0.226562 0.625000
vt 0.484375 0.546875
vt 0.484375 0.515625
vt 0.140625 0.609375
vt 0.140625 0.640625
vt 0.177457 0.640625
vt 0.140625 0.625000
vt 0.140625 0.609375
vt 0.156250 0.640625
vt 0.164062 0.627230
vt 0.226562 0.625000
vt 0.226562 0.609375
vt 0.484375 0.609375
vt 0.484375 0.625000
vt 0.140625 0.593750
vt 0.156250 0.620539
vt 0.164062 0.625000
vt 0.140625 0.578125
vt 0.177457 0.611605
vt 0.226562 0.578125
vt 0.484375 0.578125
vt 0.226562 0.531250
vt 0.484375 0.531250
vt 0.742188 0.531250
vt 0.226562 0.531250
vt 0.226562 0.609375
vt 0.226562 0.640625
vt 0.484375 0.640625
vt 0.484375 0.531250
vt 0.226562 0.593750
vt 0.484375 0.593750
vt 0.742188 0.578125
vt 0.226562 0.578125
vt 0.742188 0.562500
vt 0.226562 0.562500
vt 0.484375 0.562500
vt 0.742188 0.546875
vt 0.226562 0.546875
vt 0.484375 0.531250
vt 0.742188 0.515625
vt 0.742188 0.546875
vt 0.226562 0.625000
vt 0.226562 0.515625
vt 0.742188 0.531250
vt 0.742188 0.640625
vt 0.226562 0.640625
vt 0.226562 0.609375
vt 0.484375 0.640625
vt 0.484375 0.609375
vt 0.742188 0.625000
vt 0.742188 0.609375
vt 0.226562 0.609375
vt 0.226562 0.625000
vt 0.484375 0.609375
vt 0.484375 0.625000
vt 0.742188 0.593750
vt 0.226562 0.593750
vt 0.742188 0.562500
vt 0.218750 0.562500
vt 0.484375 0.546875
vt 0.742188 0.531250
vt 0.218750 0.531250
vt 0.484375 0.625000
vt 0.484375 0.515625
vt 0.742188 0.625000
vt 0.742188 0.609375
vt 0.218750 0.625000
vt 0.218750 0.609375
vt 0.484375 0.593750
vt 0.484375 0.578125
vt 0.742188 0.578125
vt 0.218750 0.578125
vt 0.132812 0.562500
vt 0.197543 0.611605
vt 0.132812 0.546875
vt 0.203125 0.620539
vt 0.210938 0.625000
vt 0.742188 0.546875
vt 0.218750 0.546875
vt 0.132812 0.531250
vt 0.203125 0.640625
vt 0.210938 0.627230
vt 0.132812 0.515625
vt 0.132812 0.625000
vt 0.197543 0.640625
vt 0.742188 0.515625
vt 0.742188 0.625000
vt 0.218750 0.515625
vt 0.218750 0.625000
vt 0.132812 0.609375
vt 0.132812 0.640625
vt 0.177457 0.640625
vt 0.742188 0.609375
vt 0.742188 0.640625
vt 0.218750 0.609375
vt 0.218750 0.640625
vt 0.132812 0.625000
vt 0.132812 0.609375
vt 0.156250 0.640625
vt 0.164062 0.627230
vt 0.132812 0.593750
vt 0.156250 0.620539
vt 0.164062 0.625000
vt 0.742188 0.593750
vt 0.218750 0.593750
vt 0.132812 0.578125
vt 0.177457 0.611605
vt 0.630060 0.578125
vt 0.630060 0.562500
vt 0.630060 0.546875
vt 0.630060 0.531250
vt 0.630060 0.625000
vt 0.630060 0.515625
vt 0.630060 0.609375
vt 0.630060 0.625000
vt 0.630060 0.593750
vt 0.630060 0.640625
vt 0.630060 0.609375
vt 0.362666 0.562500
vt 0.362666 0.609375
vt 0.362666 0.625000
vt 0.362666 0.640625
vt 0.362666 0.609375
vt 0.362666 0.546875
vt 0.362666 0.531250
vt 0.362666 0.625000
vt 0.362666 0.515625
vt 0.362666 0.578125
vt 0.362666 0.593750
vt 0.613281 0.531250
vt 0.613281 0.562500
vt 0.613281 0.546875
vt 0.613281 0.546875
vt 0.613281 0.515625
vt 0.613281 0.609375
vt 0.613281 0.625000
vt 0.613281 0.578125
vt 0.613281 0.593750
vt 0.613281 0.640625
vt 0.613281 0.531250
s 0

f 13/38/1 14/40/1 3/7/1 1/1/1
f 16/44/2 17/46/2 5/13/2 7/19/2
f 18/48/3 13/37/3 1/2/3 9/25/3
f 14/41/4 15/42/4 12/35/4 3/8/4
f 12/36/5 9/27/5 1/3/5 3/9/5
f 10/28/6 11/32/6 4/10/6 2/4/6
f 17/45/7 18/49/7 9/26/7 5/14/7
f 11/33/6 10/29/6 6/16/6 8/22/6
f 15/42/4 16/43/4 7/20/4 12/35/4
f 9/27/8 12/36/9 7/21/10 5/15/11
f 14/40/12 13/38/13 2/5/14 4/11/15
f 15/42/4 14/41/4 4/12/4 11/34/4
f 16/43/4 15/42/4 11/34/4 8/23/4
f 17/46/16 16/44/16 8/24/16 6/17/16
f 18/50/17 17/47/18 6/18/19 10/30/20
f 13/39/21 18/51/21 10/31/21 2/6/21
f 21/58/22 32/91/22 31/89/22 19/52/22
f 23/64/23 35/97/23 34/95/23 25/70/23
f 19/53/24 31/88/24 36/99/24 27/76/24
f 30/86/25 33/93/25 32/92/25 21/59/25
f 19/54/26 27/78/26 30/87/26 21/60/26
f 22/61/27 29/83/27 28/79/27 20/55/27
f 27/77/28 36/100/28 35/96/28 23/65/28
f 24/67/27 28/80/27 29/84/27 26/73/27
f 25/71/25 34/94/25 33/93/25 30/86/25
f 25/72/29 30/87/30 27/78/31 23/66/32
f 20/56/33 31/89/34 32/91/35 22/62/36
f 22/63/25 32/92/25 33/93/25 29/85/25
f 29/85/25 33/93/25 34/94/25 26/74/25
f 26/75/37 34/95/37 35/97/37 24/68/37
f 24/69/38 35/98/39 36/101/40 28/81/41
f 28/82/42 36/102/42 31/90/42 20/57/42
f 37/103/43 39/107/43 40/110/43 38/105/43
f 39/107/44 41/112/44 50/140/44 40/110/44
f 41/112/45 42/115/45 43/118/45 50/140/45
f 42/116/46 44/122/46 52/144/46 43/119/46
f 44/123/47 45/125/47 46/129/47 52/145/47
f 45/126/48 47/133/48 53/148/48 46/130/48
f 47/133/49 48/136/49 49/138/49 53/148/49
f 48/136/50 37/103/50 38/105/50 49/138/50
f 47/134/51 45/127/51 41/113/51 39/108/51
f 48/137/52 47/135/52 39/109/52 37/104/52
f 41/114/52 45/128/52 44/124/52 42/117/52
f 102/249/53 103/250/53 57/155/53 55/152/53
f 103/250/44 101/248/44 51/142/44 57/155/44
f 101/248/54 104/252/54 59/158/54 51/142/54
f 104/251/55 108/258/55 60/162/55 59/159/55
f 108/257/56 105/254/56 62/168/56 60/163/56
f 105/253/48 107/256/48 64/174/48 62/169/48
f 107/256/57 106/255/57 54/150/57 64/174/57
f 106/255/58 102/249/58 55/152/58 54/150/58
f 93/237/59 96/242/59 66/178/59 56/154/59
f 96/242/44 97/243/44 58/157/44 66/178/44
f 97/243/60 98/245/60 68/182/60 58/157/60
f 98/244/61 95/241/61 61/167/61 68/181/61
f 95/240/62 94/239/62 63/173/62 61/166/62
f 94/238/48 100/247/48 70/187/48 63/172/48
f 100/247/63 99/246/63 71/188/63 70/187/63
f 99/246/64 93/237/64 56/154/64 71/188/64
f 86/227/65 87/228/65 75/196/65 65/176/65
f 87/228/44 88/229/44 67/179/44 75/196/44
f 88/229/66 89/231/66 78/204/66 67/179/66
f 89/230/67 92/236/67 80/211/67 78/205/67
f 92/235/68 90/233/68 69/183/68 80/212/68
f 90/232/48 91/234/48 83/222/48 69/184/48
f 91/234/69 85/226/69 72/189/69 83/222/69
f 85/226/70 86/227/70 65/176/70 72/189/70
f 75/197/71 74/193/71 73/191/71 65/177/71
f 67/180/44 76/198/44 74/193/44 75/197/44
f 78/206/72 77/201/72 76/198/72 67/180/72
f 80/213/73 79/208/73 77/202/73 78/207/73
f 69/185/74 81/215/74 79/209/74 80/214/74
f 83/223/48 82/219/48 81/216/48 69/186/48
f 72/190/75 84/224/75 82/219/75 83/223/75
f 65/177/76 73/191/76 84/224/76 72/190/76
f 76/199/77 81/217/77 82/220/77 74/194/77
f 74/195/77 82/221/77 84/225/77 73/192/77
f 79/210/77 81/218/77 76/200/77 77/203/77
f 71/188/78 56/154/78 86/227/78 85/226/78
f 70/187/79 71/188/79 85/226/79 91/234/79
f 63/172/48 70/187/48 91/234/48 90/232/48
f 61/166/80 63/173/80 90/233/80 92/235/80
f 68/181/81 61/167/81 92/236/81 89/230/81
f 58/157/82 68/182/82 89/231/82 88/229/82
f 66/178/44 58/157/44 88/229/44 87/228/44
f 56/154/83 66/178/83 87/228/83 86/227/83
f 54/151/84 55/153/84 93/237/84 99/246/84
f 64/175/85 54/151/85 99/246/85 100/247/85
f 62/170/48 64/175/48 100/247/48 94/238/48
f 60/164/86 62/171/86 94/239/86 95/240/86
f 59/160/87 60/165/87 95/241/87 98/244/87
f 51/143/88 59/161/88 98/245/88 97/243/88
f 57/156/44 51/143/44 97/243/44 96/242/44
f 55/153/89 57/156/89 96/242/89 93/237/89
f 49/139/90 38/106/90 102/249/90 106/255/90
f 53/149/91 49/139/91 106/255/91 107/256/91
f 46/131/48 53/149/48 107/256/48 105/253/48
f 52/146/92 46/132/92 105/254/92 108/257/92
f 43/120/93 52/147/93 108/258/93 104/251/93
f 50/141/94 43/121/94 104/252/94 101/248/94
f 40/111/44 50/141/44 101/248/44 103/250/44
f 38/106/95 40/111/95 103/250/95 102/249/95
