# Blender 3.5.1
# www.blender.org

o cuboid.006
v -2.312774 -0.156250 -0.423624
v -2.010319 -0.156250 -0.523957
v -2.082739 -0.093750 0.192807
v -1.909318 -0.093750 0.121525
v -2.320924 0.156250 -0.489595
v -2.010319 0.156250 -0.523957
v -2.082739 0.093750 0.192807
v -1.909318 0.093750 0.121525
v -2.312774 0.000000 -0.423624
v -2.010319 0.000000 -0.523957
v -1.909318 0.000000 0.121525
v -2.082739 0.000000 0.192807
v -2.157959 -0.156250 -0.444750
v -1.996028 -0.093750 0.157166
v -1.996028 0.000000 0.157166
v -1.996028 0.093750 0.157166
v -2.165622 0.156250 -0.506776
v -2.157959 0.000000 -0.444750
v 2.867348 -0.156250 -0.433856
v 2.564497 -0.156250 -0.532995
v 2.639750 -0.093750 0.183478
v 2.466048 -0.093750 0.112881
v 2.875236 0.156250 -0.499859
v 2.564497 0.156250 -0.532995
v 2.639750 0.093750 0.183478
v 2.466048 0.093750 0.112881
v 2.867348 0.000000 -0.433856
v 2.564497 0.000000 -0.532995
v 2.466048 0.000000 0.112881
v 2.639750 0.000000 0.183478
v 2.712451 -0.156250 -0.454370
v 2.552899 -0.093750 0.148180
v 2.552899 0.000000 0.148180
v 2.552899 0.093750 0.148180
v 2.719868 0.156250 -0.516427
v 2.712451 0.000000 -0.454370
v -1.970618 -0.080344 0.617317
v 0.281612 -0.187500 1.760490
v 0.281294 -0.187500 1.599803
v 0.281083 -0.080344 1.492647
v -1.651969 0.080344 0.419611
v 0.281083 0.080344 1.492647
v -1.743023 0.187500 0.476106
v -1.879564 0.187500 0.560823
v 0.281823 -0.080344 1.867647
v 2.529307 -0.080344 0.608428
v 2.438031 -0.187500 0.552293
v 2.301156 -0.187500 0.468117
v 2.209878 0.080344 0.411982
v 0.281294 0.187500 1.599803
v 2.301156 0.187500 0.468117
v 0.281612 0.187500 1.760490
v 2.438031 0.187500 0.552293
v 0.281823 0.080344 1.867647
v 2.529307 0.080344 0.608428
v 2.824296 -0.080344 -0.067562
v 2.721066 -0.187500 -0.096306
v 2.566268 -0.187500 -0.139410
v 2.463040 -0.080344 -0.168154
v 2.209878 -0.080344 0.411982
v 2.463040 0.080344 -0.168154
v 2.566268 0.187500 -0.139410
v 2.721066 0.187500 -0.096306
v 2.824296 0.080344 -0.067562
v -2.268275 -0.080344 -0.057503
v -2.165160 -0.187500 -0.086654
v -1.879564 -0.187500 0.560823
v -2.010535 -0.187500 -0.130369
v -1.743023 -0.187500 0.476106
v -1.907419 -0.080344 -0.159521
v -1.651969 -0.080344 0.419611
v -1.907419 0.080344 -0.159521
v -2.010535 0.187500 -0.130369
v -2.165160 0.187500 -0.086654
v -2.268275 0.080344 -0.057503
v -1.970618 0.080344 0.617317
v 1.569260 -0.080344 1.530204
v 1.438341 0.187500 1.296536
v 1.569260 0.080344 1.530204
v 1.516882 0.187500 1.436720
v 1.516882 -0.187500 1.436720
v 1.438341 -0.187500 1.296536
v 1.385963 -0.080344 1.203053
v 1.385963 0.080344 1.203053
v -0.814487 0.080344 1.213184
v -0.994763 -0.080344 1.542009
v -0.943249 -0.187500 1.448047
v -0.866001 -0.187500 1.307146
v -0.814487 -0.080344 1.213184
v -0.866001 0.187500 1.307146
v -0.994763 0.080344 1.542009
v -0.943249 0.187500 1.448047
vn 0.0223 -0.9952 0.0949
vn 0.0189 0.9961 0.0867
vn -0.1352 -0.0000 -0.9908
vn 0.3802 -0.0000 0.9249
vn -0.9369 -0.0000 0.3496
vn 0.9880 -0.0000 -0.1546
vn -0.1133 -0.3815 -0.9174
vn -0.9380 0.0353 0.3449
vn -0.9380 0.0358 0.3448
vn -0.9380 0.0352 0.3449
vn -0.9379 0.0357 0.3451
vn 0.0604 -0.9943 0.0877
vn 0.0604 -0.9940 0.0913
vn 0.0605 -0.9941 0.0905
vn 0.0603 -0.9942 0.0891
vn 0.0199 0.9957 0.0909
vn -0.1024 -0.3715 -0.9228
vn -0.1021 -0.3715 -0.9228
vn -0.1026 -0.3717 -0.9227
vn -0.1024 -0.3718 -0.9226
vn -0.4728 -0.0000 -0.8812
vn -0.0219 -0.9952 0.0950
vn -0.0186 0.9961 0.0868
vn 0.1313 -0.0000 -0.9913
vn -0.3765 -0.0000 0.9264
vn 0.9383 -0.0000 0.3459
vn -0.9886 -0.0000 -0.1507
vn 0.1097 -0.3815 -0.9178
vn 0.9394 0.0352 0.3411
vn 0.9394 0.0358 0.3411
vn 0.9393 0.0353 0.3412
vn 0.9392 0.0357 0.3414
vn -0.0602 -0.9940 0.0908
vn -0.0600 -0.9940 0.0916
vn -0.0600 -0.9943 0.0879
vn -0.0600 -0.9942 0.0893
vn -0.0195 0.9957 0.0910
vn 0.0989 -0.3717 -0.9231
vn 0.0984 -0.3714 -0.9232
vn 0.0988 -0.3715 -0.9232
vn 0.0987 -0.3718 -0.9230
vn 0.4693 -0.0000 -0.8831
vn -0.1776 -0.6957 0.6960
vn -0.0000 -1.0000 -0.0000
vn 0.1776 -0.6957 -0.6960
vn 0.2472 -0.0000 -0.9690
vn 0.1776 0.6957 -0.6960
vn -0.0000 1.0000 -0.0000
vn -0.1776 0.6957 0.6960
vn -0.2472 -0.0000 0.9690
vn 0.4977 -0.6955 0.5183
vn -0.4977 -0.6955 -0.5183
vn -0.6926 -0.0000 -0.7213
vn -0.4977 0.6955 -0.5183
vn 0.4977 0.6955 0.5183
vn 0.6926 -0.0000 0.7213
vn 0.6513 -0.7036 0.2842
vn -0.6513 -0.7036 -0.2842
vn -0.9165 -0.0000 -0.4000
vn -0.6513 0.7036 -0.2842
vn 0.6513 0.7036 0.2842
vn 0.9165 -0.0000 0.4000
vn 0.2682 -0.0000 -0.9634
vn -0.6501 -0.7036 0.2868
vn 0.6501 -0.7036 -0.2868
vn 0.9149 -0.0000 -0.4036
vn 0.6501 0.7036 -0.2868
vn -0.6501 0.7036 0.2868
vn -0.9149 -0.0000 0.4036
vn -0.2721 -0.0000 -0.9623
vn -0.2720 -0.0000 -0.9623
vn 0.2535 -0.0000 0.9673
vn 0.1822 0.6955 0.6951
vn -0.1822 0.6955 -0.6951
vn -0.2535 -0.0000 -0.9673
vn -0.1822 -0.6955 -0.6951
vn 0.1822 -0.6955 0.6951
vn -0.6878 -0.0000 0.7259
vn -0.4944 0.6952 0.5218
vn 0.4944 0.6952 -0.5218
vn 0.6878 -0.0000 -0.7259
vn 0.4944 -0.6952 -0.5218
vn -0.4944 -0.6952 0.5218
vt 0.039062 0.593750
vt 0.070312 0.578125
vt 0.039062 0.601562
vt 0.039062 0.539062
vt 0.031250 0.625000
vt 0.062500 0.632812
vt 0.117188 0.601562
vt 0.015625 1.000000
vt 0.117188 0.593750
vt 0.125000 0.546875
vt 0.117188 0.617188
vt 0.015625 0.984375
vt 0.039062 0.554688
vt 0.062500 0.617188
vt 0.031250 0.562500
vt 0.039062 0.609375
vt 0.039062 0.515625
vt 0.109375 0.625000
vt 0.125000 0.546875
vt 0.000000 1.000000
vt 0.117188 0.570312
vt 0.125000 0.601562
vt 0.000000 0.984375
vt 0.125000 0.523438
vt 0.046875 0.578125
vt 0.062500 0.593750
vt 0.039062 0.585938
vt 0.039062 0.554688
vt 0.039062 0.593750
vt 0.109375 0.609375
vt 0.039062 0.632812
vt 0.125000 0.554688
vt 0.125000 0.593750
vt 0.007812 0.984375
vt 0.007812 1.000000
vt 0.117188 0.585938
vt 0.070312 0.601562
vt 0.039062 0.609375
vt 0.062500 0.609375
vt 0.117188 0.609375
vt 0.015625 0.992188
vt 0.007812 0.992188
vt 0.000000 0.992188
vt 0.125000 0.539062
vt 0.085938 0.617188
vt 0.039062 0.539062
vt 0.085938 0.625000
vt 0.046875 0.601562
vt 0.085938 0.593750
vt 0.085938 0.601562
vt 0.039062 0.609375
vt 0.039062 0.593750
vt 0.070312 0.578125
vt 0.039062 0.601562
vt 0.039062 0.539062
vt 0.031250 0.625000
vt 0.062500 0.632812
vt 0.117188 0.601562
vt 0.015625 1.000000
vt 0.117188 0.593750
vt 0.125000 0.546875
vt 0.117188 0.617188
vt 0.015625 0.984375
vt 0.039062 0.554688
vt 0.062500 0.617188
vt 0.031250 0.562500
vt 0.039062 0.609375
vt 0.039062 0.515625
vt 0.109375 0.625000
vt 0.125000 0.546875
vt 0.000000 1.000000
vt 0.117188 0.570312
vt 0.125000 0.601562
vt 0.000000 0.984375
vt 0.125000 0.523438
vt 0.046875 0.578125
vt 0.062500 0.593750
vt 0.039062 0.585938
vt 0.039062 0.554688
vt 0.039062 0.593750
vt 0.109375 0.609375
vt 0.039062 0.632812
vt 0.125000 0.554688
vt 0.125000 0.593750
vt 0.007812 0.984375
vt 0.007812 1.000000
vt 0.117188 0.585938
vt 0.070312 0.601562
vt 0.039062 0.609375
vt 0.062500 0.609375
vt 0.117188 0.609375
vt 0.015625 0.992188
vt 0.007812 0.992188
vt 0.000000 0.992188
vt 0.125000 0.539062
vt 0.085938 0.617188
vt 0.039062 0.539062
vt 0.085938 0.625000
vt 0.046875 0.601562
vt 0.085938 0.593750
vt 0.085938 0.601562
vt 0.039062 0.609375
vt 0.226562 0.562500
vt 0.484375 0.546875
vt 0.226562 0.546875
vt 0.484375 0.531250
vt 0.226562 0.531250
vt 0.484375 0.515625
vt 0.484375 0.625000
vt 0.226562 0.625000
vt 0.226562 0.515625
vt 0.226562 0.640625
vt 0.226562 0.609375
vt 0.484375 0.609375
vt 0.484375 0.640625
vt 0.226562 0.640625
vt 0.226562 0.609375
vt 0.226562 0.609375
vt 0.226562 0.625000
vt 0.226562 0.593750
vt 0.484375 0.562500
vt 0.226562 0.562500
vt 0.484375 0.562500
vt 0.218750 0.562500
vt 0.484375 0.546875
vt 0.218750 0.546875
vt 0.484375 0.531250
vt 0.218750 0.531250
vt 0.484375 0.609375
vt 0.484375 0.640625
vt 0.218750 0.609375
vt 0.218750 0.640625
vt 0.484375 0.625000
vt 0.484375 0.609375
vt 0.226562 0.609375
vt 0.226562 0.625000
vt 0.484375 0.625000
vt 0.484375 0.609375
vt 0.218750 0.625000
vt 0.218750 0.609375
vt 0.484375 0.593750
vt 0.226562 0.593750
vt 0.484375 0.593750
vt 0.218750 0.593750
vt 0.484375 0.578125
vt 0.226562 0.578125
vt 0.484375 0.578125
vt 0.218750 0.578125
vt 0.132812 0.562500
vt 0.197543 0.611605
vt 0.132812 0.546875
vt 0.203125 0.620539
vt 0.210938 0.625000
vt 0.132812 0.531250
vt 0.203125 0.640625
vt 0.210938 0.627230
vt 0.132812 0.515625
vt 0.132812 0.625000
vt 0.197543 0.640625
vt 0.484375 0.515625
vt 0.484375 0.625000
vt 0.218750 0.515625
vt 0.218750 0.625000
vt 0.132812 0.609375
vt 0.132812 0.640625
vt 0.177457 0.640625
vt 0.132812 0.625000
vt 0.132812 0.609375
vt 0.156250 0.640625
vt 0.164062 0.627230
vt 0.132812 0.593750
vt 0.156250 0.620539
vt 0.164062 0.625000
vt 0.132812 0.578125
vt 0.177457 0.611605
vt 0.140625 0.562500
vt 0.197543 0.611605
vt 0.140625 0.546875
vt 0.203125 0.620539
vt 0.210938 0.625000
vt 0.226562 0.546875
vt 0.140625 0.531250
vt 0.203125 0.640625
vt 0.210938 0.627230
vt 0.226562 0.531250
vt 0.140625 0.515625
vt 0.140625 0.625000
vt 0.197543 0.640625
vt 0.226562 0.625000
vt 0.226562 0.515625
vt 0.140625 0.609375
vt 0.140625 0.640625
vt 0.177457 0.640625
vt 0.140625 0.625000
vt 0.140625 0.609375
vt 0.156250 0.640625
vt 0.164062 0.627230
vt 0.140625 0.593750
vt 0.156250 0.620539
vt 0.164062 0.625000
vt 0.140625 0.578125
vt 0.177457 0.611605
vt 0.226562 0.578125
vt 0.355469 0.562500
vt 0.355469 0.609375
vt 0.355469 0.625000
vt 0.355469 0.578125
vt 0.355469 0.593750
vt 0.355469 0.546875
vt 0.355469 0.531250
vt 0.355469 0.625000
vt 0.355469 0.515625
vt 0.355469 0.640625
vt 0.355469 0.609375
vt 0.356801 0.640625
vt 0.356801 0.609375
vt 0.356801 0.562500
vt 0.356801 0.546875
vt 0.356801 0.531250
vt 0.356801 0.625000
vt 0.356801 0.515625
vt 0.356801 0.609375
vt 0.356801 0.625000
vt 0.356801 0.578125
vt 0.356801 0.593750
s 0

f 13/38/1 14/40/1 3/7/1 1/1/1
f 16/44/2 17/46/2 5/13/2 7/19/2
f 18/48/3 13/37/3 1/2/3 9/25/3
f 14/41/4 15/42/4 12/35/4 3/8/4
f 12/36/5 9/27/5 1/3/5 3/9/5
f 10/28/6 11/32/6 4/10/6 2/4/6
f 17/45/7 18/49/7 9/26/7 5/14/7
f 11/33/6 10/29/6 6/16/6 8/22/6
f 15/42/4 16/43/4 7/20/4 12/35/4
f 9/27/8 12/36/9 7/21/10 5/15/11
f 14/40/12 13/38/13 2/5/14 4/11/15
f 15/42/4 14/41/4 4/12/4 11/34/4
f 16/43/4 15/42/4 11/34/4 8/23/4
f 17/46/16 16/44/16 8/24/16 6/17/16
f 18/50/17 17/47/18 6/18/19 10/30/20
f 13/39/21 18/51/21 10/31/21 2/6/21
f 21/58/22 32/91/22 31/89/22 19/52/22
f 23/64/23 35/97/23 34/95/23 25/70/23
f 19/53/24 31/88/24 36/99/24 27/76/24
f 30/86/25 33/93/25 32/92/25 21/59/25
f 19/54/26 27/78/26 30/87/26 21/60/26
f 22/61/27 29/83/27 28/79/27 20/55/27
f 27/77/28 36/100/28 35/96/28 23/65/28
f 24/67/27 28/80/27 29/84/27 26/73/27
f 25/71/25 34/94/25 33/93/25 30/86/25
f 25/72/29 30/87/30 27/78/31 23/66/32
f 20/56/33 31/89/34 32/91/35 22/62/36
f 22/63/25 32/92/25 33/93/25 29/85/25
f 29/85/25 33/93/25 34/94/25 26/74/25
f 26/75/37 34/95/37 35/97/37 24/68/37
f 24/69/38 35/98/39 36/101/40 28/81/41
f 28/82/42 36/102/42 31/90/42 20/57/42
f 86/217/43 87/218/43 38/104/43 45/121/43
f 87/218/44 88/219/44 39/106/44 38/104/44
f 88/219/45 89/221/45 40/108/45 39/106/45
f 89/220/46 85/216/46 42/114/46 40/109/46
f 85/215/47 90/223/47 50/133/47 42/115/47
f 90/222/48 92/225/48 52/141/48 50/134/48
f 92/225/49 91/224/49 54/145/49 52/141/49
f 91/224/50 86/217/50 45/121/50 54/145/50
f 77/204/51 81/209/51 47/125/51 46/123/51
f 81/209/44 82/210/44 48/127/44 47/125/44
f 82/210/52 83/212/52 60/160/52 48/127/52
f 83/211/53 84/214/53 49/129/53 60/161/53
f 84/213/54 78/206/54 51/137/54 49/130/54
f 78/205/48 80/208/48 53/143/48 51/138/48
f 80/208/55 79/207/55 55/147/55 53/143/55
f 79/207/56 77/204/56 46/123/56 55/147/56
f 47/126/57 57/151/57 56/149/57 46/124/57
f 48/128/44 58/154/44 57/151/44 47/126/44
f 60/162/58 59/157/58 58/154/58 48/128/58
f 49/131/59 61/164/59 59/158/59 60/163/59
f 51/139/60 62/167/60 61/165/60 49/132/60
f 53/144/48 63/171/48 62/168/48 51/140/48
f 55/148/61 64/174/61 63/171/61 53/144/61
f 46/124/62 56/149/62 64/174/62 55/148/62
f 58/155/63 62/169/63 63/172/63 57/152/63
f 57/153/63 63/173/63 64/175/63 56/150/63
f 61/166/63 62/170/63 58/156/63 59/159/63
f 65/176/64 66/178/64 67/181/64 37/103/64
f 66/178/44 68/182/44 69/185/44 67/181/44
f 68/182/65 70/186/65 71/190/65 69/185/65
f 70/187/66 72/191/66 41/113/66 71/189/66
f 72/192/67 73/194/67 43/119/67 41/112/67
f 73/195/48 74/198/48 44/120/48 43/118/48
f 74/198/68 75/201/68 76/203/68 44/120/68
f 75/201/69 65/176/69 37/103/69 76/203/69
f 74/199/70 73/196/70 68/183/70 66/179/70
f 75/202/71 74/200/71 66/180/71 65/177/71
f 68/184/70 73/197/70 72/193/70 70/188/70
f 54/146/72 45/122/72 77/204/72 79/207/72
f 52/142/73 54/146/73 79/207/73 80/208/73
f 50/135/48 52/142/48 80/208/48 78/205/48
f 42/116/74 50/136/74 78/206/74 84/213/74
f 40/110/75 42/117/75 84/214/75 83/211/75
f 39/107/76 40/111/76 83/212/76 82/210/76
f 38/105/44 39/107/44 82/210/44 81/209/44
f 45/122/77 38/105/77 81/209/77 77/204/77
f 76/203/78 37/103/78 86/217/78 91/224/78
f 44/120/79 76/203/79 91/224/79 92/225/79
f 43/118/48 44/120/48 92/225/48 90/222/48
f 41/112/80 43/119/80 90/223/80 85/215/80
f 71/189/81 41/113/81 85/216/81 89/220/81
f 69/185/82 71/190/82 89/221/82 88/219/82
f 67/181/44 69/185/44 88/219/44 87/218/44
f 37/103/83 67/181/83 87/218/83 86/217/83
