



vn 0.0 0.0 1.0
vn 0.0 0.0 -1.0
vn -1.0 0.0 0.0
vn 1.0 0.0 0.0
vn 0.0 1.0 0.0
vn 0.0 -1.0 0.0

v -1.00000 1.00000 -5.00000
v -1.00000 0.00000 -5.00000
v -4.00000 0.00000 -5.00000
v -4.00000 1.00000 -5.00000
v 0.00000 1.00000 2.00000
v 0.00000 0.00000 2.00000
v -3.00000 0.00000 2.00000
v -3.00000 1.00000 2.00000
v 2.00000 1.00000 -5.00000
v 2.00000 0.00000 -5.00000
v 0.00000 0.00000 -5.00000
v 0.00000 1.00000 -5.00000
v 0.00000 1.00000 -6.00000
v 0.00000 0.00000 -6.00000
v -1.00000 0.00000 -6.00000
v -1.00000 1.00000 -6.00000
v -4.00000 1.00000 -4.00000
v -4.00000 0.00000 -4.00000
v -5.00000 0.00000 -4.00000
v -5.00000 1.00000 -4.00000
v -5.00000 1.00000 -2.00000
v -5.00000 0.00000 -2.00000
v -6.00000 0.00000 -2.00000
v -6.00000 1.00000 -2.00000
v -3.00000 1.00000 3.00000
v -3.00000 0.00000 3.00000
v 0.00000 0.00000 3.00000
v 0.00000 1.00000 3.00000
v 0.00000 1.00000 -4.00000
v 0.00000 0.00000 -4.00000
v 2.00000 0.00000 -4.00000
v 2.00000 1.00000 -4.00000
v -2.00000 1.00000 -3.00000
v -2.00000 0.00000 -3.00000
v 0.00000 0.00000 -3.00000
v 0.00000 1.00000 -3.00000
v -3.00000 1.00000 -2.00000
v -3.00000 0.00000 -2.00000
v -2.00000 0.00000 -2.00000
v -2.00000 1.00000 -2.00000
v -6.00000 1.00000 3.00000
v -6.00000 0.00000 3.00000
v -5.00000 0.00000 3.00000
v -5.00000 1.00000 3.00000
v -5.00000 1.00000 4.00000
v -5.00000 0.00000 4.00000
v -4.00000 0.00000 4.00000
v -4.00000 1.00000 4.00000
v -4.00000 1.00000 5.00000
v -4.00000 0.00000 5.00000
v -3.00000 0.00000 5.00000
v -3.00000 1.00000 5.00000
v -6.00000 1.00000 2.00000
v -5.00000 1.00000 -3.00000
v -3.00000 1.00000 4.00000
v -6.00000 0.00000 2.00000
v -5.00000 0.00000 -3.00000
v -3.00000 0.00000 4.00000

vt 0.03125 0.15625
vt 0.03125 0.03125
vt 0.12500 0.03125
vt 0.12500 0.15625
vt 0.18750 0.15625
vt 0.18750 0.03125
vt 0.28125 0.03125
vt 0.28125 0.15625
vt 0.34375 0.06250
vt 0.34375 0.03125
vt 0.53125 0.03125
vt 0.53125 0.06250
vt 0.59375 0.06250
vt 0.59375 0.03125
vt 0.78125 0.03125
vt 0.78125 0.06250
vt 0.34375 0.15625
vt 0.34375 0.12500
vt 0.53125 0.12500
vt 0.53125 0.15625
vt 0.59375 0.15625
vt 0.59375 0.12500
vt 0.78125 0.12500
vt 0.78125 0.15625
vt 0.03125 0.25000
vt 0.03125 0.21875
vt 0.18750 0.21875
vt 0.18750 0.25000
vt 0.25000 0.25000
vt 0.25000 0.21875
vt 0.40625 0.21875
vt 0.40625 0.25000
vt 0.46875 0.25000
vt 0.46875 0.21875
vt 0.62500 0.21875
vt 0.62500 0.25000
vt 0.84375 0.06250
vt 0.84375 0.03125
vt 0.96875 0.03125
vt 0.96875 0.06250
vt 0.84375 0.15625
vt 0.84375 0.12500
vt 0.93750 0.12500
vt 0.93750 0.15625
vt 0.68750 0.25000
vt 0.68750 0.21875
vt 0.78125 0.21875
vt 0.78125 0.25000
vt 0.84375 0.25000
vt 0.84375 0.21875
vt 0.93750 0.21875
vt 0.93750 0.25000
vt 0.03125 0.34375
vt 0.03125 0.31250
vt 0.12500 0.31250
vt 0.12500 0.34375
vt 0.18750 0.34375
vt 0.18750 0.31250
vt 0.28125 0.31250
vt 0.28125 0.34375
vt 0.34375 0.34375
vt 0.34375 0.31250
vt 0.40625 0.31250
vt 0.40625 0.34375
vt 0.46875 0.34375
vt 0.46875 0.31250
vt 0.53125 0.31250
vt 0.53125 0.34375
vt 0.59375 0.34375
vt 0.59375 0.31250
vt 0.65625 0.31250
vt 0.65625 0.34375
vt 0.71875 0.34375
vt 0.71875 0.31250
vt 0.78125 0.31250
vt 0.78125 0.34375
vt 0.84375 0.34375
vt 0.84375 0.31250
vt 0.90625 0.31250
vt 0.90625 0.34375
vt 0.03125 0.43750
vt 0.03125 0.40625
vt 0.09375 0.40625
vt 0.09375 0.43750
vt 0.15625 0.43750
vt 0.15625 0.40625
vt 0.21875 0.40625
vt 0.21875 0.43750
vt 0.28125 0.43750
vt 0.28125 0.40625
vt 0.31250 0.40625
vt 0.31250 0.43750
vt 0.37500 0.43750
vt 0.37500 0.40625
vt 0.40625 0.40625
vt 0.40625 0.43750
vt 0.46875 0.43750
vt 0.46875 0.40625
vt 0.50000 0.40625
vt 0.50000 0.43750
vt 0.56250 0.43750
vt 0.56250 0.40625
vt 0.59375 0.40625
vt 0.59375 0.43750
vt 0.65625 0.43750
vt 0.65625 0.40625
vt 0.68750 0.40625
vt 0.68750 0.43750
vt 0.75000 0.43750
vt 0.75000 0.40625
vt 0.78125 0.40625
vt 0.78125 0.43750
vt 0.84375 0.43750
vt 0.84375 0.40625
vt 0.87500 0.40625
vt 0.87500 0.43750
vt 0.93750 0.43750
vt 0.93750 0.40625
vt 0.96875 0.40625
vt 0.96875 0.43750
vt 0.03125 0.53125
vt 0.03125 0.50000
vt 0.06250 0.50000
vt 0.06250 0.53125
vt 0.12500 0.53125
vt 0.12500 0.50000
vt 0.15625 0.50000
vt 0.15625 0.53125
vt 0.21875 0.53125
vt 0.21875 0.50000
vt 0.25000 0.50000
vt 0.25000 0.53125
vt 0.31250 0.53125
vt 0.31250 0.50000
vt 0.34375 0.50000
vt 0.34375 0.53125
vt 0.40625 0.53125
vt 0.40625 0.50000
vt 0.43750 0.50000
vt 0.43750 0.53125
vt 0.50000 0.53125
vt 0.50000 0.50000
vt 0.53125 0.50000
vt 0.53125 0.53125
vt 0.59375 0.53125
vt 0.59375 0.50000
vt 0.62500 0.50000
vt 0.62500 0.53125
vt 0.68750 0.53125
vt 0.68750 0.50000
vt 0.71875 0.50000
vt 0.71875 0.53125
vt 0.78125 0.53125
vt 0.78125 0.50000
vt 0.81250 0.50000
vt 0.81250 0.53125
vt 0.87500 0.53125
vt 0.87500 0.50000
vt 0.90625 0.50000
vt 0.90625 0.53125
vt 0.03125 0.62500
vt 0.03125 0.59375
vt 0.06250 0.59375
vt 0.06250 0.62500
vt 0.12500 0.62500
vt 0.12500 0.59375
vt 0.15625 0.59375
vt 0.15625 0.62500

g wieszaki_001_part_4_part

f 1/53/2 2/54/2 3/55/2 4/56/2
f 5/49/2 6/50/2 7/51/2 8/52/2
f 9/69/2 10/70/2 11/71/2 12/72/2
f 13/113/2 14/114/2 15/115/2 16/116/2
f 17/121/2 18/122/2 19/123/2 20/124/2
f 21/117/2 22/118/2 23/119/2 24/120/2
f 25/57/1 26/58/1 27/59/1 28/60/1
f 29/73/1 30/74/1 31/75/1 32/76/1
f 33/77/1 34/78/1 35/79/1 36/80/1
f 37/97/1 38/98/1 39/99/1 40/100/1
f 41/101/1 42/102/1 43/103/1 44/104/1
f 45/153/1 46/154/1 47/155/1 48/156/1
f 49/149/1 50/150/1 51/151/1 52/152/1
f 24/25/3 23/26/3 42/27/3 41/28/3
f 20/61/3 19/62/3 22/63/3 21/64/3
f 16/161/3 15/162/3 2/163/3 1/164/3
f 4/145/3 3/146/3 18/147/3 17/148/3
f 44/129/3 43/130/3 46/131/3 45/132/3
f 48/125/3 47/126/3 50/127/3 49/128/3
f 8/37/4 7/38/4 38/39/4 37/40/4
f 52/65/4 51/66/4 26/67/4 25/68/4
f 12/137/4 11/138/4 14/139/4 13/140/4
f 32/141/4 31/142/4 10/143/4 9/144/4
f 36/133/4 35/134/4 30/135/4 29/136/4
f 40/165/4 39/166/4 34/167/4 33/168/4
f 28/157/4 27/158/4 6/159/4 5/160/4
f 24/5/5 53/6/5 8/7/5 37/8/5
f 4/17/5 17/18/5 32/19/5 9/20/5
f 20/29/5 54/30/5 36/31/5 29/32/5
f 53/21/5 41/22/5 28/23/5 5/24/5
f 54/41/5 21/42/5 40/43/5 33/44/5
f 44/85/5 45/86/5 55/87/5 25/88/5
f 16/89/5 1/90/5 12/91/5 13/92/5
f 48/93/5 49/94/5 52/95/5 55/96/5
f 56/1/6 23/2/6 38/3/6 7/4/6
f 18/13/6 3/14/6 10/15/6 31/16/6
f 57/33/6 19/34/6 30/35/6 35/36/6
f 42/9/6 56/10/6 6/11/6 27/12/6
f 22/45/6 57/46/6 34/47/6 39/48/6
f 46/81/6 43/82/6 26/83/6 58/84/6
f 2/105/6 15/106/6 14/107/6 11/108/6
f 50/109/6 47/110/6 58/111/6 51/112/6
