



vn 0.0 0.0 1.0
vn 0.0 0.0 -1.0
vn -1.0 0.0 0.0
vn 1.0 0.0 0.0
vn 0.0 1.0 0.0
vn 0.0 -1.0 0.0

v 0.00000 16.00000 -1.00000
v 0.00000 11.00000 -1.00000
v -1.00000 11.00000 -1.00000
v -1.00000 16.00000 -1.00000
v 0.00000 19.00000 -2.00000
v 0.00000 17.00000 -2.00000
v -1.00000 17.00000 -2.00000
v -1.00000 19.00000 -2.00000
v 0.00000 12.00000 -8.00000
v 0.00000 11.00000 -8.00000
v -1.00000 11.00000 -8.00000
v -1.00000 12.00000 -8.00000
v 0.00000 11.00000 -6.00000
v 0.00000 10.00000 -6.00000
v -1.00000 10.00000 -6.00000
v -1.00000 11.00000 -6.00000
v 0.00000 10.00000 -4.00000
v 0.00000 9.00000 -4.00000
v -1.00000 9.00000 -4.00000
v -1.00000 10.00000 -4.00000
v 0.00000 20.00000 -1.00000
v 0.00000 19.00000 -1.00000
v -1.00000 19.00000 -1.00000
v -1.00000 20.00000 -1.00000
v 0.00000 17.00000 0.00000
v 0.00000 16.00000 0.00000
v -1.00000 16.00000 0.00000
v -1.00000 17.00000 0.00000
v 0.00000 18.00000 1.00000
v 0.00000 17.00000 1.00000
v -1.00000 17.00000 1.00000
v -1.00000 18.00000 1.00000
v -1.00000 14.00000 2.00000
v -1.00000 11.00000 2.00000
v 0.00000 11.00000 2.00000
v 0.00000 14.00000 2.00000
v -1.00000 19.00000 3.00000
v -1.00000 16.00000 3.00000
v 0.00000 16.00000 3.00000
v 0.00000 19.00000 3.00000
v -1.00000 12.00000 -4.00000
v -1.00000 11.00000 -4.00000
v 0.00000 11.00000 -4.00000
v 0.00000 12.00000 -4.00000
v -1.00000 18.00000 -1.00000
v -1.00000 17.00000 -1.00000
v 0.00000 17.00000 -1.00000
v 0.00000 18.00000 -1.00000
v -1.00000 15.00000 1.00000
v -1.00000 14.00000 1.00000
v 0.00000 14.00000 1.00000
v 0.00000 15.00000 1.00000
v -1.00000 16.00000 2.00000
v -1.00000 15.00000 2.00000
v 0.00000 15.00000 2.00000
v 0.00000 16.00000 2.00000
v -1.00000 20.00000 2.00000
v -1.00000 19.00000 2.00000
v 0.00000 19.00000 2.00000
v 0.00000 20.00000 2.00000
v -1.00000 10.00000 7.00000
v -1.00000 9.00000 7.00000
v 0.00000 9.00000 7.00000
v 0.00000 10.00000 7.00000
v -1.00000 11.00000 8.00000
v -1.00000 10.00000 8.00000
v 0.00000 10.00000 8.00000
v 0.00000 11.00000 8.00000
v -1.00000 14.00000 -1.00000
v -1.00000 18.00000 -2.00000
v -1.00000 18.00000 3.00000
v -1.00000 15.00000 -1.00000
v -1.00000 17.00000 3.00000
v 0.00000 14.00000 -1.00000
v 0.00000 18.00000 3.00000
v 0.00000 18.00000 -2.00000
v 0.00000 15.00000 -1.00000
v 0.00000 17.00000 3.00000

vt 0.01563 0.37500
vt 0.01563 0.03125
vt 0.03125 0.03125
vt 0.03125 0.37500
vt 0.06250 0.21875
vt 0.06250 0.03125
vt 0.07813 0.03125
vt 0.07813 0.21875
vt 0.10938 0.18750
vt 0.10938 0.03125
vt 0.12500 0.03125
vt 0.12500 0.18750
vt 0.15625 0.15625
vt 0.15625 0.03125
vt 0.17188 0.03125
vt 0.17188 0.15625
vt 0.20313 0.12500
vt 0.20313 0.03125
vt 0.25000 0.03125
vt 0.25000 0.12500
vt 0.28125 0.12500
vt 0.28125 0.03125
vt 0.32813 0.03125
vt 0.32813 0.12500
vt 0.35938 0.12500
vt 0.35938 0.03125
vt 0.37500 0.03125
vt 0.37500 0.12500
vt 0.40625 0.12500
vt 0.40625 0.03125
vt 0.42188 0.03125
vt 0.42188 0.12500
vt 0.45313 0.12500
vt 0.45313 0.03125
vt 0.46875 0.03125
vt 0.46875 0.12500
vt 0.50000 0.12500
vt 0.50000 0.03125
vt 0.51563 0.03125
vt 0.51563 0.12500
vt 0.54688 0.09375
vt 0.54688 0.03125
vt 0.56250 0.03125
vt 0.56250 0.09375
vt 0.59375 0.09375
vt 0.59375 0.03125
vt 0.60938 0.03125
vt 0.60938 0.09375
vt 0.64063 0.09375
vt 0.64063 0.03125
vt 0.65625 0.03125
vt 0.65625 0.09375
vt 0.68750 0.09375
vt 0.68750 0.03125
vt 0.70313 0.03125
vt 0.70313 0.09375
vt 0.73438 0.06250
vt 0.73438 0.03125
vt 0.95313 0.03125
vt 0.95313 0.06250
vt 0.06250 0.31250
vt 0.06250 0.28125
vt 0.28125 0.28125
vt 0.28125 0.31250
vt 0.31250 0.31250
vt 0.31250 0.28125
vt 0.48438 0.28125
vt 0.48438 0.31250
vt 0.51563 0.31250
vt 0.51563 0.28125
vt 0.68750 0.28125
vt 0.68750 0.31250
vt 0.71875 0.31250
vt 0.71875 0.28125
vt 0.79688 0.28125
vt 0.79688 0.31250
vt 0.82813 0.31250
vt 0.82813 0.28125
vt 0.90625 0.28125
vt 0.90625 0.31250
vt 0.01563 0.46875
vt 0.01563 0.43750
vt 0.07813 0.43750
vt 0.07813 0.46875
vt 0.10938 0.46875
vt 0.10938 0.43750
vt 0.17188 0.43750
vt 0.17188 0.46875
vt 0.93750 0.31250
vt 0.93750 0.28125
vt 0.98438 0.28125
vt 0.98438 0.31250
vt 0.20313 0.46875
vt 0.20313 0.43750
vt 0.25000 0.43750
vt 0.25000 0.46875
vt 0.28125 0.46875
vt 0.28125 0.43750
vt 0.32813 0.43750
vt 0.32813 0.46875
vt 0.35938 0.46875
vt 0.35938 0.43750
vt 0.40625 0.43750
vt 0.40625 0.46875
vt 0.43750 0.46875
vt 0.43750 0.43750
vt 0.48438 0.43750
vt 0.48438 0.46875
vt 0.51563 0.46875
vt 0.51563 0.43750
vt 0.56250 0.43750
vt 0.56250 0.46875
vt 0.59375 0.46875
vt 0.59375 0.43750
vt 0.62500 0.43750
vt 0.62500 0.46875
vt 0.65625 0.46875
vt 0.65625 0.43750
vt 0.68750 0.43750
vt 0.68750 0.46875
vt 0.71875 0.46875
vt 0.71875 0.43750
vt 0.75000 0.43750
vt 0.75000 0.46875
vt 0.78125 0.46875
vt 0.78125 0.43750
vt 0.81250 0.43750
vt 0.81250 0.46875
vt 0.84375 0.46875
vt 0.84375 0.43750
vt 0.85938 0.43750
vt 0.85938 0.46875
vt 0.89063 0.46875
vt 0.89063 0.43750
vt 0.90625 0.43750
vt 0.90625 0.46875
vt 0.93750 0.46875
vt 0.93750 0.43750
vt 0.95313 0.43750
vt 0.95313 0.46875
vt 0.01563 0.56250
vt 0.01563 0.53125
vt 0.03125 0.53125
vt 0.03125 0.56250
vt 0.06250 0.56250
vt 0.06250 0.53125
vt 0.07813 0.53125
vt 0.07813 0.56250
vt 0.10938 0.56250
vt 0.10938 0.53125
vt 0.12500 0.53125
vt 0.12500 0.56250
vt 0.15625 0.56250
vt 0.15625 0.53125
vt 0.17188 0.53125
vt 0.17188 0.56250
vt 0.20313 0.56250
vt 0.20313 0.53125
vt 0.21875 0.53125
vt 0.21875 0.56250
vt 0.25000 0.56250
vt 0.25000 0.53125
vt 0.26563 0.53125
vt 0.26563 0.56250
vt 0.29688 0.56250
vt 0.29688 0.53125
vt 0.31250 0.53125
vt 0.31250 0.56250
vt 0.34375 0.56250
vt 0.34375 0.53125
vt 0.35938 0.53125
vt 0.35938 0.56250
vt 0.39063 0.56250
vt 0.39063 0.53125
vt 0.40625 0.53125
vt 0.40625 0.56250
vt 0.43750 0.56250
vt 0.43750 0.53125
vt 0.45313 0.53125
vt 0.45313 0.56250
vt 0.48438 0.56250
vt 0.48438 0.53125
vt 0.50000 0.53125
vt 0.50000 0.56250
vt 0.53125 0.56250
vt 0.53125 0.53125
vt 0.54688 0.53125
vt 0.54688 0.56250
vt 0.57813 0.56250
vt 0.57813 0.53125
vt 0.59375 0.53125
vt 0.59375 0.56250
vt 0.62500 0.56250
vt 0.62500 0.53125
vt 0.64063 0.53125
vt 0.64063 0.56250
vt 0.67188 0.56250
vt 0.67188 0.53125
vt 0.68750 0.53125
vt 0.68750 0.56250
vt 0.71875 0.56250
vt 0.71875 0.53125
vt 0.73438 0.53125
vt 0.73438 0.56250
vt 0.76563 0.56250
vt 0.76563 0.53125
vt 0.78125 0.53125
vt 0.78125 0.56250
vt 0.81250 0.56250
vt 0.81250 0.53125
vt 0.82813 0.53125
vt 0.82813 0.56250
vt 0.85938 0.56250
vt 0.85938 0.53125
vt 0.87500 0.53125
vt 0.87500 0.56250
vt 0.90625 0.56250
vt 0.90625 0.53125
vt 0.92188 0.53125
vt 0.92188 0.56250
vt 0.95313 0.56250
vt 0.95313 0.53125
vt 0.96875 0.53125
vt 0.96875 0.56250

g wieszaki_001_part_2

f 1/9/2 2/10/2 3/11/2 4/12/2
f 5/53/2 6/54/2 7/55/2 8/56/2
f 9/129/2 10/130/2 11/131/2 12/132/2
f 13/133/2 14/134/2 15/135/2 16/136/2
f 17/161/2 18/162/2 19/163/2 20/164/2
f 21/165/2 22/166/2 23/167/2 24/168/2
f 25/157/2 26/158/2 27/159/2 28/160/2
f 29/149/2 30/150/2 31/151/2 32/152/2
f 33/29/1 34/30/1 35/31/1 36/32/1
f 37/37/1 38/38/1 39/39/1 40/40/1
f 41/153/1 42/154/1 43/155/1 44/156/1
f 45/137/1 46/138/1 47/139/1 48/140/1
f 49/145/1 50/146/1 51/147/1 52/148/1
f 53/141/1 54/142/1 55/143/1 56/144/1
f 57/205/1 58/206/1 59/207/1 60/208/1
f 61/201/1 62/202/1 63/203/1 64/204/1
f 65/197/1 66/198/1 67/199/1 68/200/1
f 69/21/3 3/22/3 34/23/3 33/24/3
f 16/61/3 15/62/3 66/63/3 65/64/3
f 20/69/3 19/70/3 62/71/3 61/72/3
f 8/77/3 70/78/3 71/79/3 37/80/3
f 12/81/3 11/82/3 42/83/3 41/84/3
f 4/97/3 72/98/3 54/99/3 53/100/3
f 24/89/3 23/90/3 58/91/3 57/92/3
f 28/93/3 27/94/3 38/95/3 73/96/3
f 72/121/3 69/122/3 50/123/3 49/124/3
f 32/125/3 31/126/3 73/127/3 71/128/3
f 70/209/3 7/210/3 46/211/3 45/212/3
f 36/17/4 35/18/4 2/19/4 74/20/4
f 68/57/4 67/58/4 14/59/4 13/60/4
f 64/65/4 63/66/4 18/67/4 17/68/4
f 40/73/4 75/74/4 76/75/4 5/76/4
f 44/85/4 43/86/4 10/87/4 9/88/4
f 56/109/4 55/110/4 77/111/4 1/112/4
f 60/105/4 59/106/4 22/107/4 21/108/4
f 78/101/4 39/102/4 26/103/4 25/104/4
f 52/113/4 51/114/4 74/115/4 77/116/4
f 75/117/4 78/118/4 30/119/4 29/120/4
f 48/221/4 47/222/4 6/223/4 76/224/4
f 34/5/5 65/6/5 68/7/5 35/8/5
f 12/13/5 41/14/5 44/15/5 9/16/5
f 42/33/5 3/34/5 2/35/5 43/36/5
f 24/25/5 57/26/5 60/27/5 21/28/5
f 8/217/5 23/218/5 22/219/5 5/220/5
f 4/213/5 27/214/5 26/215/5 1/216/5
f 28/177/5 31/178/5 30/179/5 25/180/5
f 50/173/5 33/174/5 36/175/5 51/176/5
f 58/169/5 37/170/5 40/171/5 59/172/5
f 62/1/6 19/2/6 18/3/6 63/4/6
f 16/45/6 11/46/6 10/47/6 13/48/6
f 20/49/6 15/50/6 14/51/6 17/52/6
f 32/41/6 45/42/6 48/43/6 29/44/6
f 46/181/6 7/182/6 6/183/6 47/184/6
f 54/193/6 49/194/6 52/195/6 55/196/6
f 38/189/6 53/190/6 56/191/6 39/192/6
f 66/185/6 61/186/6 64/187/6 67/188/6
