



vn 0.0 0.0 1.0
vn 0.0 0.0 -1.0
vn -1.0 0.0 0.0
vn 1.0 0.0 0.0
vn 0.0 1.0 0.0
vn 0.0 -1.0 0.0

v 3.00000 6.00000 -30.00000
v 3.00000 0.00000 -30.00000
v -9.00000 0.00000 -30.00000
v -9.00000 6.00000 -30.00000
v 6.00000 6.00000 -14.00000
v 6.00000 0.00000 -14.00000
v 4.00000 0.00000 -14.00000
v 4.00000 6.00000 -14.00000
v 4.00000 6.00000 -18.00000
v 4.00000 0.00000 -18.00000
v 3.00000 0.00000 -18.00000
v 3.00000 6.00000 -18.00000
v 7.00000 6.00000 -9.00000
v 7.00000 0.00000 -9.00000
v 6.00000 0.00000 -9.00000
v 6.00000 6.00000 -9.00000
v 8.00000 6.00000 -7.00000
v 8.00000 0.00000 -7.00000
v 7.00000 0.00000 -7.00000
v 7.00000 6.00000 -7.00000
v 9.00000 6.00000 -6.00000
v 9.00000 0.00000 -6.00000
v 8.00000 0.00000 -6.00000
v 8.00000 6.00000 -6.00000
v -9.00000 6.00000 30.00000
v -9.00000 0.00000 30.00000
v -1.00000 0.00000 30.00000
v -1.00000 6.00000 30.00000
v 4.00000 6.00000 3.00000
v 4.00000 0.00000 3.00000
v 6.00000 0.00000 3.00000
v 6.00000 6.00000 3.00000
v -1.00000 6.00000 29.00000
v -1.00000 0.00000 29.00000
v 1.00000 0.00000 29.00000
v 1.00000 6.00000 29.00000
v 8.00000 6.00000 -3.00000
v 8.00000 0.00000 -3.00000
v 9.00000 0.00000 -3.00000
v 9.00000 6.00000 -3.00000
v 7.00000 6.00000 -2.00000
v 7.00000 0.00000 -2.00000
v 8.00000 0.00000 -2.00000
v 8.00000 6.00000 -2.00000
v 6.00000 6.00000 0.00000
v 6.00000 0.00000 0.00000
v 7.00000 0.00000 0.00000
v 7.00000 6.00000 0.00000
v 3.00000 6.00000 5.00000
v 3.00000 0.00000 5.00000
v 4.00000 0.00000 5.00000
v 4.00000 6.00000 5.00000
v 2.00000 6.00000 18.00000
v 2.00000 0.00000 18.00000
v 3.00000 0.00000 18.00000
v 3.00000 6.00000 18.00000
v 1.00000 6.00000 24.00000
v 1.00000 0.00000 24.00000
v 2.00000 0.00000 24.00000
v 2.00000 6.00000 24.00000
v -9.00000 6.00000 -18.00000
v -9.00000 6.00000 5.00000
v -9.00000 6.00000 18.00000
v -9.00000 6.00000 -14.00000
v -9.00000 6.00000 -9.00000
v -9.00000 6.00000 24.00000
v -9.00000 6.00000 29.00000
v -9.00000 6.00000 -6.00000
v -9.00000 6.00000 -3.00000
v -9.00000 6.00000 0.00000
v -9.00000 6.00000 3.00000
v -9.00000 6.00000 -7.00000
v -9.00000 6.00000 -2.00000
v -9.00000 0.00000 -18.00000
v -9.00000 0.00000 18.00000
v -9.00000 0.00000 5.00000
v -9.00000 0.00000 -9.00000
v -9.00000 0.00000 -14.00000
v -9.00000 0.00000 24.00000
v -9.00000 0.00000 29.00000
v -9.00000 0.00000 -3.00000
v -9.00000 0.00000 -6.00000
v -9.00000 0.00000 3.00000
v -9.00000 0.00000 0.00000
v -9.00000 0.00000 -7.00000
v -9.00000 0.00000 -2.00000

vt 0.00781 0.21875
vt 0.00781 0.01563
vt 0.10156 0.01563
vt 0.10156 0.21875
vt 0.11719 0.21875
vt 0.11719 0.01563
vt 0.21094 0.01563
vt 0.21094 0.21875
vt 0.22656 0.20313
vt 0.22656 0.01563
vt 0.32031 0.01563
vt 0.32031 0.20313
vt 0.33594 0.20313
vt 0.33594 0.01563
vt 0.42969 0.01563
vt 0.42969 0.20313
vt 0.44531 0.10938
vt 0.44531 0.01563
vt 0.91406 0.01563
vt 0.91406 0.10938
vt 0.00781 0.34375
vt 0.00781 0.25000
vt 0.10938 0.25000
vt 0.10938 0.34375
vt 0.12500 0.34375
vt 0.12500 0.25000
vt 0.21875 0.25000
vt 0.21875 0.34375
vt 0.23438 0.34375
vt 0.23438 0.25000
vt 0.32813 0.25000
vt 0.32813 0.34375
vt 0.34375 0.34375
vt 0.34375 0.25000
vt 0.42969 0.25000
vt 0.42969 0.34375
vt 0.44531 0.34375
vt 0.44531 0.25000
vt 0.53125 0.25000
vt 0.53125 0.34375
vt 0.92969 0.10938
vt 0.92969 0.01563
vt 0.99219 0.01563
vt 0.99219 0.10938
vt 0.54688 0.34375
vt 0.54688 0.25000
vt 0.59375 0.25000
vt 0.59375 0.34375
vt 0.60938 0.34375
vt 0.60938 0.25000
vt 0.64844 0.25000
vt 0.64844 0.34375
vt 0.66406 0.34375
vt 0.66406 0.25000
vt 0.70313 0.25000
vt 0.70313 0.34375
vt 0.71875 0.34375
vt 0.71875 0.25000
vt 0.75000 0.25000
vt 0.75000 0.34375
vt 0.76563 0.34375
vt 0.76563 0.25000
vt 0.78906 0.25000
vt 0.78906 0.34375
vt 0.80469 0.34375
vt 0.80469 0.25000
vt 0.82813 0.25000
vt 0.82813 0.34375
vt 0.84375 0.34375
vt 0.84375 0.25000
vt 0.85938 0.25000
vt 0.85938 0.34375
vt 0.87500 0.34375
vt 0.87500 0.25000
vt 0.89063 0.25000
vt 0.89063 0.34375
vt 0.90625 0.34375
vt 0.90625 0.25000
vt 0.92188 0.25000
vt 0.92188 0.34375
vt 0.93750 0.34375
vt 0.93750 0.25000
vt 0.95313 0.25000
vt 0.95313 0.34375
vt 0.96875 0.34375
vt 0.96875 0.25000
vt 0.98438 0.25000
vt 0.98438 0.34375
vt 0.00781 0.46875
vt 0.00781 0.37500
vt 0.02344 0.37500
vt 0.02344 0.46875
vt 0.03906 0.46875
vt 0.03906 0.37500
vt 0.04688 0.37500
vt 0.04688 0.46875
vt 0.06250 0.46875
vt 0.06250 0.37500
vt 0.07031 0.37500
vt 0.07031 0.46875
vt 0.08594 0.46875
vt 0.08594 0.37500
vt 0.09375 0.37500
vt 0.09375 0.46875
vt 0.10938 0.46875
vt 0.10938 0.37500
vt 0.11719 0.37500
vt 0.11719 0.46875
vt 0.13281 0.46875
vt 0.13281 0.37500
vt 0.14063 0.37500
vt 0.14063 0.46875
vt 0.15625 0.46875
vt 0.15625 0.37500
vt 0.16406 0.37500
vt 0.16406 0.46875
vt 0.17969 0.46875
vt 0.17969 0.37500
vt 0.18750 0.37500
vt 0.18750 0.46875
vt 0.20313 0.46875
vt 0.20313 0.37500
vt 0.21094 0.37500
vt 0.21094 0.46875
vt 0.22656 0.46875
vt 0.22656 0.37500
vt 0.23438 0.37500
vt 0.23438 0.46875
vt 0.25000 0.46875
vt 0.25000 0.37500
vt 0.25781 0.37500
vt 0.25781 0.46875
vt 0.27344 0.46875
vt 0.27344 0.37500
vt 0.28125 0.37500
vt 0.28125 0.46875
vt 0.29688 0.46875
vt 0.29688 0.37500
vt 0.30469 0.37500
vt 0.30469 0.46875
vt 0.32031 0.46875
vt 0.32031 0.37500
vt 0.32813 0.37500
vt 0.32813 0.46875
vt 0.34375 0.45313
vt 0.34375 0.37500
vt 0.46094 0.37500
vt 0.46094 0.45313
vt 0.47656 0.45313
vt 0.47656 0.37500
vt 0.59375 0.37500
vt 0.59375 0.45313
vt 0.60938 0.45313
vt 0.60938 0.37500
vt 0.68750 0.37500
vt 0.68750 0.45313
vt 0.70313 0.45313
vt 0.70313 0.37500
vt 0.78125 0.37500
vt 0.78125 0.45313
vt 0.44531 0.20313
vt 0.44531 0.14063
vt 0.54688 0.14063
vt 0.54688 0.20313
vt 0.56250 0.20313
vt 0.56250 0.14063
vt 0.66406 0.14063
vt 0.66406 0.20313
vt 0.67969 0.18750
vt 0.67969 0.14063
vt 0.82031 0.14063
vt 0.82031 0.18750
vt 0.83594 0.18750
vt 0.83594 0.14063
vt 0.97656 0.14063
vt 0.97656 0.18750
vt 0.79688 0.42188
vt 0.79688 0.37500
vt 0.91406 0.37500
vt 0.91406 0.42188
vt 0.00781 0.54688
vt 0.00781 0.50000
vt 0.12500 0.50000
vt 0.12500 0.54688
vt 0.14063 0.53125
vt 0.14063 0.50000
vt 0.26563 0.50000
vt 0.26563 0.53125
vt 0.28125 0.53125
vt 0.28125 0.50000
vt 0.40625 0.50000
vt 0.40625 0.53125
vt 0.42188 0.53125
vt 0.42188 0.50000
vt 0.54688 0.50000
vt 0.54688 0.53125
vt 0.56250 0.53125
vt 0.56250 0.50000
vt 0.68750 0.50000
vt 0.68750 0.53125
vt 0.70313 0.53125
vt 0.70313 0.50000
vt 0.80469 0.50000
vt 0.80469 0.53125
vt 0.82031 0.53125
vt 0.82031 0.50000
vt 0.92188 0.50000
vt 0.92188 0.53125
vt 0.00781 0.59375
vt 0.00781 0.57813
vt 0.14063 0.57813
vt 0.14063 0.59375
vt 0.15625 0.59375
vt 0.15625 0.57813
vt 0.28906 0.57813
vt 0.28906 0.59375
vt 0.30469 0.59375
vt 0.30469 0.57813
vt 0.43750 0.57813
vt 0.43750 0.59375
vt 0.45313 0.59375
vt 0.45313 0.57813
vt 0.58594 0.57813
vt 0.58594 0.59375
vt 0.92969 0.39063
vt 0.92969 0.37500
vt 0.99219 0.37500
vt 0.99219 0.39063
vt 0.60156 0.59375
vt 0.60156 0.57813
vt 0.66406 0.57813
vt 0.66406 0.59375

g DRLALK1B_part_3

f 1/29/2 2/30/2 3/31/2 4/32/2
f 5/81/2 6/82/2 7/83/2 8/84/2
f 9/105/2 10/106/2 11/107/2 12/108/2
f 13/109/2 14/110/2 15/111/2 16/112/2
f 17/101/2 18/102/2 19/103/2 20/104/2
f 21/93/2 22/94/2 23/95/2 24/96/2
f 25/41/1 26/42/1 27/43/1 28/44/1
f 29/73/1 30/74/1 31/75/1 32/76/1
f 33/69/1 34/70/1 35/71/1 36/72/1
f 37/97/1 38/98/1 39/99/1 40/100/1
f 41/125/1 42/126/1 43/127/1 44/128/1
f 45/129/1 46/130/1 47/131/1 48/132/1
f 49/121/1 50/122/1 51/123/1 52/124/1
f 53/113/1 54/114/1 55/115/1 56/116/1
f 57/117/1 58/118/1 59/119/1 60/120/1
f 4/17/3 3/18/3 26/19/3 25/20/3
f 12/25/4 11/26/4 2/27/4 1/28/4
f 56/21/4 55/22/4 50/23/4 49/24/4
f 16/53/4 15/54/4 6/55/4 5/56/4
f 60/45/4 59/46/4 54/47/4 53/48/4
f 36/49/4 35/50/4 58/51/4 57/52/4
f 8/57/4 7/58/4 10/59/4 9/60/4
f 40/61/4 39/62/4 22/63/4 21/64/4
f 32/65/4 31/66/4 46/67/4 45/68/4
f 20/77/4 19/78/4 14/79/4 13/80/4
f 48/85/4 47/86/4 42/87/4 41/88/4
f 52/89/4 51/90/4 30/91/4 29/92/4
f 24/141/4 23/142/4 18/143/4 17/144/4
f 44/137/4 43/138/4 38/139/4 37/140/4
f 28/133/4 27/134/4 34/135/4 33/136/4
f 4/9/5 61/10/5 12/11/5 1/12/5
f 62/5/5 63/6/5 56/7/5 49/8/5
f 64/149/5 65/150/5 16/151/5 5/152/5
f 63/37/5 66/38/5 60/39/5 53/40/5
f 66/157/5 67/158/5 36/159/5 57/160/5
f 68/169/5 69/170/5 40/171/5 21/172/5
f 61/165/5 64/166/5 8/167/5 9/168/5
f 70/181/5 71/182/5 32/183/5 45/184/5
f 65/189/5 72/190/5 20/191/5 13/192/5
f 73/185/5 70/186/5 48/187/5 41/188/5
f 71/201/5 62/202/5 52/203/5 29/204/5
f 72/217/5 68/218/5 24/219/5 17/220/5
f 69/221/5 73/222/5 44/223/5 37/224/5
f 67/229/5 25/230/5 28/231/5 33/232/5
f 74/13/6 3/14/6 2/15/6 11/16/6
f 75/1/6 76/2/6 50/3/6 55/4/6
f 77/145/6 78/146/6 6/147/6 15/148/6
f 79/33/6 75/34/6 54/35/6 59/36/6
f 80/153/6 79/154/6 58/155/6 35/156/6
f 81/173/6 82/174/6 22/175/6 39/176/6
f 78/161/6 74/162/6 10/163/6 7/164/6
f 83/177/6 84/178/6 46/179/6 31/180/6
f 85/193/6 77/194/6 14/195/6 19/196/6
f 84/197/6 86/198/6 42/199/6 47/200/6
f 76/205/6 83/206/6 30/207/6 51/208/6
f 82/213/6 85/214/6 18/215/6 23/216/6
f 86/209/6 81/210/6 38/211/6 43/212/6
f 26/225/6 80/226/6 34/227/6 27/228/6
