



vn 0.0 0.0 1.0
vn 0.0 0.0 -1.0
vn -1.0 0.0 0.0
vn 1.0 0.0 0.0
vn 0.0 1.0 0.0
vn 0.0 -1.0 0.0

v 13.00000 42.00000 -26.00000
v 13.00000 0.00000 -26.00000
v -13.00000 0.00000 -26.00000
v -13.00000 42.00000 -26.00000
v -13.00000 42.00000 26.00000
v -13.00000 0.00000 26.00000
v 13.00000 0.00000 26.00000
v 13.00000 42.00000 26.00000

vt 0.00781 0.41406
vt 0.00781 0.00781
vt 0.21094 0.00781
vt 0.21094 0.41406
vt 0.22656 0.41406
vt 0.22656 0.00781
vt 0.42969 0.00781
vt 0.42969 0.41406
vt 0.44531 0.33594
vt 0.44531 0.00781
vt 0.85156 0.00781
vt 0.85156 0.33594
vt 0.00781 0.75781
vt 0.00781 0.42969
vt 0.41406 0.42969
vt 0.41406 0.75781
vt 0.42969 0.75781
vt 0.42969 0.42969
vt 0.63281 0.42969
vt 0.63281 0.75781
vt 0.64844 0.75781
vt 0.64844 0.42969
vt 0.85156 0.42969
vt 0.85156 0.75781

g Union_1

f 1/17/2 2/18/2 3/19/2 4/20/2
f 5/21/1 6/22/1 7/23/1 8/24/1
f 4/9/3 3/10/3 6/11/3 5/12/3
f 8/13/4 7/14/4 2/15/4 1/16/4
f 4/1/5 5/2/5 8/3/5 1/4/5
f 6/5/6 3/6/6 2/7/6 7/8/6
