# Blender 4.0.2
# www.blender.org

o Plane
v 0.037015 0.088628 23.028318
v 0.037012 0.088628 -20.921732
v 30.775461 0.088630 -20.921734
v 30.775465 0.088629 23.028316
v 0.037015 0.141881 23.028318
v 0.037012 0.141881 -20.921732
v 30.775461 0.141883 -20.921734
v 30.775465 0.141883 23.028316
vn -0.0000 -1.0000 -0.0000
vn -0.0000 1.0000 -0.0000
vn -0.0000 -0.0000 -1.0000
vn 1.0000 -0.0000 -0.0000
vn -0.0000 -0.0000 1.0000
vn -1.0000 -0.0000 -0.0000
vt 0.000000 0.000000
vt 1.000000 0.000000
vt 1.000000 1.000000
vt 0.000000 1.000000
s 0
f 1/1/1 2/2/1 3/3/1 4/4/1
f 5/1/2 8/4/2 7/3/2 6/2/2
f 3/3/3 2/2/3 6/2/3 7/3/3
f 4/4/4 3/3/4 7/3/4 8/4/4
f 1/1/5 4/4/5 8/4/5 5/1/5
f 2/2/6 1/1/6 5/1/6 6/2/6
