# Blender v3.0.1 OBJ File: 'computers_and_boxes.blend'
# www.blender.org
o FRUITFUL_BOX
v 28.000000 116.000015 -71.999985
v 28.000000 -4.999988 -72.000000
v -27.000000 -4.999988 -72.000000
v -27.000000 116.000015 -71.999985
v 5.000000 119.000000 -21.999981
v 5.000000 117.000000 -21.999981
v -4.000000 117.000000 -21.999981
v -4.000000 119.000000 -21.999981
v 5.000000 117.000000 -22.999981
v 5.000000 116.000000 -22.999981
v -4.000000 116.000000 -22.999981
v -4.000000 117.000000 -22.999981
v 5.000000 120.000000 -20.999981
v 5.000000 119.000000 -20.999981
v -4.000000 119.000000 -20.999981
v -4.000000 120.000000 -20.999981
v 5.000000 121.000000 -19.999981
v 5.000000 120.000000 -19.999981
v -4.000000 120.000000 -19.999981
v -4.000000 121.000000 -19.999981
v 5.000000 122.000000 -18.999981
v 5.000000 121.000000 -18.999981
v -4.000000 121.000000 -18.999981
v -4.000000 122.000000 -18.999981
v 5.000000 123.000000 -16.999979
v 5.000000 122.000000 -16.999981
v -4.000000 122.000000 -16.999981
v -4.000000 123.000000 -16.999979
v 5.000000 124.000000 -14.999980
v 5.000000 123.000000 -14.999980
v -4.000000 123.000000 -14.999980
v -4.000000 124.000000 -14.999980
v 5.000000 125.000000 -11.999980
v 5.000000 124.000000 -11.999980
v -4.000000 124.000000 -11.999980
v -4.000000 125.000000 -11.999980
v 5.000000 121.000000 12.000020
v 5.000000 120.000000 12.000020
v -4.000000 120.000000 12.000020
v -4.000000 121.000000 12.000020
v 5.000000 120.000000 15.000020
v 5.000000 119.000000 15.000019
v -4.000000 119.000000 15.000019
v -4.000000 120.000000 15.000020
v 5.000000 119.000000 17.000019
v 5.000000 118.000000 17.000019
v -4.000000 118.000000 17.000019
v -4.000000 119.000000 17.000019
v 5.000000 118.000000 18.000019
v 5.000000 117.000000 18.000019
v -4.000000 117.000000 18.000019
v -4.000000 118.000000 18.000019
v 5.000000 117.000000 19.000019
v 5.000000 116.000000 19.000019
v -4.000000 116.000000 19.000019
v -4.000000 117.000000 19.000019
v -27.000000 115.999985 72.000015
v -27.000000 -5.000012 72.000000
v 28.000000 -5.000012 72.000000
v 28.000000 115.999985 72.000015
v -4.000000 119.000000 22.000019
v -4.000000 117.000000 22.000019
v 5.000000 117.000000 22.000019
v 5.000000 119.000000 22.000019
v -4.000000 117.000000 -18.999981
v -4.000000 116.000000 -18.999981
v 5.000000 116.000000 -18.999981
v 5.000000 117.000000 -18.999981
v -4.000000 118.000000 -17.999981
v -4.000000 117.000000 -17.999981
v 5.000000 117.000000 -17.999981
v 5.000000 118.000000 -17.999981
v -4.000000 119.000000 -16.999981
v -4.000000 118.000000 -16.999981
v 5.000000 118.000000 -16.999981
v 5.000000 119.000000 -16.999981
v -4.000000 120.000000 -14.999980
v -4.000000 119.000000 -14.999981
v 5.000000 119.000000 -14.999981
v 5.000000 120.000000 -14.999980
v -4.000000 121.000000 -11.999980
v -4.000000 120.000000 -11.999980
v 5.000000 120.000000 -11.999980
v 5.000000 121.000000 -11.999980
v -4.000000 125.000000 12.000020
v -4.000000 124.000000 12.000020
v 5.000000 124.000000 12.000020
v 5.000000 125.000000 12.000020
v -4.000000 124.000000 15.000020
v -4.000000 123.000000 15.000020
v 5.000000 123.000000 15.000020
v 5.000000 124.000000 15.000020
v -4.000000 123.000000 17.000021
v -4.000000 122.000000 17.000019
v 5.000000 122.000000 17.000019
v 5.000000 123.000000 17.000021
v -4.000000 122.000000 19.000019
v -4.000000 121.000000 19.000019
v 5.000000 121.000000 19.000019
v 5.000000 122.000000 19.000019
v -4.000000 121.000000 20.000019
v -4.000000 120.000000 20.000019
v 5.000000 120.000000 20.000019
v 5.000000 121.000000 20.000019
v -4.000000 120.000000 21.000019
v -4.000000 119.000000 21.000019
v 5.000000 119.000000 21.000019
v 5.000000 120.000000 21.000019
v -4.000000 117.000000 23.000019
v -4.000000 116.000000 23.000019
v 5.000000 116.000000 23.000019
v 5.000000 117.000000 23.000019
v -4.000000 118.000000 -21.999981
v -4.000000 118.000000 22.000019
v 5.000000 118.000000 -21.999981
v 5.000000 118.000000 22.000019
v -27.000000 116.000000 -22.999981
v 28.000000 116.000000 -22.999981
v -27.000000 116.000000 -18.999981
v -27.000000 116.000000 19.000019
v 28.000000 116.000000 19.000019
v 28.000000 116.000000 -18.999981
v -27.000000 116.000000 23.000019
v 28.000000 116.000000 23.000019
vt 0.791020 0.238280
vt 0.791020 0.001950
vt 0.898440 0.001950
vt 0.898440 0.238280
vt 0.966800 0.085940
vt 0.966800 0.082030
vt 0.984380 0.082030
vt 0.984380 0.085940
vt 0.902340 0.162110
vt 0.902340 0.160160
vt 0.919920 0.160160
vt 0.919920 0.162110
vt 0.966800 0.156250
vt 0.966800 0.154300
vt 0.984380 0.154300
vt 0.984380 0.156250
vt 0.945310 0.162110
vt 0.945310 0.160160
vt 0.962890 0.160160
vt 0.962890 0.162110
vt 0.923830 0.162110
vt 0.923830 0.160160
vt 0.941410 0.160160
vt 0.941410 0.162110
vt 0.966800 0.167970
vt 0.966800 0.166020
vt 0.984380 0.166020
vt 0.984380 0.167970
vt 0.923830 0.179690
vt 0.923830 0.177730
vt 0.941410 0.177730
vt 0.941410 0.179690
vt 0.902340 0.179690
vt 0.902340 0.177730
vt 0.919920 0.177730
vt 0.919920 0.179690
vt 0.966800 0.179690
vt 0.966800 0.177730
vt 0.984380 0.177730
vt 0.984380 0.179690
vt 0.945310 0.179690
vt 0.945310 0.177730
vt 0.962890 0.177730
vt 0.962890 0.179690
vt 0.923830 0.173830
vt 0.923830 0.171880
vt 0.941410 0.171880
vt 0.941410 0.173830
vt 0.902340 0.173830
vt 0.902340 0.171880
vt 0.919920 0.171880
vt 0.919920 0.173830
vt 0.966800 0.173830
vt 0.966800 0.171880
vt 0.984380 0.171880
vt 0.984380 0.173830
vt 0.001950 0.523440
vt 0.001950 0.287110
vt 0.109380 0.287110
vt 0.109380 0.523440
vt 0.945310 0.085940
vt 0.945310 0.082030
vt 0.962890 0.082030
vt 0.962890 0.085940
vt 0.964840 0.138670
vt 0.964840 0.136720
vt 0.982420 0.136720
vt 0.982420 0.138670
vt 0.980470 0.115230
vt 0.980470 0.113280
vt 0.998050 0.113280
vt 0.998050 0.115230
vt 0.980470 0.109380
vt 0.980470 0.107420
vt 0.998050 0.107420
vt 0.998050 0.109380
vt 0.902340 0.156250
vt 0.902340 0.154300
vt 0.919920 0.154300
vt 0.919920 0.156250
vt 0.966800 0.150390
vt 0.966800 0.148440
vt 0.984380 0.148440
vt 0.984380 0.150390
vt 0.945310 0.156250
vt 0.945310 0.154300
vt 0.962890 0.154300
vt 0.962890 0.156250
vt 0.923830 0.156250
vt 0.923830 0.154300
vt 0.941410 0.154300
vt 0.941410 0.156250
vt 0.902340 0.150390
vt 0.902340 0.148440
vt 0.919920 0.148440
vt 0.919920 0.150390
vt 0.974610 0.144530
vt 0.974610 0.142580
vt 0.992190 0.142580
vt 0.992190 0.144530
vt 0.945310 0.150390
vt 0.945310 0.148440
vt 0.962890 0.148440
vt 0.962890 0.150390
vt 0.923830 0.150390
vt 0.923830 0.148440
vt 0.941410 0.148440
vt 0.941410 0.150390
vt 0.902340 0.191410
vt 0.902340 0.189450
vt 0.919920 0.189450
vt 0.919920 0.191410
vt 0.220700 0.238280
vt 0.220700 0.001950
vt 0.501950 0.001950
vt 0.501950 0.238280
vt 0.902340 0.115230
vt 0.902340 0.113280
vt 0.976560 0.113280
vt 0.976560 0.115230
vt 0.902340 0.126950
vt 0.902340 0.125000
vt 0.968750 0.125000
vt 0.968750 0.126950
vt 0.902340 0.132810
vt 0.902340 0.130860
vt 0.960940 0.130860
vt 0.960940 0.132810
vt 0.945310 0.101560
vt 0.945310 0.099610
vt 0.992190 0.099610
vt 0.992190 0.101560
vt 0.988280 0.093750
vt 0.988280 0.091800
vt 0.998050 0.091800
vt 0.998050 0.093750
vt 0.986330 0.132810
vt 0.986330 0.130860
vt 0.998050 0.130860
vt 0.998050 0.132810
vt 0.960940 0.197270
vt 0.960940 0.195310
vt 0.976560 0.195310
vt 0.976560 0.197270
vt 0.941410 0.197270
vt 0.941410 0.195310
vt 0.957030 0.195310
vt 0.957030 0.197270
vt 0.902340 0.203130
vt 0.902340 0.201170
vt 0.914060 0.201170
vt 0.914060 0.203130
vt 0.988280 0.083980
vt 0.988280 0.082030
vt 0.998050 0.082030
vt 0.998050 0.083980
vt 0.988280 0.185550
vt 0.988280 0.183590
vt 0.996090 0.183590
vt 0.996090 0.185550
vt 0.988280 0.179690
vt 0.988280 0.177730
vt 0.996090 0.177730
vt 0.996090 0.179690
vt 0.988280 0.173830
vt 0.988280 0.171880
vt 0.996090 0.171880
vt 0.996090 0.173830
vt 0.988280 0.191410
vt 0.988280 0.189450
vt 0.996090 0.189450
vt 0.996090 0.191410
vt 0.505860 0.238280
vt 0.505860 0.001950
vt 0.787110 0.001950
vt 0.787110 0.238280
vt 0.902340 0.109380
vt 0.902340 0.107420
vt 0.976560 0.107420
vt 0.976560 0.109380
vt 0.902340 0.121090
vt 0.902340 0.119140
vt 0.968750 0.119140
vt 0.968750 0.121090
vt 0.902340 0.138670
vt 0.902340 0.136720
vt 0.960940 0.136720
vt 0.960940 0.138670
vt 0.902340 0.144530
vt 0.902340 0.142580
vt 0.949220 0.142580
vt 0.949220 0.144530
vt 0.988280 0.074220
vt 0.988280 0.072270
vt 0.998050 0.072270
vt 0.998050 0.074220
vt 0.980470 0.197270
vt 0.980470 0.195310
vt 0.992190 0.195310
vt 0.992190 0.197270
vt 0.902340 0.197270
vt 0.902340 0.195310
vt 0.917970 0.195310
vt 0.917970 0.197270
vt 0.921880 0.197270
vt 0.921880 0.195310
vt 0.937500 0.195310
vt 0.937500 0.197270
vt 0.986330 0.138670
vt 0.986330 0.136720
vt 0.998050 0.136720
vt 0.998050 0.138670
vt 0.988280 0.150390
vt 0.988280 0.148440
vt 0.998050 0.148440
vt 0.998050 0.150390
vt 0.988280 0.162110
vt 0.988280 0.160160
vt 0.996090 0.160160
vt 0.996090 0.162110
vt 0.988280 0.167970
vt 0.988280 0.166020
vt 0.996090 0.166020
vt 0.996090 0.167970
vt 0.988280 0.156250
vt 0.988280 0.154300
vt 0.996090 0.154300
vt 0.996090 0.156250
vt 0.917970 0.203130
vt 0.917970 0.201170
vt 0.925780 0.201170
vt 0.925780 0.203130
vt 0.890630 0.382810
vt 0.890630 0.287110
vt 0.998050 0.287110
vt 0.998050 0.382810
vt 0.324220 0.601560
vt 0.324220 0.527340
vt 0.431640 0.527340
vt 0.431640 0.601560
vt 0.890630 0.482420
vt 0.890630 0.386720
vt 0.998050 0.386720
vt 0.998050 0.482420
vt 0.902340 0.048830
vt 0.902340 0.001950
vt 0.919920 0.001950
vt 0.919920 0.048830
vt 0.945310 0.044920
vt 0.945310 0.037110
vt 0.990230 0.037110
vt 0.990230 0.044920
vt 0.945310 0.033200
vt 0.945310 0.025390
vt 0.990230 0.025390
vt 0.990230 0.033200
vt 0.945310 0.021480
vt 0.945310 0.013670
vt 0.990230 0.013670
vt 0.990230 0.021480
vt 0.945310 0.009770
vt 0.945310 0.001950
vt 0.990230 0.001950
vt 0.990230 0.009770
vt 0.923830 0.078130
vt 0.923830 0.072270
vt 0.941410 0.072270
vt 0.941410 0.078130
vt 0.902340 0.078130
vt 0.902340 0.072270
vt 0.919920 0.072270
vt 0.919920 0.078130
vt 0.966800 0.095700
vt 0.966800 0.091800
vt 0.984380 0.091800
vt 0.984380 0.095700
vt 0.945310 0.095700
vt 0.945310 0.091800
vt 0.962890 0.091800
vt 0.962890 0.095700
vt 0.902340 0.103520
vt 0.902340 0.099610
vt 0.919920 0.099610
vt 0.919920 0.103520
vt 0.923830 0.103520
vt 0.923830 0.099610
vt 0.941410 0.099610
vt 0.941410 0.103520
vt 0.945310 0.185550
vt 0.945310 0.183590
vt 0.962890 0.183590
vt 0.962890 0.185550
vt 0.966800 0.185550
vt 0.966800 0.183590
vt 0.984380 0.183590
vt 0.984380 0.185550
vt 0.902340 0.185550
vt 0.902340 0.183590
vt 0.919920 0.183590
vt 0.919920 0.185550
vt 0.923830 0.185550
vt 0.923830 0.183590
vt 0.941410 0.183590
vt 0.941410 0.185550
vt 0.945310 0.191410
vt 0.945310 0.189450
vt 0.962890 0.189450
vt 0.962890 0.191410
vt 0.966800 0.191410
vt 0.966800 0.189450
vt 0.984380 0.189450
vt 0.984380 0.191410
vt 0.964840 0.132810
vt 0.964840 0.130860
vt 0.982420 0.130860
vt 0.982420 0.132810
vt 0.972660 0.121090
vt 0.972660 0.119140
vt 0.990230 0.119140
vt 0.990230 0.121090
vt 0.001950 0.283200
vt 0.001950 0.001950
vt 0.109380 0.001950
vt 0.109380 0.283200
vt 0.923830 0.048830
vt 0.923830 0.001950
vt 0.941410 0.001950
vt 0.941410 0.048830
vt 0.902340 0.087890
vt 0.902340 0.082030
vt 0.919920 0.082030
vt 0.919920 0.087890
vt 0.966800 0.078130
vt 0.966800 0.072270
vt 0.984380 0.072270
vt 0.984380 0.078130
vt 0.902340 0.095700
vt 0.902340 0.091800
vt 0.919920 0.091800
vt 0.919920 0.095700
vt 0.923830 0.095700
vt 0.923830 0.091800
vt 0.941410 0.091800
vt 0.941410 0.095700
vt 0.972660 0.126950
vt 0.972660 0.125000
vt 0.990230 0.125000
vt 0.990230 0.126950
vt 0.945310 0.167970
vt 0.945310 0.166020
vt 0.962890 0.166020
vt 0.962890 0.167970
vt 0.966800 0.162110
vt 0.966800 0.160160
vt 0.984380 0.160160
vt 0.984380 0.162110
vt 0.902340 0.167970
vt 0.902340 0.166020
vt 0.919920 0.166020
vt 0.919920 0.167970
vn 0.0000 0.0000 -1.0000
vn 0.0000 -0.0000 1.0000
vn -1.0000 -0.0000 0.0000
vn 1.0000 0.0000 0.0000
vn 0.0000 1.0000 0.0000
vn 0.0000 -1.0000 -0.0000
s 1
f 1/1/1 2/2/1 3/3/1 4/4/1
f 5/5/1 6/6/1 7/7/1 8/8/1
f 9/9/1 10/10/1 11/11/1 12/12/1
f 13/13/1 14/14/1 15/15/1 16/16/1
f 17/17/1 18/18/1 19/19/1 20/20/1
f 21/21/1 22/22/1 23/23/1 24/24/1
f 25/25/1 26/26/1 27/27/1 28/28/1
f 29/29/1 30/30/1 31/31/1 32/32/1
f 33/33/1 34/34/1 35/35/1 36/36/1
f 37/37/1 38/38/1 39/39/1 40/40/1
f 41/41/1 42/42/1 43/43/1 44/44/1
f 45/45/1 46/46/1 47/47/1 48/48/1
f 49/49/1 50/50/1 51/51/1 52/52/1
f 53/53/1 54/54/1 55/55/1 56/56/1
f 57/57/2 58/58/2 59/59/2 60/60/2
f 61/61/2 62/62/2 63/63/2 64/64/2
f 65/65/2 66/66/2 67/67/2 68/68/2
f 69/69/2 70/70/2 71/71/2 72/72/2
f 73/73/2 74/74/2 75/75/2 76/76/2
f 77/77/2 78/78/2 79/79/2 80/80/2
f 81/81/2 82/82/2 83/83/2 84/84/2
f 85/85/2 86/86/2 87/87/2 88/88/2
f 89/89/2 90/90/2 91/91/2 92/92/2
f 93/93/2 94/94/2 95/95/2 96/96/2
f 97/97/2 98/98/2 99/99/2 100/100/2
f 101/101/2 102/102/2 103/103/2 104/104/2
f 105/105/2 106/106/2 107/107/2 108/108/2
f 109/109/2 110/110/2 111/111/2 112/112/2
f 4/113/3 3/114/3 58/115/3 57/116/3
f 24/117/3 23/118/3 98/119/3 97/120/3
f 28/121/3 27/122/3 94/123/3 93/124/3
f 32/125/3 31/126/3 90/127/3 89/128/3
f 36/129/3 35/130/3 86/131/3 85/132/3
f 8/133/3 113/134/3 74/135/3 73/136/3
f 16/137/3 15/138/3 78/139/3 77/140/3
f 20/141/3 19/142/3 82/143/3 81/144/3
f 40/145/3 39/146/3 102/147/3 101/148/3
f 44/149/3 43/150/3 106/151/3 105/152/3
f 48/153/3 47/154/3 114/155/3 61/156/3
f 12/157/3 11/158/3 66/159/3 65/160/3
f 113/161/3 7/162/3 70/163/3 69/164/3
f 52/165/3 51/166/3 62/167/3 114/168/3
f 56/169/3 55/170/3 110/171/3 109/172/3
f 60/173/4 59/174/4 2/175/4 1/176/4
f 100/177/4 99/178/4 22/179/4 21/180/4
f 96/181/4 95/182/4 26/183/4 25/184/4
f 92/185/4 91/186/4 30/187/4 29/188/4
f 88/189/4 87/190/4 34/191/4 33/192/4
f 76/193/4 75/194/4 115/195/4 5/196/4
f 80/197/4 79/198/4 14/199/4 13/200/4
f 84/201/4 83/202/4 18/203/4 17/204/4
f 104/205/4 103/206/4 38/207/4 37/208/4
f 108/209/4 107/210/4 42/211/4 41/212/4
f 64/213/4 116/214/4 46/215/4 45/216/4
f 68/217/4 67/218/4 10/219/4 9/220/4
f 72/221/4 71/222/4 6/223/4 115/224/4
f 116/225/4 63/226/4 50/227/4 49/228/4
f 112/229/4 111/230/4 54/231/4 53/232/4
f 4/233/5 117/234/5 118/235/5 1/236/5
f 119/237/5 120/238/5 121/239/5 122/240/5
f 123/241/5 57/242/5 60/243/5 124/244/5
f 36/245/5 85/246/5 88/247/5 33/248/5
f 117/249/5 119/250/5 66/251/5 11/252/5
f 10/253/5 67/254/5 122/255/5 118/256/5
f 120/257/5 123/258/5 110/259/5 55/260/5
f 54/261/5 111/262/5 124/263/5 121/264/5
f 32/265/5 35/266/5 34/267/5 29/268/5
f 86/269/5 89/270/5 92/271/5 87/272/5
f 24/273/5 27/274/5 26/275/5 21/276/5
f 28/277/5 31/278/5 30/279/5 25/280/5
f 90/281/5 93/282/5 96/283/5 91/284/5
f 94/285/5 97/286/5 100/287/5 95/288/5
f 12/289/5 7/290/5 6/291/5 9/292/5
f 8/293/5 15/294/5 14/295/5 5/296/5
f 16/297/5 19/298/5 18/299/5 13/300/5
f 20/301/5 23/302/5 22/303/5 17/304/5
f 98/305/5 101/306/5 104/307/5 99/308/5
f 102/309/5 105/310/5 108/311/5 103/312/5
f 106/313/5 61/314/5 64/315/5 107/316/5
f 62/317/5 109/318/5 112/319/5 63/320/5
f 58/321/6 3/322/6 2/323/6 59/324/6
f 40/325/6 81/326/6 84/327/6 37/328/6
f 82/329/6 77/330/6 80/331/6 83/332/6
f 44/333/6 39/334/6 38/335/6 41/336/6
f 78/337/6 73/338/6 76/339/6 79/340/6
f 48/341/6 43/342/6 42/343/6 45/344/6
f 70/345/6 65/346/6 68/347/6 71/348/6
f 74/349/6 69/350/6 72/351/6 75/352/6
f 52/353/6 47/354/6 46/355/6 49/356/6
f 56/357/6 51/358/6 50/359/6 53/360/6
