



vn 0.0 0.0 1.0
vn 0.0 0.0 -1.0
vn -1.0 0.0 0.0
vn 1.0 0.0 0.0
vn 0.0 1.0 0.0
vn 0.0 -1.0 0.0

v 1.00000 7.00000 -15.00000
v 1.00000 0.00000 -15.00000
v 0.00000 0.00000 -15.00000
v 0.00000 7.00000 -15.00000
v 1.00000 19.00000 -2.00000
v 1.00000 16.00000 -2.00000
v 0.00000 16.00000 -2.00000
v 0.00000 19.00000 -2.00000
v 1.00000 14.00000 -1.00000
v 1.00000 11.00000 -1.00000
v 0.00000 11.00000 -1.00000
v 0.00000 14.00000 -1.00000
v 1.00000 7.00000 13.00000
v 1.00000 3.00000 13.00000
v 0.00000 3.00000 13.00000
v 0.00000 7.00000 13.00000
v 1.00000 9.00000 -14.00000
v 1.00000 7.00000 -14.00000
v 0.00000 7.00000 -14.00000
v 0.00000 9.00000 -14.00000
v 1.00000 2.00000 13.00000
v 1.00000 0.00000 13.00000
v 0.00000 0.00000 13.00000
v 0.00000 2.00000 13.00000
v 1.00000 10.00000 -13.00000
v 1.00000 9.00000 -13.00000
v 0.00000 9.00000 -13.00000
v 0.00000 10.00000 -13.00000
v 1.00000 11.00000 -10.00000
v 1.00000 10.00000 -10.00000
v 0.00000 10.00000 -10.00000
v 0.00000 11.00000 -10.00000
v 1.00000 16.00000 -1.00000
v 1.00000 15.00000 -1.00000
v 0.00000 15.00000 -1.00000
v 0.00000 16.00000 -1.00000
v 1.00000 20.00000 -1.00000
v 1.00000 19.00000 -1.00000
v 0.00000 19.00000 -1.00000
v 0.00000 20.00000 -1.00000
v 1.00000 15.00000 0.00000
v 1.00000 14.00000 0.00000
v 0.00000 14.00000 0.00000
v 0.00000 15.00000 0.00000
v 1.00000 18.00000 2.00000
v 1.00000 17.00000 2.00000
v 0.00000 17.00000 2.00000
v 0.00000 18.00000 2.00000
v 1.00000 9.00000 10.00000
v 1.00000 8.00000 10.00000
v 0.00000 8.00000 10.00000
v 0.00000 9.00000 10.00000
v 1.00000 8.00000 12.00000
v 1.00000 7.00000 12.00000
v 0.00000 7.00000 12.00000
v 0.00000 8.00000 12.00000
v 0.00000 16.00000 2.00000
v 0.00000 11.00000 2.00000
v 1.00000 11.00000 2.00000
v 1.00000 16.00000 2.00000
v 0.00000 7.00000 16.00000
v 0.00000 0.00000 16.00000
v 1.00000 0.00000 16.00000
v 1.00000 7.00000 16.00000
v 0.00000 7.00000 -12.00000
v 0.00000 3.00000 -12.00000
v 1.00000 3.00000 -12.00000
v 1.00000 7.00000 -12.00000
v 0.00000 2.00000 -12.00000
v 0.00000 0.00000 -12.00000
v 1.00000 0.00000 -12.00000
v 1.00000 2.00000 -12.00000
v 0.00000 19.00000 3.00000
v 0.00000 17.00000 3.00000
v 1.00000 17.00000 3.00000
v 1.00000 19.00000 3.00000
v 0.00000 9.00000 15.00000
v 0.00000 7.00000 15.00000
v 1.00000 7.00000 15.00000
v 1.00000 9.00000 15.00000
v 0.00000 8.00000 -11.00000
v 0.00000 7.00000 -11.00000
v 1.00000 7.00000 -11.00000
v 1.00000 8.00000 -11.00000
v 0.00000 9.00000 -9.00000
v 0.00000 8.00000 -9.00000
v 1.00000 8.00000 -9.00000
v 1.00000 9.00000 -9.00000
v 0.00000 18.00000 0.00000
v 0.00000 17.00000 0.00000
v 1.00000 17.00000 0.00000
v 1.00000 18.00000 0.00000
v 0.00000 17.00000 1.00000
v 0.00000 16.00000 1.00000
v 1.00000 16.00000 1.00000
v 1.00000 17.00000 1.00000
v 0.00000 20.00000 2.00000
v 0.00000 19.00000 2.00000
v 1.00000 19.00000 2.00000
v 1.00000 20.00000 2.00000
v 0.00000 11.00000 11.00000
v 0.00000 10.00000 11.00000
v 1.00000 10.00000 11.00000
v 1.00000 11.00000 11.00000
v 0.00000 10.00000 14.00000
v 0.00000 9.00000 14.00000
v 1.00000 9.00000 14.00000
v 1.00000 10.00000 14.00000
v 0.00000 3.00000 -15.00000
v 0.00000 14.00000 2.00000
v 0.00000 3.00000 16.00000
v 0.00000 2.00000 -15.00000
v 0.00000 2.00000 16.00000
v 0.00000 8.00000 -14.00000
v 0.00000 18.00000 -2.00000
v 0.00000 18.00000 3.00000
v 0.00000 8.00000 15.00000
v 0.00000 17.00000 -2.00000
v 0.00000 15.00000 2.00000
v 1.00000 3.00000 -15.00000
v 1.00000 14.00000 2.00000
v 1.00000 3.00000 16.00000
v 1.00000 2.00000 -15.00000
v 1.00000 2.00000 16.00000
v 1.00000 8.00000 -14.00000
v 1.00000 18.00000 3.00000
v 1.00000 18.00000 -2.00000
v 1.00000 8.00000 15.00000
v 1.00000 17.00000 -2.00000
v 1.00000 15.00000 2.00000

vt 0.01563 0.40625
vt 0.01563 0.01563
vt 0.03125 0.01563
vt 0.03125 0.40625
vt 0.06250 0.40625
vt 0.06250 0.01563
vt 0.07813 0.01563
vt 0.07813 0.40625
vt 0.10938 0.31250
vt 0.10938 0.01563
vt 0.12500 0.01563
vt 0.12500 0.31250
vt 0.15625 0.15625
vt 0.15625 0.01563
vt 0.17188 0.01563
vt 0.17188 0.15625
vt 0.20313 0.15625
vt 0.20313 0.01563
vt 0.21875 0.01563
vt 0.21875 0.15625
vt 0.25000 0.12500
vt 0.25000 0.01563
vt 0.26563 0.01563
vt 0.26563 0.12500
vt 0.29688 0.12500
vt 0.29688 0.01563
vt 0.31250 0.01563
vt 0.31250 0.12500
vt 0.34375 0.09375
vt 0.34375 0.01563
vt 0.35938 0.01563
vt 0.35938 0.09375
vt 0.39063 0.07813
vt 0.39063 0.01563
vt 0.43750 0.01563
vt 0.43750 0.07813
vt 0.46875 0.07813
vt 0.46875 0.01563
vt 0.51563 0.01563
vt 0.51563 0.07813
vt 0.54688 0.07813
vt 0.54688 0.01563
vt 0.59375 0.01563
vt 0.59375 0.07813
vt 0.62500 0.07813
vt 0.62500 0.01563
vt 0.67188 0.01563
vt 0.67188 0.07813
vt 0.70313 0.07813
vt 0.70313 0.01563
vt 0.71875 0.01563
vt 0.71875 0.07813
vt 0.75000 0.07813
vt 0.75000 0.01563
vt 0.76563 0.01563
vt 0.76563 0.07813
vt 0.79688 0.06250
vt 0.79688 0.01563
vt 0.84375 0.01563
vt 0.84375 0.06250
vt 0.87500 0.06250
vt 0.87500 0.01563
vt 0.92188 0.01563
vt 0.92188 0.06250
vt 0.95313 0.06250
vt 0.95313 0.01563
vt 0.96875 0.01563
vt 0.96875 0.06250
vt 0.15625 0.23438
vt 0.15625 0.18750
vt 0.17188 0.18750
vt 0.17188 0.23438
vt 0.20313 0.23438
vt 0.20313 0.18750
vt 0.21875 0.18750
vt 0.21875 0.23438
vt 0.25000 0.23438
vt 0.25000 0.18750
vt 0.26563 0.18750
vt 0.26563 0.23438
vt 0.29688 0.23438
vt 0.29688 0.18750
vt 0.31250 0.18750
vt 0.31250 0.23438
vt 0.34375 0.23438
vt 0.34375 0.18750
vt 0.35938 0.18750
vt 0.35938 0.23438
vt 0.39063 0.23438
vt 0.39063 0.18750
vt 0.40625 0.18750
vt 0.40625 0.23438
vt 0.43750 0.21875
vt 0.43750 0.18750
vt 0.48438 0.18750
vt 0.48438 0.21875
vt 0.51563 0.21875
vt 0.51563 0.18750
vt 0.56250 0.18750
vt 0.56250 0.21875
vt 0.59375 0.21875
vt 0.59375 0.18750
vt 0.64063 0.18750
vt 0.64063 0.21875
vt 0.67188 0.21875
vt 0.67188 0.18750
vt 0.71875 0.18750
vt 0.71875 0.21875
vt 0.75000 0.21875
vt 0.75000 0.18750
vt 0.76563 0.18750
vt 0.76563 0.21875
vt 0.79688 0.21875
vt 0.79688 0.18750
vt 0.81250 0.18750
vt 0.81250 0.21875
vt 0.84375 0.21875
vt 0.84375 0.18750
vt 0.85938 0.18750
vt 0.85938 0.21875
vt 0.89063 0.21875
vt 0.89063 0.18750
vt 0.90625 0.18750
vt 0.90625 0.21875
vt 0.93750 0.21875
vt 0.93750 0.18750
vt 0.95313 0.18750
vt 0.95313 0.21875
vt 0.15625 0.29688
vt 0.15625 0.26563
vt 0.17188 0.26563
vt 0.17188 0.29688
vt 0.20313 0.29688
vt 0.20313 0.26563
vt 0.21875 0.26563
vt 0.21875 0.29688
vt 0.25000 0.29688
vt 0.25000 0.26563
vt 0.26563 0.26563
vt 0.26563 0.29688
vt 0.29688 0.28125
vt 0.29688 0.26563
vt 0.78125 0.26563
vt 0.78125 0.28125
vt 0.10938 0.35938
vt 0.10938 0.34375
vt 0.59375 0.34375
vt 0.59375 0.35938
vt 0.10938 0.40625
vt 0.10938 0.39063
vt 0.53125 0.39063
vt 0.53125 0.40625
vt 0.56250 0.40625
vt 0.56250 0.39063
vt 0.98438 0.39063
vt 0.98438 0.40625
vt 0.62500 0.35938
vt 0.62500 0.34375
vt 0.95313 0.34375
vt 0.95313 0.35938
vt 0.01563 0.45313
vt 0.01563 0.43750
vt 0.34375 0.43750
vt 0.34375 0.45313
vt 0.81250 0.28125
vt 0.81250 0.26563
vt 0.89063 0.26563
vt 0.89063 0.28125
vt 0.37500 0.45313
vt 0.37500 0.43750
vt 0.45313 0.43750
vt 0.45313 0.45313
vt 0.48438 0.45313
vt 0.48438 0.43750
vt 0.56250 0.43750
vt 0.56250 0.45313
vt 0.59375 0.45313
vt 0.59375 0.43750
vt 0.67188 0.43750
vt 0.67188 0.45313
vt 0.70313 0.45313
vt 0.70313 0.43750
vt 0.78125 0.43750
vt 0.78125 0.45313
vt 0.81250 0.45313
vt 0.81250 0.43750
vt 0.89063 0.43750
vt 0.89063 0.45313
vt 0.92188 0.28125
vt 0.92188 0.26563
vt 0.96875 0.26563
vt 0.96875 0.28125
vt 0.92188 0.45313
vt 0.92188 0.43750
vt 0.96875 0.43750
vt 0.96875 0.45313
vt 0.01563 0.50000
vt 0.01563 0.48438
vt 0.06250 0.48438
vt 0.06250 0.50000
vt 0.09375 0.50000
vt 0.09375 0.48438
vt 0.14063 0.48438
vt 0.14063 0.50000
vt 0.17188 0.50000
vt 0.17188 0.48438
vt 0.21875 0.48438
vt 0.21875 0.50000
vt 0.25000 0.50000
vt 0.25000 0.48438
vt 0.29688 0.48438
vt 0.29688 0.50000
vt 0.32813 0.50000
vt 0.32813 0.48438
vt 0.37500 0.48438
vt 0.37500 0.50000
vt 0.40625 0.50000
vt 0.40625 0.48438
vt 0.45313 0.48438
vt 0.45313 0.50000
vt 0.48438 0.50000
vt 0.48438 0.48438
vt 0.53125 0.48438
vt 0.53125 0.50000
vt 0.56250 0.50000
vt 0.56250 0.48438
vt 0.60938 0.48438
vt 0.60938 0.50000
vt 0.64063 0.50000
vt 0.64063 0.48438
vt 0.67188 0.48438
vt 0.67188 0.50000
vt 0.70313 0.50000
vt 0.70313 0.48438
vt 0.73438 0.48438
vt 0.73438 0.50000
vt 0.76563 0.50000
vt 0.76563 0.48438
vt 0.79688 0.48438
vt 0.79688 0.50000
vt 0.82813 0.50000
vt 0.82813 0.48438
vt 0.85938 0.48438
vt 0.85938 0.50000
vt 0.89063 0.50000
vt 0.89063 0.48438
vt 0.90625 0.48438
vt 0.90625 0.50000
vt 0.93750 0.50000
vt 0.93750 0.48438
vt 0.95313 0.48438
vt 0.95313 0.50000
vt 0.01563 0.54688
vt 0.01563 0.53125
vt 0.03125 0.53125
vt 0.03125 0.54688
vt 0.06250 0.54688
vt 0.06250 0.53125
vt 0.07813 0.53125
vt 0.07813 0.54688
vt 0.10938 0.54688
vt 0.10938 0.53125
vt 0.12500 0.53125
vt 0.12500 0.54688
vt 0.15625 0.54688
vt 0.15625 0.53125
vt 0.17188 0.53125
vt 0.17188 0.54688
vt 0.20313 0.54688
vt 0.20313 0.53125
vt 0.21875 0.53125
vt 0.21875 0.54688
vt 0.25000 0.54688
vt 0.25000 0.53125
vt 0.26563 0.53125
vt 0.26563 0.54688
vt 0.29688 0.54688
vt 0.29688 0.53125
vt 0.31250 0.53125
vt 0.31250 0.54688
vt 0.34375 0.54688
vt 0.34375 0.53125
vt 0.35938 0.53125
vt 0.35938 0.54688
vt 0.39063 0.54688
vt 0.39063 0.53125
vt 0.40625 0.53125
vt 0.40625 0.54688
vt 0.43750 0.54688
vt 0.43750 0.53125
vt 0.45313 0.53125
vt 0.45313 0.54688
vt 0.48438 0.54688
vt 0.48438 0.53125
vt 0.50000 0.53125
vt 0.50000 0.54688
vt 0.53125 0.54688
vt 0.53125 0.53125
vt 0.54688 0.53125
vt 0.54688 0.54688
vt 0.57813 0.54688
vt 0.57813 0.53125
vt 0.59375 0.53125
vt 0.59375 0.54688
vt 0.62500 0.54688
vt 0.62500 0.53125
vt 0.64063 0.53125
vt 0.64063 0.54688
vt 0.67188 0.54688
vt 0.67188 0.53125
vt 0.68750 0.53125
vt 0.68750 0.54688
vt 0.71875 0.54688
vt 0.71875 0.53125
vt 0.73438 0.53125
vt 0.73438 0.54688
vt 0.76563 0.54688
vt 0.76563 0.53125
vt 0.78125 0.53125
vt 0.78125 0.54688
vt 0.81250 0.54688
vt 0.81250 0.53125
vt 0.82813 0.53125
vt 0.82813 0.54688
vt 0.85938 0.54688
vt 0.85938 0.53125
vt 0.87500 0.53125
vt 0.87500 0.54688
vt 0.90625 0.54688
vt 0.90625 0.53125
vt 0.92188 0.53125
vt 0.92188 0.54688
vt 0.95313 0.54688
vt 0.95313 0.53125
vt 0.96875 0.53125
vt 0.96875 0.54688
vt 0.01563 0.59375
vt 0.01563 0.57813
vt 0.03125 0.57813
vt 0.03125 0.59375
vt 0.06250 0.59375
vt 0.06250 0.57813
vt 0.07813 0.57813
vt 0.07813 0.59375
vt 0.10938 0.59375
vt 0.10938 0.57813
vt 0.12500 0.57813
vt 0.12500 0.59375
vt 0.15625 0.59375
vt 0.15625 0.57813
vt 0.17188 0.57813
vt 0.17188 0.59375
vt 0.20313 0.59375
vt 0.20313 0.57813
vt 0.21875 0.57813
vt 0.21875 0.59375
vt 0.25000 0.59375
vt 0.25000 0.57813
vt 0.26563 0.57813
vt 0.26563 0.59375
vt 0.29688 0.59375
vt 0.29688 0.57813
vt 0.31250 0.57813
vt 0.31250 0.59375
vt 0.34375 0.59375
vt 0.34375 0.57813
vt 0.35938 0.57813
vt 0.35938 0.59375

g wieszaki_001_part_1

f 1/21/2 2/22/2 3/23/2 4/24/2
f 5/81/2 6/82/2 7/83/2 8/84/2
f 9/85/2 10/86/2 11/87/2 12/88/2
f 13/53/2 14/54/2 15/55/2 16/56/2
f 17/113/2 18/114/2 19/115/2 20/116/2
f 21/137/2 22/138/2 23/139/2 24/140/2
f 25/257/2 26/258/2 27/259/2 28/260/2
f 29/245/2 30/246/2 31/247/2 32/248/2
f 33/249/2 34/250/2 35/251/2 36/252/2
f 37/261/2 38/262/2 39/263/2 40/264/2
f 41/273/2 42/274/2 43/275/2 44/276/2
f 45/277/2 46/278/2 47/279/2 48/280/2
f 49/265/2 50/266/2 51/267/2 52/268/2
f 53/269/2 54/270/2 55/271/2 56/272/2
f 57/29/1 58/30/1 59/31/1 60/32/1
f 61/25/1 62/26/1 63/27/1 64/28/1
f 65/49/1 66/50/1 67/51/1 68/52/1
f 69/125/1 70/126/1 71/127/1 72/128/1
f 73/121/1 74/122/1 75/123/1 76/124/1
f 77/117/1 78/118/1 79/119/1 80/120/1
f 81/253/1 82/254/1 83/255/1 84/256/1
f 85/281/1 86/282/1 87/283/1 88/284/1
f 89/341/1 90/342/1 91/343/1 92/344/1
f 93/345/1 94/346/1 95/347/1 96/348/1
f 97/337/1 98/338/1 99/339/1 100/340/1
f 101/329/1 102/330/1 103/331/1 104/332/1
f 105/333/1 106/334/1 107/335/1 108/336/1
f 4/33/3 109/34/3 66/35/3 65/36/3
f 12/61/3 11/62/3 58/63/3 110/64/3
f 16/37/3 15/38/3 111/39/3 61/40/3
f 112/93/3 3/94/3 70/95/3 69/96/3
f 24/97/3 23/98/3 62/99/3 113/100/3
f 109/141/3 112/142/3 113/143/3 111/144/3
f 28/153/3 27/154/3 106/155/3 105/156/3
f 32/157/3 31/158/3 102/159/3 101/160/3
f 20/165/3 114/166/3 86/167/3 85/168/3
f 8/173/3 115/174/3 116/175/3 73/176/3
f 52/169/3 51/170/3 117/171/3 77/172/3
f 114/197/3 19/198/3 82/199/3 81/200/3
f 118/221/3 7/222/3 94/223/3 93/224/3
f 36/225/3 35/226/3 119/227/3 57/228/3
f 40/213/3 39/214/3 98/215/3 97/216/3
f 56/217/3 55/218/3 78/219/3 117/220/3
f 115/237/3 118/238/3 90/239/3 89/240/3
f 44/241/3 43/242/3 110/243/3 119/244/3
f 48/361/3 47/362/3 74/363/3 116/364/3
f 68/45/4 67/46/4 120/47/4 1/48/4
f 121/57/4 59/58/4 10/59/4 9/60/4
f 64/41/4 122/42/4 14/43/4 13/44/4
f 72/101/4 71/102/4 2/103/4 123/104/4
f 124/105/4 63/106/4 22/107/4 21/108/4
f 122/145/4 124/146/4 123/147/4 120/148/4
f 108/149/4 107/150/4 26/151/4 25/152/4
f 104/161/4 103/162/4 30/163/4 29/164/4
f 88/185/4 87/186/4 125/187/4 17/188/4
f 76/181/4 126/182/4 127/183/4 5/184/4
f 80/177/4 128/178/4 50/179/4 49/180/4
f 84/193/4 83/194/4 18/195/4 125/196/4
f 96/189/4 95/190/4 6/191/4 129/192/4
f 60/209/4 130/210/4 34/211/4 33/212/4
f 100/205/4 99/206/4 38/207/4 37/208/4
f 128/201/4 79/202/4 54/203/4 53/204/4
f 92/229/4 91/230/4 129/231/4 127/232/4
f 130/233/4 121/234/4 42/235/4 41/236/4
f 126/365/4 75/366/4 46/367/4 45/368/4
f 66/1/5 15/2/5 14/3/5 67/4/5
f 32/13/5 11/14/5 10/15/5 29/16/5
f 58/17/5 101/18/5 104/19/5 59/20/5
f 28/65/5 31/66/5 30/67/5 25/68/5
f 40/69/5 97/70/5 100/71/5 37/72/5
f 102/73/5 105/74/5 108/75/5 103/76/5
f 4/357/5 19/358/5 18/359/5 1/360/5
f 20/349/5 27/350/5 26/351/5 17/352/5
f 8/353/5 39/354/5 38/355/5 5/356/5
f 12/325/5 43/326/5 42/327/5 9/328/5
f 90/297/5 93/298/5 96/299/5 91/300/5
f 94/301/5 57/302/5 60/303/5 95/304/5
f 98/293/5 73/294/5 76/295/5 99/296/5
f 106/285/5 77/286/5 80/287/5 107/288/5
f 78/289/5 61/290/5 64/291/5 79/292/5
f 24/5/6 69/6/6 72/7/6 21/8/6
f 52/9/6 85/10/6 88/11/6 49/12/6
f 70/77/6 3/78/6 2/79/6 71/80/6
f 62/89/6 23/90/6 22/91/6 63/92/6
f 86/133/6 81/134/6 84/135/6 87/136/6
f 48/129/6 89/130/6 92/131/6 45/132/6
f 56/109/6 51/110/6 50/111/6 53/112/6
f 82/317/6 65/318/6 68/319/6 83/320/6
f 36/321/6 7/322/6 6/323/6 33/324/6
f 44/313/6 35/314/6 34/315/6 41/316/6
f 74/305/6 47/306/6 46/307/6 75/308/6
f 16/309/6 55/310/6 54/311/6 13/312/6
