# This file was created with Minddesk Qubicle 3.0
# Get Qubicle at www.getqubicle.com

mtllib MEDSTATION.mtl

vn 0.0 0.0 1.0
vn 0.0 0.0 -1.0
vn -1.0 0.0 0.0
vn 1.0 0.0 0.0
vn 0.0 1.0 0.0
vn 0.0 -1.0 0.0

v 10.00000 192.00000 -64.00000
v 10.00000 0.00000 -64.00000
v 0.00000 0.00000 -64.00000
v 0.00000 192.00000 -64.00000
v 0.00000 192.00000 64.00000
v 0.00000 0.00000 64.00000
v 10.00000 0.00000 64.00000
v 10.00000 192.00000 64.00000

vt 0.00195 0.75391
vt 0.00195 0.00391
vt 0.25195 0.00391
vt 0.25195 0.75391
vt 0.25586 0.75391
vt 0.25586 0.00391
vt 0.50586 0.00391
vt 0.50586 0.75391
vt 0.50977 0.75391
vt 0.50977 0.00391
vt 0.52930 0.00391
vt 0.52930 0.75391
vt 0.53320 0.75391
vt 0.53320 0.00391
vt 0.55273 0.00391
vt 0.55273 0.75391
vt 0.55664 0.50391
vt 0.55664 0.00391
vt 0.57617 0.00391
vt 0.57617 0.50391
vt 0.58008 0.50391
vt 0.58008 0.00391
vt 0.59961 0.00391
vt 0.59961 0.50391

g MEDSTATION
f 1/13/2 2/14/2 3/15/2 4/16/2
f 5/9/1 6/10/1 7/11/1 8/12/1
f 4/5/3 3/6/3 6/7/3 5/8/3
f 8/1/4 7/2/4 2/3/4 1/4/4
f 4/17/5 5/18/5 8/19/5 1/20/5
f 6/21/6 3/22/6 2/23/6 7/24/6
