# Blender 4.0.2
# www.blender.org

o SE_03B
v -53.375977 1024.000000 -111.937164
v 186.624023 1024.000000 6.951994
v 186.624023 1008.000000 6.951996
v -53.375977 1008.000000 -111.937164
v -53.375977 888.000000 -111.937149
v 186.624023 888.000000 6.952014
v 186.624023 872.000000 6.952017
v -53.375977 872.000000 -111.937149
v -37.375977 1024.000000 -30.937168
v -291.375977 1024.000000 -30.937168
v -291.375977 1008.000000 -30.937164
v -37.375977 1008.000000 -30.937164
v -37.375977 888.000000 -30.937145
v -291.375977 888.000000 -30.937145
v -291.375977 872.000000 -30.937145
v -37.375977 872.000000 -30.937145
v 246.624023 1024.000000 102.395844
v 246.624023 1008.000000 102.395844
v 246.624023 888.000000 102.395859
v 246.624023 872.000000 102.395859
v -233.375977 1024.000000 -114.937164
v -65.375977 1024.000000 -114.937164
v -65.375977 1008.000000 -114.937164
v -233.375977 1008.000000 -114.937164
v -233.375977 888.000000 -114.937149
v -65.375977 888.000000 -114.937149
v -65.375977 872.000000 -114.937149
v -233.375977 872.000000 -114.937149
v 269.624023 1024.000000 64.062836
v 312.624023 1024.000000 100.062836
v 312.624023 1008.000000 100.062836
v 269.624023 1008.000000 64.062836
v 269.624023 888.000000 64.062851
v 312.624023 888.000000 100.062851
v 312.624023 872.000000 100.062851
v 269.624023 872.000000 64.062851
v 262.624023 1024.000000 97.062836
v 262.624023 1008.000000 97.062836
v 262.624023 888.000000 97.062851
v 262.624023 872.000000 97.062851
v 202.624023 1024.000000 25.062832
v 202.624023 1008.000000 25.062836
v 202.624023 888.000000 25.062855
v 202.624023 872.000000 25.062855
v -243.375977 1024.000000 -61.937164
v -243.375977 1008.000000 -61.937164
v -243.375977 888.000000 -61.937149
v -243.375977 872.000000 -61.937141
vn 0.4439 -0.0000 -0.8961
vn -0.0000 -0.0000 1.0000
vn -0.4250 -0.0000 0.9052
vn -0.0000 -0.0000 -1.0000
vn 0.6419 -0.0000 -0.7668
vn 0.2425 -0.0000 -0.9701
vn -0.0599 -0.0000 0.9982
vn 0.3162 -0.0000 0.9487
vn 0.7494 -0.0000 -0.6621
vn -0.9827 -0.0000 -0.1854
vn 0.5031 -0.0000 -0.8642
vn -0.5425 -0.0000 -0.8400
vn -0.0000 1.0000 -0.0000
vn -0.0000 -1.0000 -0.0000
vt 2.093750 0.000000
vt 0.000000 0.000000
vt 0.000000 -0.125000
vt 2.093750 -0.125000
vt 1.984375 0.000000
vt 1.984375 -0.125000
vt 2.453125 0.000000
vt 2.453125 -0.125000
vt 1.312500 0.000000
vt 1.312500 -0.125000
vt 0.437500 0.000000
vt 0.437500 -0.125000
vt 0.093750 0.000000
vt 0.093750 -0.125000
vt 0.390625 0.000000
vt 0.390625 -0.125000
vt 0.132812 0.000000
vt 0.132812 -0.125000
vt 0.187500 0.000000
vt 0.187500 -0.125000
vt 0.421875 0.000000
vt 0.421875 -0.125000
vt 0.609375 0.000000
vt 0.609375 -0.125000
vt 0.445312 0.000000
vt 0.445312 -0.125000
vt -41.210449 -27.354500
vt -41.210449 -28.667000
vt -40.796379 -28.745119
vt -41.187012 -27.260750
vt -40.116699 -25.260750
vt -40.258190 -25.385750
vt -39.530762 -24.401369
vt -39.812012 -24.737310
vt -39.554199 -24.792000
vt -40.554199 -27.135750
vt -39.512531 -24.917000
vt -40.554199 -29.120119
vt 41.210449 27.729500
vt 40.796379 29.120119
vt 41.210449 29.042000
vt 41.187012 27.635750
vt 40.116699 25.635750
vt 40.258190 25.760750
vt 39.530762 24.776369
vt 39.812012 25.112310
vt 39.554199 25.167000
vt 40.554199 27.510750
vt 39.512531 25.292000
vt 40.554199 29.495119
s 0

f 1/1/1 2/2/1 3/3/1
f 4/4/1 1/1/1 3/3/1
f 5/1/1 6/2/1 7/3/1
f 8/4/1 5/1/1 7/3/1
f 9/5/2 10/2/2 11/3/2
f 12/6/2 9/5/2 11/3/2
f 13/5/2 14/2/2 15/3/2
f 16/6/2 13/5/2 15/3/2
f 17/7/3 9/2/3 12/3/3
f 18/8/3 17/7/3 12/3/3
f 19/7/3 13/2/3 16/3/3
f 20/8/3 19/7/3 16/3/3
f 21/9/4 22/2/4 23/3/4
f 24/10/4 21/9/4 23/3/4
f 25/9/4 26/2/4 27/3/4
f 28/10/4 25/9/4 27/3/4
f 29/11/5 30/2/5 31/3/5
f 32/12/5 29/11/5 31/3/5
f 33/11/5 34/2/5 35/3/5
f 36/12/5 33/11/5 35/3/5
f 22/13/6 1/2/6 4/3/6
f 23/14/6 22/13/6 4/3/6
f 26/13/6 5/2/6 8/3/6
f 27/14/6 26/13/6 8/3/6
f 30/15/7 37/2/7 38/3/7
f 31/16/7 30/15/7 38/3/7
f 34/15/7 39/2/7 40/3/7
f 35/16/7 34/15/7 40/3/7
f 37/17/8 17/2/8 18/3/8
f 38/18/8 37/17/8 18/3/8
f 39/17/8 19/2/8 20/3/8
f 40/18/8 39/17/8 20/3/8
f 2/19/9 41/2/9 42/3/9
f 3/20/9 2/19/9 42/3/9
f 6/19/9 43/2/9 44/3/9
f 7/20/9 6/19/9 44/3/9
f 45/21/10 21/2/10 24/3/10
f 46/22/10 45/21/10 24/3/10
f 47/21/10 25/2/10 28/3/10
f 48/22/10 47/21/10 28/3/10
f 41/23/11 29/2/11 32/3/11
f 42/24/11 41/23/11 32/3/11
f 43/23/11 33/2/11 36/3/11
f 44/24/11 43/23/11 36/3/11
f 10/25/12 45/2/12 46/3/12
f 11/26/12 10/25/12 46/3/12
f 14/25/12 47/2/12 48/3/12
f 15/26/12 14/25/12 48/3/12
f 22/27/13 21/28/13 45/29/13
f 1/30/13 22/27/13 45/29/13
f 41/31/13 2/32/13 1/30/13
f 30/33/13 29/34/13 41/31/13
f 37/35/13 30/33/13 41/31/13
f 9/36/13 17/37/13 37/35/13
f 45/29/13 10/38/13 9/36/13
f 1/30/13 45/29/13 9/36/13
f 37/35/13 41/31/13 1/30/13
f 9/36/13 37/35/13 1/30/13
f 26/27/13 25/28/13 47/29/13
f 5/30/13 26/27/13 47/29/13
f 43/31/13 6/32/13 5/30/13
f 34/33/13 33/34/13 43/31/13
f 39/35/13 34/33/13 43/31/13
f 13/36/13 19/37/13 39/35/13
f 47/29/13 14/38/13 13/36/13
f 5/30/13 47/29/13 13/36/13
f 39/35/13 43/31/13 5/30/13
f 13/36/13 39/35/13 5/30/13
f 23/39/14 46/40/14 24/41/14
f 4/42/14 46/40/14 23/39/14
f 42/43/14 4/42/14 3/44/14
f 31/45/14 42/43/14 32/46/14
f 38/47/14 42/43/14 31/45/14
f 12/48/14 38/47/14 18/49/14
f 46/40/14 12/48/14 11/50/14
f 4/42/14 12/48/14 46/40/14
f 38/47/14 4/42/14 42/43/14
f 12/48/14 4/42/14 38/47/14
f 27/39/14 48/40/14 28/41/14
f 8/42/14 48/40/14 27/39/14
f 44/43/14 8/42/14 7/44/14
f 35/45/14 44/43/14 36/46/14
f 40/47/14 44/43/14 35/45/14
f 16/48/14 40/47/14 20/49/14
f 48/40/14 16/48/14 15/50/14
f 8/42/14 16/48/14 48/40/14
f 40/47/14 8/42/14 44/43/14
f 16/48/14 8/42/14 40/47/14
