



vn 0.0 0.0 1.0
vn 0.0 0.0 -1.0
vn -1.0 0.0 0.0
vn 1.0 0.0 0.0
vn 0.0 1.0 0.0
vn 0.0 -1.0 0.0

v 10.00000 128.00000 -80.00000
v 10.00000 0.00000 -80.00000
v 0.00000 0.00000 -80.00000
v 0.00000 128.00000 -80.00000
v 0.00000 128.00000 0.00000
v 0.00000 0.00000 0.00000
v 10.00000 0.00000 0.00000
v 10.00000 128.00000 0.00000

vt 0.00391 0.50391
vt 0.00391 0.00391
vt 0.31641 0.00391
vt 0.31641 0.50391
vt 0.32422 0.50391
vt 0.32422 0.00391
vt 0.63672 0.00391
vt 0.63672 0.50391
vt 0.64453 0.50391
vt 0.64453 0.00391
vt 0.68359 0.00391
vt 0.68359 0.50391
vt 0.69141 0.50391
vt 0.69141 0.00391
vt 0.73047 0.00391
vt 0.73047 0.50391
vt 0.73828 0.31641
vt 0.73828 0.00391
vt 0.77734 0.00391
vt 0.77734 0.31641
vt 0.78516 0.31641
vt 0.78516 0.00391
vt 0.82422 0.00391
vt 0.82422 0.31641

g DRLALK1B

f 1/13/2 2/14/2 3/15/2 4/16/2
f 5/9/1 6/10/1 7/11/1 8/12/1
f 4/5/3 3/6/3 6/7/3 5/8/3
f 8/1/4 7/2/4 2/3/4 1/4/4
f 4/17/5 5/18/5 8/19/5 1/20/5
f 6/21/6 3/22/6 2/23/6 7/24/6
