# Blender 3.5.1
# www.blender.org

o cuboid.010
v -2.868764 -0.232574 -1.190181
v -2.557998 -0.213640 -1.266286
v -2.740523 0.058541 -0.558314
v -2.558435 0.056161 -0.606407
v -2.912726 0.053771 -1.255828
v -2.603425 0.095541 -1.266286
v -2.753430 0.245596 -0.558314
v -2.572320 0.243146 -0.606407
v -2.890198 -0.077801 -1.190181
v -2.580712 -0.059050 -1.266286
v -2.565377 0.149654 -0.606407
v -2.746977 0.152067 -0.558314
v -2.713736 -0.213919 -1.198618
v -2.649472 0.057113 -0.582360
v -2.656171 0.150624 -0.582360
v -2.662868 0.244135 -0.582360
v -2.758064 0.074567 -1.261057
v -2.735312 -0.059166 -1.198618
v 3.445078 0.763905 -1.538209
v 3.132189 0.721803 -1.580250
v 3.369872 0.593134 -0.892398
v 3.184700 0.582545 -0.920522
v 3.380817 1.092983 -1.603778
v 3.076233 1.029254 -1.580250
v 3.350178 0.779597 -0.892398
v 3.164436 0.768946 -0.920522
v 3.417803 0.917757 -1.538209
v 3.104211 0.875529 -1.580250
v 3.174568 0.675745 -0.920522
v 3.360024 0.686365 -0.892398
v 3.291853 0.733869 -1.529648
v 3.277274 0.587980 -0.906460
v 3.267285 0.681197 -0.906460
v 3.257296 0.774414 -0.906460
v 3.228563 1.060922 -1.592014
v 3.264721 0.887745 -1.529648
v -2.886249 -0.031002 -0.825983
v -2.701860 0.215259 -0.126025
v -2.769752 -0.133214 -0.843793
v -2.610835 -0.125805 -0.870499
v -2.449775 0.083074 -0.228573
v -2.516106 -0.013784 -0.888308
v -2.353829 0.181684 -0.269600
v -2.532912 0.146020 -0.888308
v -2.359853 0.342259 -0.269600
v -2.649335 0.247213 -0.870499
v -2.807167 0.239915 -0.843793
v -2.609505 0.472310 -0.167051
v -2.901973 0.128915 -0.825983
v -2.705377 0.375908 -0.126025
v 3.480537 0.718032 -1.175186
v 3.388881 0.599469 -1.181412
v 3.229688 0.580608 -1.190749
v 3.127983 0.361545 -0.532577
v 3.108773 0.673985 -1.196976
v 3.086613 0.833137 -1.196976
v 3.006623 0.630914 -0.562608
v 3.178223 0.952061 -1.190749
v 3.337793 0.970972 -1.181412
v 3.458755 0.877237 -1.175186
v 3.369476 0.620585 -0.457511
v 3.378778 0.460168 -0.457511
v 3.282159 0.357038 -0.487543
v 1.580756 0.000245 1.284980
v 3.017759 0.470613 -0.562608
v 1.568567 0.285487 1.189211
v 1.629948 0.372005 1.284980
v 3.103214 0.735727 -0.532577
v 3.259222 0.731335 -0.487543
v 1.732940 0.212191 1.524362
v 1.707723 0.053493 1.524362
v -0.816296 0.350871 1.564268
v 1.647057 -0.030583 1.428592
v 1.549148 0.125976 1.189211
v 1.702049 0.340363 1.428592
v -0.834183 0.474843 1.664693
v -2.599626 0.097440 -0.167051
v -0.761347 0.324763 1.413676
v -0.710013 0.414546 1.313252
v -0.688445 0.573780 1.313252
v -2.462161 0.457869 -0.228573
v -0.706956 0.695798 1.413676
v -0.755836 0.720965 1.564268
v -0.806547 0.633135 1.664693
v 2.566035 0.434613 0.533999
v 2.754874 0.110677 0.705489
v 2.547334 0.060079 0.533999
v 2.471444 0.187545 0.465391
v 2.765879 0.270987 0.705489
v 2.690485 0.401507 0.636881
v 2.478261 0.348088 0.465391
v 2.667594 0.027206 0.636881
v 0.423318 0.144811 1.755872
v 0.447802 0.247180 1.862870
v 0.417566 0.148754 1.595422
v 0.430081 0.257137 1.488425
v 0.454679 0.415930 1.488425
v 0.491475 0.513564 1.755872
v 0.478843 0.404840 1.862870
v 0.479279 0.518641 1.595422
v -1.751328 0.702940 0.769979
v -1.698319 0.413645 0.692836
v -1.953500 0.496789 0.962802
v -1.779634 0.329010 0.769979
v -1.687534 0.573970 0.692836
v -1.938015 0.656729 0.962802
v -1.890332 0.364749 0.885660
v -1.857325 0.738294 0.885660
vn 0.1157 -0.9122 0.3930
vn -0.1042 0.9665 -0.2345
vn -0.0535 -0.0074 -0.9985
vn 0.2559 0.0180 0.9665
vn -0.9619 -0.1080 0.2512
vn 0.9915 0.1185 -0.0542
vn 0.0153 -0.4326 -0.9015
vn 0.9907 0.1184 -0.0668
vn 0.2565 0.0180 0.9664
vn -0.9659 -0.0775 0.2472
vn -0.9660 -0.0780 0.2464
vn -0.9671 -0.0791 0.2419
vn -0.9666 -0.0788 0.2440
vn 0.1549 -0.9122 0.3794
vn 0.1548 -0.9109 0.3825
vn 0.1547 -0.9111 0.3820
vn 0.1551 -0.9116 0.3808
vn 0.2559 0.0187 0.9665
vn 0.2565 0.0187 0.9664
vn -0.1053 0.9698 -0.2199
vn -0.0103 -0.4047 -0.9144
vn 0.0119 -0.3908 -0.9204
vn 0.0083 -0.3852 -0.9228
vn 0.0020 -0.4003 -0.9164
vn -0.3990 -0.0571 -0.9152
vn 0.1429 -0.9626 -0.2301
vn -0.1419 0.9096 0.3904
vn -0.0539 -0.0095 -0.9985
vn -0.1491 -0.0159 0.9887
vn 0.9782 0.1470 0.1465
vn -0.9869 -0.1523 0.0528
vn 0.0073 -0.3433 -0.9392
vn -0.9862 -0.1522 0.0654
vn -0.1489 -0.0158 0.9887
vn 0.9723 0.1801 0.1488
vn 0.9728 0.1813 0.1439
vn 0.9731 0.1803 0.1432
vn 0.9724 0.1810 0.1475
vn 0.1074 -0.9706 -0.2154
vn 0.1080 -0.9707 -0.2148
vn 0.1069 -0.9701 -0.2177
vn 0.1078 -0.9703 -0.2166
vn -0.1491 -0.0161 0.9887
vn -0.1489 -0.0161 0.9887
vn -0.1418 0.9127 0.3833
vn -0.0106 -0.3710 -0.9286
vn -0.0071 -0.3674 -0.9300
vn -0.0296 -0.3588 -0.9329
vn -0.0194 -0.3602 -0.9327
vn 0.2973 0.0533 -0.9533
vn -0.5963 -0.6985 0.3955
vn 0.0645 -0.9515 0.3009
vn 0.7444 -0.6674 0.0231
vn 0.9573 0.0682 -0.2810
vn 0.5906 0.7033 -0.3958
vn -0.0647 0.9515 -0.3008
vn -0.7392 0.6731 -0.0227
vn -0.9580 -0.0575 0.2810
vn -0.1655 -0.0168 -0.9861
vn -0.1655 -0.0165 -0.9861
vn -0.1655 -0.0172 -0.9861
vn 0.7664 -0.6327 -0.1111
vn 0.0968 -0.9464 -0.3081
vn -0.5926 -0.7354 -0.3287
vn -0.9810 -0.1022 -0.1649
vn -0.7693 0.6291 0.1115
vn -0.0966 0.9464 0.3082
vn 0.5963 0.7325 0.3284
vn 0.9817 0.0955 0.1649
vn 0.0575 0.0079 -0.9983
vn 0.0575 0.0080 -0.9983
vn 0.6660 -0.7321 0.1432
vn 0.0142 -0.9628 -0.2697
vn -0.5731 -0.6558 -0.4914
vn -0.8848 -0.0119 -0.4658
vn -0.6753 0.7238 -0.1418
vn -0.0138 0.9627 0.2703
vn 0.5819 0.6484 0.4908
vn 0.8850 -0.0047 0.4656
vn 0.0658 -0.7481 0.6603
vn -0.1540 -0.9851 -0.0762
vn -0.2702 -0.6428 -0.7168
vn -0.2548 0.0352 -0.9663
vn -0.0863 0.7464 -0.6599
vn 0.1540 0.9851 0.0763
vn 0.2879 0.6354 0.7165
vn 0.2533 -0.0450 0.9663
vn -0.4322 -0.6023 0.6711
vn -0.1095 -0.9811 0.1598
vn 0.3294 -0.7849 -0.5249
vn 0.5289 -0.0535 -0.8470
vn 0.4176 0.6121 -0.6716
vn 0.1094 0.9811 -0.1594
vn -0.3105 0.7920 0.5257
vn -0.5268 0.0714 0.8470
vn 0.6195 -0.0703 0.7818
vn 0.4751 0.6026 0.6412
vn 0.0873 0.9784 0.1874
vn -0.4156 0.7886 -0.4531
vn -0.6213 0.0509 -0.7819
vn -0.4616 -0.6125 -0.6416
vn -0.0872 -0.9785 -0.1869
vn 0.3981 -0.7971 0.4541
vn -0.1478 0.0274 0.9886
vn 0.0181 0.7230 0.6906
vn 0.1626 0.9857 -0.0445
vn 0.2056 0.6607 -0.7219
vn 0.1487 -0.0216 -0.9886
vn 0.0023 -0.7234 -0.6904
vn -0.1626 -0.9857 0.0445
vn -0.2242 -0.6549 0.7217
vn -0.8241 0.0308 0.5656
vn -0.6066 0.7590 0.2366
vn 0.0144 0.9678 -0.2514
vn 0.5498 0.6354 -0.5423
vn 0.8245 -0.0122 -0.5658
vn 0.6183 -0.7499 -0.2353
vn -0.0147 -0.9676 0.2520
vn -0.5599 -0.6269 0.5418
vt 0.039062 0.171875
vt 0.070312 0.156250
vt 0.039062 0.179688
vt 0.039062 0.117188
vt 0.031250 0.203125
vt 0.062500 0.210938
vt 0.117188 0.179688
vt 0.015625 1.000000
vt 0.117188 0.171875
vt 0.125000 0.125000
vt 0.117188 0.195312
vt 0.015625 0.984375
vt 0.039062 0.132812
vt 0.062500 0.195312
vt 0.031250 0.140625
vt 0.039062 0.187500
vt 0.039062 0.093750
vt 0.109375 0.203125
vt 0.125000 0.125000
vt 0.000000 1.000000
vt 0.117188 0.148438
vt 0.125000 0.179688
vt 0.000000 0.984375
vt 0.125000 0.101562
vt 0.046875 0.156250
vt 0.062500 0.171875
vt 0.039062 0.164062
vt 0.039062 0.132812
vt 0.039062 0.171875
vt 0.109375 0.187500
vt 0.039062 0.210938
vt 0.125000 0.132812
vt 0.125000 0.171875
vt 0.007812 0.984375
vt 0.007812 1.000000
vt 0.117188 0.164062
vt 0.070312 0.179688
vt 0.039062 0.187500
vt 0.062500 0.187500
vt 0.117188 0.187500
vt 0.015625 0.992188
vt 0.007812 0.992188
vt 0.000000 0.992188
vt 0.125000 0.117188
vt 0.085938 0.195312
vt 0.039062 0.117188
vt 0.085938 0.203125
vt 0.046875 0.179688
vt 0.085938 0.171875
vt 0.085938 0.179688
vt 0.039062 0.187500
vt 0.039062 0.171875
vt 0.070312 0.156250
vt 0.039062 0.179688
vt 0.039062 0.117188
vt 0.031250 0.203125
vt 0.062500 0.210938
vt 0.117188 0.179688
vt 0.015625 1.000000
vt 0.117188 0.171875
vt 0.125000 0.125000
vt 0.117188 0.195312
vt 0.015625 0.984375
vt 0.039062 0.132812
vt 0.062500 0.195312
vt 0.031250 0.140625
vt 0.039062 0.187500
vt 0.039062 0.093750
vt 0.109375 0.203125
vt 0.125000 0.125000
vt 0.000000 1.000000
vt 0.117188 0.148438
vt 0.125000 0.179688
vt 0.000000 0.984375
vt 0.125000 0.101562
vt 0.046875 0.156250
vt 0.062500 0.171875
vt 0.039062 0.164062
vt 0.039062 0.132812
vt 0.039062 0.171875
vt 0.109375 0.187500
vt 0.039062 0.210938
vt 0.125000 0.132812
vt 0.125000 0.171875
vt 0.007812 0.984375
vt 0.007812 1.000000
vt 0.117188 0.164062
vt 0.070312 0.179688
vt 0.039062 0.187500
vt 0.062500 0.187500
vt 0.117188 0.187500
vt 0.015625 0.992188
vt 0.007812 0.992188
vt 0.000000 0.992188
vt 0.125000 0.117188
vt 0.085938 0.195312
vt 0.039062 0.117188
vt 0.085938 0.203125
vt 0.046875 0.179688
vt 0.085938 0.171875
vt 0.085938 0.179688
vt 0.039062 0.187500
vt 0.140625 0.140625
vt 0.197543 0.189730
vt 0.226562 0.140625
vt 0.484375 0.140625
vt 0.140625 0.125000
vt 0.203125 0.198664
vt 0.210938 0.203125
vt 0.140625 0.109375
vt 0.203125 0.218750
vt 0.210938 0.205355
vt 0.226562 0.109375
vt 0.484375 0.109375
vt 0.140625 0.093750
vt 0.140625 0.203125
vt 0.197543 0.218750
vt 0.226562 0.093750
vt 0.226562 0.203125
vt 0.484375 0.125000
vt 0.484375 0.093750
vt 0.140625 0.187500
vt 0.140625 0.218750
vt 0.177457 0.218750
vt 0.226562 0.187500
vt 0.226562 0.218750
vt 0.484375 0.218750
vt 0.484375 0.109375
vt 0.140625 0.203125
vt 0.140625 0.187500
vt 0.156250 0.218750
vt 0.164062 0.205355
vt 0.140625 0.171875
vt 0.156250 0.198664
vt 0.164062 0.203125
vt 0.226562 0.171875
vt 0.484375 0.171875
vt 0.140625 0.156250
vt 0.177457 0.189730
vt 0.226562 0.156250
vt 0.484375 0.156250
vt 0.132812 0.140625
vt 0.197543 0.189730
vt 0.132812 0.125000
vt 0.203125 0.198664
vt 0.210938 0.203125
vt 0.132812 0.109375
vt 0.203125 0.218750
vt 0.210938 0.205355
vt 0.218750 0.109375
vt 0.742188 0.109375
vt 0.132812 0.093750
vt 0.132812 0.203125
vt 0.197543 0.218750
vt 0.132812 0.187500
vt 0.132812 0.218750
vt 0.177457 0.218750
vt 0.218750 0.187500
vt 0.218750 0.218750
vt 0.742188 0.101562
vt 1.000000 0.195312
vt 0.132812 0.203125
vt 0.132812 0.187500
vt 0.156250 0.218750
vt 0.164062 0.205355
vt 0.132812 0.171875
vt 0.156250 0.198664
vt 0.164062 0.203125
vt 0.132812 0.156250
vt 0.177457 0.189730
vt 0.218750 0.156250
vt 0.742188 0.156250
vt 0.218750 0.140625
vt 0.742188 0.140625
vt 0.218750 0.125000
vt 0.742188 0.125000
vt 1.000000 0.109375
vt 0.484375 0.109375
vt 0.218750 0.093750
vt 0.218750 0.203125
vt 0.742188 0.093750
vt 0.742188 0.117188
vt 0.484375 0.187500
vt 0.484375 0.218750
vt 0.742188 0.195312
vt 0.484375 0.101562
vt 0.484375 0.203125
vt 0.484375 0.187500
vt 0.742188 0.179688
vt 0.218750 0.203125
vt 0.218750 0.187500
vt 1.000000 0.179688
vt 0.218750 0.171875
vt 1.000000 0.164062
vt 0.742188 0.171875
vt 0.484375 0.156250
vt 1.000000 0.140625
vt 0.484375 0.140625
vt 0.742188 0.125000
vt 1.000000 0.125000
vt 0.484375 0.125000
vt 1.000000 0.093750
vt 0.484375 0.203125
vt 0.484375 0.117188
vt 0.484375 0.093750
vt 0.484375 0.171875
vt 0.742188 0.164062
vt 0.226562 0.140625
vt 0.742188 0.140625
vt 0.226562 0.125000
vt 0.484375 0.125000
vt 0.742188 0.109375
vt 0.742188 0.125000
vt 0.226562 0.203125
vt 0.742188 0.093750
vt 0.742188 0.109375
vt 0.742188 0.218750
vt 0.226562 0.218750
vt 0.226562 0.187500
vt 0.226562 0.203125
vt 0.226562 0.187500
vt 0.484375 0.187500
vt 0.484375 0.203125
vt 0.742188 0.203125
vt 0.742188 0.187500
vt 0.226562 0.187500
vt 0.226562 0.203125
vt 0.742188 0.171875
vt 0.226562 0.171875
vt 0.742188 0.156250
vt 0.226562 0.156250
vt 0.871094 0.179688
vt 0.613281 0.140625
vt 0.613281 0.109375
vt 0.613281 0.117188
vt 0.613281 0.093750
vt 0.613281 0.156250
vt 0.613281 0.171875
vt 0.871094 0.164062
vt 0.871094 0.195312
vt 0.613281 0.101562
vt 0.613281 0.125000
vt 0.871094 0.125000
vt 0.355469 0.140625
vt 0.871094 0.140625
vt 0.871094 0.109375
vt 0.355469 0.203125
vt 0.871094 0.093750
vt 0.355469 0.218750
vt 0.355469 0.187500
vt 0.355469 0.171875
vt 0.355469 0.156250
vt 0.355469 0.187500
vt 0.355469 0.203125
vt 0.613281 0.187500
vt 0.613281 0.203125
vt 0.613281 0.125000
vt 0.613281 0.093750
vt 0.613281 0.140625
vt 0.613281 0.109375
vt 0.613281 0.218750
vt 0.613281 0.109375
vt 0.613281 0.156250
vt 0.613281 0.125000
vt 0.613281 0.171875
s 0

f 13/38/1 14/40/1 3/7/1 1/1/1
f 16/44/2 17/46/2 5/13/2 7/19/2
f 18/48/3 13/37/3 1/2/3 9/25/3
f 14/41/4 15/42/4 12/35/4 3/8/4
f 12/36/5 9/27/5 1/3/5 3/9/5
f 10/28/6 11/32/6 4/10/6 2/4/6
f 17/45/7 18/49/7 9/26/7 5/14/7
f 11/33/8 10/29/8 6/16/8 8/22/8
f 15/42/9 16/43/9 7/20/9 12/35/9
f 9/27/10 12/36/11 7/21/12 5/15/13
f 14/40/14 13/38/15 2/5/16 4/11/17
f 15/42/18 14/41/18 4/12/18 11/34/18
f 16/43/19 15/42/19 11/34/19 8/23/19
f 17/46/20 16/44/20 8/24/20 6/17/20
f 18/50/21 17/47/22 6/18/23 10/30/24
f 13/39/25 18/51/25 10/31/25 2/6/25
f 21/58/26 32/91/26 31/89/26 19/52/26
f 23/64/27 35/97/27 34/95/27 25/70/27
f 19/53/28 31/88/28 36/99/28 27/76/28
f 30/86/29 33/93/29 32/92/29 21/59/29
f 19/54/30 27/78/30 30/87/30 21/60/30
f 22/61/31 29/83/31 28/79/31 20/55/31
f 27/77/32 36/100/32 35/96/32 23/65/32
f 24/67/33 28/80/33 29/84/33 26/73/33
f 25/71/34 34/94/34 33/93/34 30/86/34
f 25/72/35 30/87/36 27/78/37 23/66/38
f 20/56/39 31/89/40 32/91/41 22/62/42
f 22/63/43 32/92/43 33/93/43 29/85/43
f 29/85/44 33/93/44 34/94/44 26/74/44
f 26/75/45 34/95/45 35/97/45 24/68/45
f 24/69/46 35/98/47 36/101/48 28/81/49
f 28/82/50 36/102/50 31/90/50 20/57/50
f 37/103/51 39/107/51 77/210/51 38/105/51
f 39/107/52 40/110/52 41/113/52 77/210/52
f 40/110/53 42/115/53 43/118/53 41/113/53
f 42/116/54 44/122/54 45/125/54 43/119/54
f 44/123/55 46/129/55 81/220/55 45/126/55
f 46/130/56 47/133/56 48/136/56 81/221/56
f 47/133/57 49/138/57 50/140/57 48/136/57
f 49/138/58 37/103/58 38/105/58 50/140/58
f 47/134/59 46/131/59 40/111/59 39/108/59
f 49/139/60 47/135/60 39/109/60 37/104/60
f 40/112/61 46/132/61 44/124/61 42/117/61
f 63/175/62 52/144/62 51/142/62 62/173/62
f 54/150/63 53/147/63 52/144/63 63/175/63
f 65/179/64 55/152/64 53/147/64 54/150/64
f 57/158/65 56/155/65 55/153/65 65/180/65
f 68/190/66 58/162/66 56/156/66 57/159/66
f 69/193/67 59/166/67 58/163/67 68/191/67
f 61/171/68 60/169/68 59/166/68 69/193/68
f 62/173/69 51/142/69 60/169/69 61/171/69
f 53/148/70 58/164/70 59/167/70 52/145/70
f 52/146/70 59/168/70 60/170/70 51/143/70
f 56/157/71 58/165/71 53/149/71 55/154/71
f 86/233/72 92/242/72 63/176/72 62/174/72
f 92/242/73 87/234/73 54/151/73 63/176/73
f 87/234/74 88/236/74 65/181/74 54/151/74
f 88/235/75 91/241/75 57/160/75 65/182/75
f 91/240/76 85/232/76 68/192/76 57/161/76
f 85/232/77 90/239/77 69/194/77 68/192/77
f 90/238/78 89/237/78 61/172/78 69/195/78
f 89/237/79 86/233/79 62/174/79 61/172/79
f 94/245/80 93/243/80 73/200/80 71/197/80
f 93/243/81 95/246/81 64/177/81 73/200/81
f 95/246/82 96/248/82 74/202/82 64/177/82
f 96/247/83 97/250/83 66/183/83 74/203/83
f 97/249/84 100/254/84 67/187/84 66/184/84
f 100/253/85 98/251/85 75/206/85 67/188/85
f 98/251/86 99/252/86 70/196/86 75/206/86
f 99/252/87 94/244/87 71/198/87 70/196/87
f 103/259/88 107/264/88 72/199/88 76/209/88
f 107/264/89 104/260/89 78/212/89 72/199/89
f 104/260/90 102/258/90 79/215/90 78/212/90
f 102/257/91 105/262/91 80/216/91 79/213/91
f 105/261/92 101/256/92 82/224/92 80/217/92
f 101/255/93 108/265/93 83/228/93 82/225/93
f 108/265/94 106/263/94 84/230/94 83/228/94
f 106/263/95 103/259/95 76/209/95 84/230/95
f 70/196/96 71/198/96 86/233/96 89/237/96
f 75/206/97 70/196/97 89/237/97 90/238/97
f 67/189/98 75/207/98 90/239/98 85/232/98
f 66/185/99 67/189/99 85/232/99 91/240/99
f 74/204/100 66/186/100 91/241/100 88/235/100
f 64/178/101 74/205/101 88/236/101 87/234/101
f 73/201/102 64/178/102 87/234/102 92/242/102
f 71/198/103 73/201/103 92/242/103 86/233/103
f 84/231/104 76/208/104 94/244/104 99/252/104
f 83/229/105 84/231/105 99/252/105 98/251/105
f 82/226/106 83/229/106 98/251/106 100/253/106
f 80/218/107 82/227/107 100/254/107 97/249/107
f 79/214/108 80/219/108 97/250/108 96/247/108
f 78/212/109 79/215/109 96/248/109 95/246/109
f 72/199/110 78/212/110 95/246/110 93/243/110
f 76/209/111 72/199/111 93/243/111 94/245/111
f 50/141/112 38/106/112 103/259/112 106/263/112
f 48/137/113 50/141/113 106/263/113 108/265/113
f 81/222/114 48/137/114 108/265/114 101/255/114
f 45/127/115 81/223/115 101/256/115 105/261/115
f 43/120/116 45/128/116 105/262/116 102/257/116
f 41/114/117 43/121/117 102/258/117 104/260/117
f 77/211/118 41/114/118 104/260/118 107/264/118
f 38/106/119 77/211/119 107/264/119 103/259/119
