



vn 0.0 0.0 1.0
vn 0.0 0.0 -1.0
vn -1.0 0.0 0.0
vn 1.0 0.0 0.0
vn 0.0 1.0 0.0
vn 0.0 -1.0 0.0

v 13.00000 34.00000 -27.00000
v 13.00000 5.00000 -27.00000
v -13.00000 5.00000 -27.00000
v -13.00000 34.00000 -27.00000
v -12.00000 42.00000 -16.00000
v -12.00000 33.00000 -16.00000
v -13.00000 33.00000 -16.00000
v -13.00000 42.00000 -16.00000
v 13.00000 6.00000 -21.00000
v 13.00000 0.00000 -21.00000
v 12.00000 0.00000 -21.00000
v 12.00000 6.00000 -21.00000
v -11.00000 42.00000 -18.00000
v -11.00000 36.00000 -18.00000
v -12.00000 36.00000 -18.00000
v -12.00000 42.00000 -18.00000
v 13.00000 37.00000 -27.00000
v -12.00000 34.00000 -27.00000
v -12.00000 37.00000 -27.00000
v 13.00000 40.00000 -27.00000
v -11.00000 37.00000 -27.00000
v -11.00000 40.00000 -27.00000
v 11.00000 3.00000 -27.00000
v 11.00000 1.00000 -27.00000
v -13.00000 1.00000 -27.00000
v -13.00000 3.00000 -27.00000
v 12.00000 5.00000 -27.00000
v 12.00000 3.00000 -27.00000
v 13.00000 42.00000 -27.00000
v -10.00000 40.00000 -27.00000
v -10.00000 42.00000 -27.00000
v -10.00000 42.00000 -25.00000
v -10.00000 40.00000 -25.00000
v -11.00000 40.00000 -25.00000
v -11.00000 42.00000 -25.00000
v 7.00000 1.00000 -27.00000
v 7.00000 0.00000 -27.00000
v -13.00000 0.00000 -27.00000
v 8.00000 1.00000 -26.00000
v 8.00000 0.00000 -26.00000
v 7.00000 0.00000 -26.00000
v 7.00000 1.00000 -26.00000
v 12.00000 3.00000 -26.00000
v 12.00000 2.00000 -26.00000
v 11.00000 2.00000 -26.00000
v 11.00000 3.00000 -26.00000
v 9.00000 1.00000 -25.00000
v 9.00000 0.00000 -25.00000
v 8.00000 0.00000 -25.00000
v 8.00000 1.00000 -25.00000
v 12.00000 2.00000 -25.00000
v 12.00000 1.00000 -25.00000
v 11.00000 1.00000 -25.00000
v 11.00000 2.00000 -25.00000
v 10.00000 1.00000 -24.00000
v 10.00000 0.00000 -24.00000
v 9.00000 0.00000 -24.00000
v 9.00000 1.00000 -24.00000
v 11.00000 1.00000 -23.00000
v 11.00000 0.00000 -23.00000
v 10.00000 0.00000 -23.00000
v 10.00000 1.00000 -23.00000
v 12.00000 1.00000 -22.00000
v 12.00000 0.00000 -22.00000
v 11.00000 0.00000 -22.00000
v 11.00000 1.00000 -22.00000
v -13.00000 42.00000 25.00000
v -13.00000 26.00000 25.00000
v 13.00000 26.00000 25.00000
v 13.00000 42.00000 25.00000
v -13.00000 22.00000 25.00000
v -13.00000 10.00000 25.00000
v 2.00000 10.00000 25.00000
v 2.00000 22.00000 25.00000
v 2.00000 22.00000 24.00000
v 2.00000 10.00000 24.00000
v 7.00000 10.00000 24.00000
v 7.00000 22.00000 24.00000
v -13.00000 4.00000 25.00000
v 7.00000 4.00000 25.00000
v 7.00000 10.00000 25.00000
v 7.00000 4.00000 24.00000
v 13.00000 4.00000 24.00000
v 13.00000 10.00000 24.00000
v 9.00000 19.00000 22.00000
v 9.00000 14.00000 22.00000
v 13.00000 14.00000 22.00000
v 13.00000 19.00000 22.00000
v 7.00000 19.00000 23.00000
v 7.00000 14.00000 23.00000
v 9.00000 14.00000 23.00000
v 9.00000 19.00000 23.00000
v -13.00000 0.00000 25.00000
v 13.00000 0.00000 25.00000
v 13.00000 4.00000 25.00000
v 7.00000 22.00000 25.00000
v 7.00000 26.00000 25.00000
v 7.00000 10.00000 23.00000
v 13.00000 10.00000 23.00000
v 13.00000 14.00000 23.00000
v 7.00000 22.00000 23.00000
v 13.00000 19.00000 23.00000
v 13.00000 22.00000 23.00000
v 7.00000 26.00000 24.00000
v 13.00000 22.00000 24.00000
v 13.00000 26.00000 24.00000
v 12.00000 6.00000 -24.00000
v 12.00000 5.00000 -24.00000
v 13.00000 5.00000 -24.00000
v 13.00000 6.00000 -24.00000
v -13.00000 34.00000 -23.00000
v -13.00000 33.00000 -23.00000
v -12.00000 33.00000 -23.00000
v -12.00000 34.00000 -23.00000
v -12.00000 37.00000 -22.00000
v -12.00000 36.00000 -22.00000
v -11.00000 36.00000 -22.00000
v -11.00000 37.00000 -22.00000
v -13.00000 33.00000 -27.00000
v -13.00000 33.00000 25.00000
v -12.00000 36.00000 -16.00000
v -11.00000 37.00000 -18.00000
v -11.00000 40.00000 -18.00000
v -12.00000 36.00000 -27.00000
v -12.00000 34.00000 -16.00000
v 13.00000 26.00000 -27.00000
v 13.00000 14.00000 -27.00000
v 13.00000 19.00000 -27.00000
v 13.00000 6.00000 24.00000
v 13.00000 6.00000 -27.00000
v 13.00000 10.00000 -27.00000
v 13.00000 22.00000 -27.00000
v 13.00000 4.00000 -21.00000
v 12.00000 5.00000 -21.00000
v 12.00000 3.00000 -21.00000
v 12.00000 2.00000 -21.00000
v 12.00000 1.00000 -21.00000
v 11.00000 2.00000 -27.00000
v 13.00000 42.00000 -16.00000
v 13.00000 42.00000 -18.00000
v 13.00000 42.00000 -25.00000
v -13.00000 0.00000 -21.00000
v -13.00000 0.00000 -26.00000
v -13.00000 0.00000 -25.00000
v -13.00000 0.00000 -24.00000
v -13.00000 0.00000 -23.00000
v -13.00000 0.00000 -22.00000
v 11.00000 1.00000 -26.00000
v 12.00000 1.00000 -24.00000
v 12.00000 1.00000 -23.00000

vt 0.00781 0.36719
vt 0.00781 0.00781
vt 0.21094 0.00781
vt 0.21094 0.36719
vt 0.22656 0.32813
vt 0.22656 0.00781
vt 0.42969 0.00781
vt 0.42969 0.32813
vt 0.44531 0.26563
vt 0.44531 0.00781
vt 0.85156 0.00781
vt 0.85156 0.26563
vt 0.00781 0.60938
vt 0.00781 0.38281
vt 0.21094 0.38281
vt 0.21094 0.60938
vt 0.22656 0.50781
vt 0.22656 0.38281
vt 0.63281 0.38281
vt 0.63281 0.50781
vt 0.64844 0.50781
vt 0.64844 0.38281
vt 0.85156 0.38281
vt 0.85156 0.50781
vt 0.86719 0.10156
vt 0.86719 0.00781
vt 0.98438 0.00781
vt 0.98438 0.10156
vt 0.86719 0.21094
vt 0.86719 0.11719
vt 0.90625 0.11719
vt 0.90625 0.21094
vt 0.92188 0.21094
vt 0.92188 0.11719
vt 0.92969 0.11719
vt 0.92969 0.21094
vt 0.94531 0.21094
vt 0.94531 0.11719
vt 0.95313 0.11719
vt 0.95313 0.21094
vt 0.22656 0.59375
vt 0.22656 0.52344
vt 0.54688 0.52344
vt 0.54688 0.59375
vt 0.96875 0.18750
vt 0.96875 0.11719
vt 0.97656 0.11719
vt 0.97656 0.18750
vt 0.56250 0.57813
vt 0.56250 0.52344
vt 0.75000 0.52344
vt 0.75000 0.57813
vt 0.86719 0.43750
vt 0.86719 0.38281
vt 0.87500 0.38281
vt 0.87500 0.43750
vt 0.44531 0.32813
vt 0.44531 0.28125
vt 0.60156 0.28125
vt 0.60156 0.32813
vt 0.61719 0.32813
vt 0.61719 0.28125
vt 0.66406 0.28125
vt 0.66406 0.32813
vt 0.67969 0.32813
vt 0.67969 0.28125
vt 0.69531 0.28125
vt 0.69531 0.32813
vt 0.71094 0.32813
vt 0.71094 0.28125
vt 0.71875 0.28125
vt 0.71875 0.32813
vt 0.73438 0.32813
vt 0.73438 0.28125
vt 0.74219 0.28125
vt 0.74219 0.32813
vt 0.75781 0.32813
vt 0.75781 0.28125
vt 0.76563 0.28125
vt 0.76563 0.32813
vt 0.00781 0.66406
vt 0.00781 0.62500
vt 0.39063 0.62500
vt 0.39063 0.66406
vt 0.86719 0.26563
vt 0.86719 0.22656
vt 0.89844 0.22656
vt 0.89844 0.26563
vt 0.91406 0.26563
vt 0.91406 0.22656
vt 0.92969 0.22656
vt 0.92969 0.26563
vt 0.94531 0.26563
vt 0.94531 0.22656
vt 0.95313 0.22656
vt 0.95313 0.26563
vt 0.96875 0.26563
vt 0.96875 0.22656
vt 0.97656 0.22656
vt 0.97656 0.26563
vt 0.40625 0.65625
vt 0.40625 0.62500
vt 0.80469 0.62500
vt 0.80469 0.65625
vt 0.00781 0.71094
vt 0.00781 0.67969
vt 0.40625 0.67969
vt 0.40625 0.71094
vt 0.42188 0.71094
vt 0.42188 0.67969
vt 0.81250 0.67969
vt 0.81250 0.71094
vt 0.00781 0.75781
vt 0.00781 0.72656
vt 0.36719 0.72656
vt 0.36719 0.75781
vt 0.78125 0.31250
vt 0.78125 0.28125
vt 0.98438 0.28125
vt 0.98438 0.31250
vt 0.76563 0.55469
vt 0.76563 0.52344
vt 0.92188 0.52344
vt 0.92188 0.55469
vt 0.89063 0.41406
vt 0.89063 0.38281
vt 0.93750 0.38281
vt 0.93750 0.41406
vt 0.86719 0.48438
vt 0.86719 0.45313
vt 0.91406 0.45313
vt 0.91406 0.48438
vt 0.95313 0.41406
vt 0.95313 0.38281
vt 0.96094 0.38281
vt 0.96094 0.41406
vt 0.97656 0.41406
vt 0.97656 0.38281
vt 0.98438 0.38281
vt 0.98438 0.41406
vt 0.92969 0.48438
vt 0.92969 0.45313
vt 0.93750 0.45313
vt 0.93750 0.48438
vt 0.22656 0.36719
vt 0.22656 0.34375
vt 0.61719 0.34375
vt 0.61719 0.36719
vt 0.63281 0.36719
vt 0.63281 0.34375
vt 0.82813 0.34375
vt 0.82813 0.36719
vt 0.38281 0.75000
vt 0.38281 0.72656
vt 0.57031 0.72656
vt 0.57031 0.75000
vt 0.84375 0.36719
vt 0.84375 0.34375
vt 0.91406 0.34375
vt 0.91406 0.36719
vt 0.92969 0.36719
vt 0.92969 0.34375
vt 0.97656 0.34375
vt 0.97656 0.36719
vt 0.95313 0.47656
vt 0.95313 0.45313
vt 0.96094 0.45313
vt 0.96094 0.47656
vt 0.97656 0.47656
vt 0.97656 0.45313
vt 0.98438 0.45313
vt 0.98438 0.47656
vt 0.58594 0.74219
vt 0.58594 0.72656
vt 0.93750 0.72656
vt 0.93750 0.74219
vt 0.00781 0.78906
vt 0.00781 0.77344
vt 0.20313 0.77344
vt 0.20313 0.78906
vt 0.21875 0.78906
vt 0.21875 0.77344
vt 0.41406 0.77344
vt 0.41406 0.78906
vt 0.42969 0.78906
vt 0.42969 0.77344
vt 0.61719 0.77344
vt 0.61719 0.78906
vt 0.63281 0.78906
vt 0.63281 0.77344
vt 0.81250 0.77344
vt 0.81250 0.78906
vt 0.00781 0.82031
vt 0.00781 0.80469
vt 0.18750 0.80469
vt 0.18750 0.82031
vt 0.82031 0.64063
vt 0.82031 0.62500
vt 0.90625 0.62500
vt 0.90625 0.64063
vt 0.93750 0.53906
vt 0.93750 0.52344
vt 0.99219 0.52344
vt 0.99219 0.53906
vt 0.92188 0.64063
vt 0.92188 0.62500
vt 0.96875 0.62500
vt 0.96875 0.64063
vt 0.82813 0.69531
vt 0.82813 0.67969
vt 0.84375 0.67969
vt 0.84375 0.69531
vt 0.98438 0.64063
vt 0.98438 0.62500
vt 0.99219 0.62500
vt 0.99219 0.64063
vt 0.85938 0.69531
vt 0.85938 0.67969
vt 0.86719 0.67969
vt 0.86719 0.69531
vt 0.76563 0.57813
vt 0.76563 0.57031
vt 0.96094 0.57031
vt 0.96094 0.57813
vt 0.20313 0.81250
vt 0.20313 0.80469
vt 0.39063 0.80469
vt 0.39063 0.81250
vt 0.40625 0.81250
vt 0.40625 0.80469
vt 0.58594 0.80469
vt 0.58594 0.81250
vt 0.60156 0.81250
vt 0.60156 0.80469
vt 0.77344 0.80469
vt 0.77344 0.81250
vt 0.82813 0.78125
vt 0.82813 0.77344
vt 0.99219 0.77344
vt 0.99219 0.78125
vt 0.78906 0.81250
vt 0.78906 0.80469
vt 0.94531 0.80469
vt 0.94531 0.81250
vt 0.00781 0.84375
vt 0.00781 0.83594
vt 0.16406 0.83594
vt 0.16406 0.84375
vt 0.89063 0.43750
vt 0.89063 0.42969
vt 0.94531 0.42969
vt 0.94531 0.43750
vt 0.86719 0.50781
vt 0.86719 0.50000
vt 0.91406 0.50000
vt 0.91406 0.50781
vt 0.92969 0.50781
vt 0.92969 0.50000
vt 0.97656 0.50000
vt 0.97656 0.50781
vt 0.88281 0.68750
vt 0.88281 0.67969
vt 0.92969 0.67969
vt 0.92969 0.68750
vt 0.94531 0.68750
vt 0.94531 0.67969
vt 0.99219 0.67969
vt 0.99219 0.68750
vt 0.95313 0.73438
vt 0.95313 0.72656
vt 0.99219 0.72656
vt 0.99219 0.73438
vt 0.17969 0.84375
vt 0.17969 0.83594
vt 0.21875 0.83594
vt 0.21875 0.84375
vt 0.23438 0.84375
vt 0.23438 0.83594
vt 0.27344 0.83594
vt 0.27344 0.84375
vt 0.28906 0.84375
vt 0.28906 0.83594
vt 0.32813 0.83594
vt 0.32813 0.84375
vt 0.96094 0.43750
vt 0.96094 0.42969
vt 0.99219 0.42969
vt 0.99219 0.43750
vt 0.96094 0.81250
vt 0.96094 0.80469
vt 0.99219 0.80469
vt 0.99219 0.81250
vt 0.34375 0.84375
vt 0.34375 0.83594
vt 0.37500 0.83594
vt 0.37500 0.84375
vt 0.39063 0.84375
vt 0.39063 0.83594
vt 0.42188 0.83594
vt 0.42188 0.84375
vt 0.43750 0.84375
vt 0.43750 0.83594
vt 0.46875 0.83594
vt 0.46875 0.84375
vt 0.48438 0.84375
vt 0.48438 0.83594
vt 0.51563 0.83594
vt 0.51563 0.84375
vt 0.96875 0.21094
vt 0.96875 0.20313
vt 0.99219 0.20313
vt 0.99219 0.21094
vt 0.53125 0.84375
vt 0.53125 0.83594
vt 0.55469 0.83594
vt 0.55469 0.84375
vt 0.57031 0.84375
vt 0.57031 0.83594
vt 0.59375 0.83594
vt 0.59375 0.84375
vt 0.60938 0.84375
vt 0.60938 0.83594
vt 0.63281 0.83594
vt 0.63281 0.84375
vt 0.97656 0.57813
vt 0.97656 0.57031
vt 0.99219 0.57031
vt 0.99219 0.57813
vt 0.64844 0.84375
vt 0.64844 0.83594
vt 0.66406 0.83594
vt 0.66406 0.84375
vt 0.67969 0.84375
vt 0.67969 0.83594
vt 0.68750 0.83594
vt 0.68750 0.84375
vt 0.70313 0.84375
vt 0.70313 0.83594
vt 0.71094 0.83594
vt 0.71094 0.84375
vt 0.72656 0.84375
vt 0.72656 0.83594
vt 0.73438 0.83594
vt 0.73438 0.84375
vt 0.75000 0.84375
vt 0.75000 0.83594
vt 0.75781 0.83594
vt 0.75781 0.84375
vt 0.77344 0.84375
vt 0.77344 0.83594
vt 0.78125 0.83594
vt 0.78125 0.84375
vt 0.79688 0.84375
vt 0.79688 0.83594
vt 0.80469 0.83594
vt 0.80469 0.84375
vt 0.82031 0.84375
vt 0.82031 0.83594
vt 0.82813 0.83594
vt 0.82813 0.84375
vt 0.84375 0.84375
vt 0.84375 0.83594
vt 0.85156 0.83594
vt 0.85156 0.84375
vt 0.86719 0.84375
vt 0.86719 0.83594
vt 0.87500 0.83594
vt 0.87500 0.84375
vt 0.89063 0.84375
vt 0.89063 0.83594
vt 0.89844 0.83594
vt 0.89844 0.84375
vt 0.91406 0.84375
vt 0.91406 0.83594
vt 0.92188 0.83594
vt 0.92188 0.84375
vt 0.93750 0.84375
vt 0.93750 0.83594
vt 0.94531 0.83594
vt 0.94531 0.84375
vt 0.96094 0.84375
vt 0.96094 0.83594
vt 0.96875 0.83594
vt 0.96875 0.84375
vt 0.98438 0.84375
vt 0.98438 0.83594
vt 0.99219 0.83594
vt 0.99219 0.84375
vt 0.00781 0.86719
vt 0.00781 0.85938
vt 0.01563 0.85938
vt 0.01563 0.86719
vt 0.03125 0.86719
vt 0.03125 0.85938
vt 0.03906 0.85938
vt 0.03906 0.86719
vt 0.05469 0.86719
vt 0.05469 0.85938
vt 0.06250 0.85938
vt 0.06250 0.86719
vt 0.07813 0.86719
vt 0.07813 0.85938
vt 0.08594 0.85938
vt 0.08594 0.86719
vt 0.10156 0.86719
vt 0.10156 0.85938
vt 0.10938 0.85938
vt 0.10938 0.86719
vt 0.12500 0.86719
vt 0.12500 0.85938
vt 0.13281 0.85938
vt 0.13281 0.86719

g Union_6

f 1/13/2 2/14/2 3/15/2 4/16/2
f 5/45/2 6/46/2 7/47/2 8/48/2
f 9/69/2 10/70/2 11/71/2 12/72/2
f 13/77/2 14/78/2 15/79/2 16/80/2
f 17/149/2 1/150/2 18/151/2 19/152/2
f 20/153/2 17/154/2 21/155/2 22/156/2
f 23/185/2 24/186/2 25/187/2 26/188/2
f 27/181/2 28/182/2 26/183/2 3/184/2
f 29/189/2 20/190/2 30/191/2 31/192/2
f 32/217/2 33/218/2 34/219/2 35/220/2
f 36/245/2 37/246/2 38/247/2 25/248/2
f 39/337/2 40/338/2 41/339/2 42/340/2
f 43/397/2 44/398/2 45/399/2 46/400/2
f 47/393/2 48/394/2 49/395/2 50/396/2
f 51/389/2 52/390/2 53/391/2 54/392/2
f 55/409/2 56/410/2 57/411/2 58/412/2
f 59/405/2 60/406/2 61/407/2 62/408/2
f 63/401/2 64/402/2 65/403/2 66/404/2
f 67/21/1 68/22/1 69/23/1 70/24/1
f 71/25/1 72/26/1 73/27/1 74/28/1
f 75/29/1 76/30/1 77/31/1 78/32/1
f 72/57/1 79/58/1 80/59/1 81/60/1
f 77/61/1 82/62/1 83/63/1 84/64/1
f 85/85/1 86/86/1 87/87/1 88/88/1
f 89/89/1 90/90/1 91/91/1 92/92/1
f 79/117/1 93/118/1 94/119/1 95/120/1
f 68/121/1 71/122/1 96/123/1 97/124/1
f 90/129/1 98/130/1 99/131/1 100/132/1
f 101/161/1 89/162/1 102/163/1 103/164/1
f 104/125/1 78/126/1 105/127/1 106/128/1
f 107/385/1 108/386/1 109/387/1 110/388/1
f 111/381/1 112/382/1 113/383/1 114/384/1
f 115/377/1 116/378/1 117/379/1 118/380/1
f 119/9/3 38/10/3 93/11/3 120/12/3
f 8/41/3 7/42/3 120/43/3 67/44/3
f 16/65/3 15/66/3 121/67/3 5/68/3
f 22/157/3 21/158/3 122/159/3 123/160/3
f 124/197/3 18/198/3 125/199/3 121/200/3
f 35/201/3 34/202/3 123/203/3 13/204/3
f 31/209/3 30/210/3 33/211/3 32/212/3
f 19/269/3 124/270/3 116/271/3 115/272/3
f 114/249/3 113/250/3 6/251/3 125/252/3
f 4/301/3 119/302/3 112/303/3 111/304/3
f 118/305/3 117/306/3 14/307/3 122/308/3
f 70/17/4 69/18/4 126/19/4 29/20/4
f 78/33/4 77/34/4 98/35/4 101/36/4
f 74/37/4 73/38/4 76/39/4 75/40/4
f 88/81/4 87/82/4 127/83/4 128/84/4
f 92/93/4 91/94/4 86/95/4 85/96/4
f 81/73/4 80/74/4 82/75/4 77/76/4
f 84/101/4 129/102/4 130/103/4 131/104/4
f 100/109/4 99/110/4 131/111/4 127/112/4
f 103/145/4 102/146/4 128/147/4 132/148/4
f 106/105/4 105/106/4 132/107/4 126/108/4
f 95/113/4 94/114/4 10/115/4 133/116/4
f 97/137/4 96/138/4 78/139/4 104/140/4
f 129/173/4 83/174/4 133/175/4 9/176/4
f 134/205/4 135/206/4 28/207/4 27/208/4
f 135/277/4 136/278/4 44/279/4 43/280/4
f 110/309/4 109/310/4 2/311/4 130/312/4
f 136/297/4 137/298/4 52/299/4 51/300/4
f 12/313/4 134/314/4 108/315/4 107/316/4
f 54/325/4 53/326/4 24/327/4 138/328/4
f 42/365/4 41/366/4 37/367/4 36/368/4
f 46/369/4 45/370/4 138/371/4 23/372/4
f 50/373/4 49/374/4 40/375/4 39/376/4
f 58/341/4 57/342/4 48/343/4 47/344/4
f 62/333/4 61/334/4 56/335/4 55/336/4
f 66/357/4 65/358/4 60/359/4 59/360/4
f 137/361/4 11/362/4 64/363/4 63/364/4
f 8/5/5 67/6/5 70/7/5 139/8/5
f 35/49/5 13/50/5 140/51/5 141/52/5
f 19/97/5 115/98/5 118/99/5 21/100/5
f 112/53/5 7/54/5 6/55/5 113/56/5
f 4/141/5 111/142/5 114/143/5 18/144/5
f 116/133/5 15/134/5 14/135/5 117/136/5
f 31/193/5 32/194/5 141/195/5 29/196/5
f 16/177/5 5/178/5 139/179/5 140/180/5
f 22/213/5 34/214/5 33/215/5 30/216/5
f 98/261/5 77/262/5 84/263/5 99/264/5
f 76/273/5 73/274/5 81/275/5 77/276/5
f 82/257/5 80/258/5 95/259/5 83/260/5
f 86/289/5 91/290/5 100/291/5 87/292/5
f 93/1/6 142/2/6 10/3/6 94/4/6
f 108/169/6 27/170/6 2/171/6 109/172/6
f 12/165/6 107/166/6 110/167/6 9/168/6
f 143/241/6 38/242/6 37/243/6 41/244/6
f 144/237/6 143/238/6 40/239/6 49/240/6
f 145/233/6 144/234/6 48/235/6 57/236/6
f 146/229/6 145/230/6 56/231/6 61/232/6
f 147/225/6 146/226/6 60/227/6 65/228/6
f 142/221/6 147/222/6 64/223/6 11/224/6
f 78/253/6 101/254/6 103/255/6 105/256/6
f 74/281/6 75/282/6 78/283/6 96/284/6
f 97/265/6 104/266/6 106/267/6 69/268/6
f 42/285/6 36/286/6 24/287/6 148/288/6
f 50/317/6 39/318/6 148/319/6 53/320/6
f 58/321/6 47/322/6 52/323/6 149/324/6
f 92/293/6 85/294/6 88/295/6 102/296/6
f 62/329/6 55/330/6 149/331/6 150/332/6
f 46/353/6 23/354/6 28/355/6 43/356/6
f 54/345/6 45/346/6 44/347/6 51/348/6
f 66/349/6 59/350/6 150/351/6 63/352/6
